G04*
G04 #@! TF.GenerationSoftware,Altium Limited,Altium Designer,22.0.2 (36)*
G04*
G04 Layer_Color=16711935*
%FSLAX25Y25*%
%MOIN*%
G70*
G04*
G04 #@! TF.SameCoordinates,A6D4CE7A-EFCD-4D6A-9A72-3AB9F5591AE9*
G04*
G04*
G04 #@! TF.FilePolarity,Positive*
G04*
G01*
G75*
%ADD16C,0.01000*%
%ADD98C,0.00591*%
%ADD99C,0.00394*%
D16*
X351500Y54398D02*
G03*
X365673Y68571I0J14173D01*
G01*
Y261500D02*
G03*
X351500Y275673I-14173J0D01*
G01*
X30579Y68571D02*
G03*
X44752Y54398I14173J0D01*
G01*
Y275658D02*
G03*
X30579Y261484I0J-14173D01*
G01*
X44752Y275658D02*
X351500D01*
X365673Y68571D02*
Y261500D01*
X44752Y54398D02*
X351500D01*
X30579Y68571D02*
Y261484D01*
D98*
X303741Y178500D02*
G03*
X303741Y178500I-1414J0D01*
G01*
X233732Y165023D02*
G03*
X233732Y165023I-1969J0D01*
G01*
X299240Y181500D02*
X313413D01*
Y141500D02*
Y181500D01*
X299240Y141500D02*
X313413D01*
X299240D02*
Y181500D01*
X228221Y161479D02*
X255780D01*
X228221Y189038D02*
X255780D01*
X228221Y161479D02*
Y189038D01*
X255780Y161479D02*
Y189038D01*
D99*
X188969Y171500D02*
G03*
X188969Y171500I-984J0D01*
G01*
X111882Y200441D02*
X127591D01*
X111882Y180559D02*
X127591D01*
X111882D02*
Y200441D01*
X127591Y180559D02*
Y200441D01*
X165205Y160610D02*
Y174390D01*
X190795Y160610D02*
Y174390D01*
X165205Y160610D02*
X190795D01*
X165205Y174390D02*
X190795D01*
M02*
