G04*
G04 #@! TF.GenerationSoftware,Altium Limited,Altium Designer,22.0.2 (36)*
G04*
G04 Layer_Color=16711935*
%FSLAX25Y25*%
%MOIN*%
G70*
G04*
G04 #@! TF.SameCoordinates,A6D4CE7A-EFCD-4D6A-9A72-3AB9F5591AE9*
G04*
G04*
G04 #@! TF.FilePolarity,Negative*
G04*
G01*
G75*
%ADD16C,0.01000*%
%ADD48R,0.04461X0.04658*%
%ADD71R,0.04658X0.04461*%
%ADD74C,0.15354*%
%ADD75O,0.09055X0.05118*%
%ADD76C,0.05918*%
%ADD77O,0.05918X0.11430*%
%ADD78O,0.05918X0.10249*%
%ADD79O,0.11430X0.05918*%
%ADD80O,0.10249X0.05918*%
%ADD81C,0.24422*%
D16*
X351500Y54398D02*
G03*
X365673Y68571I0J14173D01*
G01*
Y261500D02*
G03*
X351500Y275673I-14173J0D01*
G01*
X30579Y68571D02*
G03*
X44752Y54398I14173J0D01*
G01*
Y275658D02*
G03*
X30579Y261484I0J-14173D01*
G01*
X44752Y275658D02*
X351500D01*
X365673Y68571D02*
Y261500D01*
X44752Y54398D02*
X351500D01*
X30579Y68571D02*
Y261484D01*
D48*
X233032Y172306D02*
D03*
X226969D02*
D03*
X224563Y164432D02*
D03*
X218500D02*
D03*
X257063Y184598D02*
D03*
X251000D02*
D03*
D71*
X231173Y190563D02*
D03*
Y184500D02*
D03*
X250902Y160437D02*
D03*
Y166500D02*
D03*
X227500Y153437D02*
D03*
Y159500D02*
D03*
D74*
X75681Y179201D02*
D03*
Y150855D02*
D03*
D75*
X52059Y191603D02*
D03*
Y138453D02*
D03*
D76*
X72524Y86516D02*
D03*
X82366D02*
D03*
X90240D02*
D03*
X100083D02*
D03*
X102051Y92422D02*
D03*
X94177D02*
D03*
X86303D02*
D03*
X78429D02*
D03*
X70555D02*
D03*
X332469Y147520D02*
D03*
Y157362D02*
D03*
Y165236D02*
D03*
Y175079D02*
D03*
X326563Y177047D02*
D03*
Y169173D02*
D03*
Y161299D02*
D03*
Y153425D02*
D03*
Y145551D02*
D03*
D77*
X61106Y88485D02*
D03*
X111500D02*
D03*
D78*
Y62500D02*
D03*
X61106D02*
D03*
D79*
X330500Y136102D02*
D03*
Y186496D02*
D03*
D80*
X356485D02*
D03*
Y136102D02*
D03*
D81*
X44752Y261484D02*
D03*
Y68571D02*
D03*
X273098D02*
D03*
Y261484D02*
D03*
M02*
