G04*
G04 #@! TF.GenerationSoftware,Altium Limited,Altium Designer,22.0.2 (36)*
G04*
G04 Layer_Color=255*
%FSLAX25Y25*%
%MOIN*%
G70*
G04*
G04 #@! TF.SameCoordinates,A6D4CE7A-EFCD-4D6A-9A72-3AB9F5591AE9*
G04*
G04*
G04 #@! TF.FilePolarity,Positive*
G04*
G01*
G75*
%ADD16C,0.01000*%
%ADD20R,0.19685X0.07874*%
%ADD21R,0.03661X0.03858*%
%ADD22O,0.07087X0.02165*%
%ADD23R,0.05906X0.13780*%
%ADD24R,0.04724X0.15748*%
%ADD25R,0.04724X0.13780*%
%ADD26R,0.01102X0.01988*%
%ADD27R,0.06496X0.03543*%
%ADD28R,0.07087X0.04449*%
%ADD29O,0.06299X0.02362*%
%ADD30R,0.11811X0.15748*%
%ADD31R,0.04449X0.07087*%
%ADD32R,0.06890X0.08661*%
%ADD33O,0.00984X0.06102*%
%ADD34O,0.06102X0.00984*%
%ADD35R,0.06083X0.03925*%
%ADD36R,0.12598X0.07874*%
%ADD37R,0.03347X0.07874*%
%ADD38R,0.07874X0.04331*%
%ADD39R,0.07874X0.07874*%
G04:AMPARAMS|DCode=40|XSize=50mil|YSize=35mil|CornerRadius=0mil|HoleSize=0mil|Usage=FLASHONLY|Rotation=90.000|XOffset=0mil|YOffset=0mil|HoleType=Round|Shape=Octagon|*
%AMOCTAGOND40*
4,1,8,0.00875,0.02500,-0.00875,0.02500,-0.01750,0.01625,-0.01750,-0.01625,-0.00875,-0.02500,0.00875,-0.02500,0.01750,-0.01625,0.01750,0.01625,0.00875,0.02500,0.0*
%
%ADD40OCTAGOND40*%

%ADD41R,0.03500X0.05000*%
G04:AMPARAMS|DCode=42|XSize=50mil|YSize=35mil|CornerRadius=0mil|HoleSize=0mil|Usage=FLASHONLY|Rotation=180.000|XOffset=0mil|YOffset=0mil|HoleType=Round|Shape=Octagon|*
%AMOCTAGOND42*
4,1,8,-0.02500,0.00875,-0.02500,-0.00875,-0.01625,-0.01750,0.01625,-0.01750,0.02500,-0.00875,0.02500,0.00875,0.01625,0.01750,-0.01625,0.01750,-0.02500,0.00875,0.0*
%
%ADD42OCTAGOND42*%

%ADD43R,0.05000X0.03500*%
%ADD44R,0.03858X0.03661*%
%ADD45R,0.00984X0.02559*%
%ADD46R,0.02559X0.00984*%
%ADD88C,0.14961*%
%ADD89O,0.08661X0.04724*%
%ADD90C,0.05118*%
%ADD91O,0.05118X0.10630*%
%ADD92O,0.05118X0.09449*%
%ADD93O,0.10630X0.05118*%
%ADD94O,0.09449X0.05118*%
%ADD95C,0.23622*%
D16*
X351500Y54398D02*
G03*
X365673Y68571I0J14173D01*
G01*
Y261500D02*
G03*
X351500Y275673I-14173J0D01*
G01*
X30579Y68571D02*
G03*
X44752Y54398I14173J0D01*
G01*
Y275658D02*
G03*
X30579Y261484I0J-14173D01*
G01*
X44752Y275658D02*
X351500D01*
X365673Y68571D02*
Y261500D01*
X44752Y54398D02*
X351500D01*
X30579Y68571D02*
Y261484D01*
D20*
X221299Y133259D02*
D03*
X258701D02*
D03*
D21*
X243032Y146259D02*
D03*
X249095D02*
D03*
X239405Y219500D02*
D03*
X245468D02*
D03*
X137500D02*
D03*
X131437D02*
D03*
X116500Y176500D02*
D03*
X122563D02*
D03*
X131370Y111500D02*
D03*
X137433D02*
D03*
X94500Y190500D02*
D03*
X100563D02*
D03*
X205500Y191000D02*
D03*
X211563D02*
D03*
X307000Y65500D02*
D03*
X300937D02*
D03*
X303000Y87000D02*
D03*
X309063D02*
D03*
X302437Y187000D02*
D03*
X308500D02*
D03*
X281937Y164000D02*
D03*
X288000D02*
D03*
X245563Y111500D02*
D03*
X239500D02*
D03*
X236968Y146259D02*
D03*
X230906D02*
D03*
X201185Y80000D02*
D03*
X207248D02*
D03*
X150563Y197968D02*
D03*
X144500D02*
D03*
X207248Y86000D02*
D03*
X201185D02*
D03*
X243032Y151759D02*
D03*
X236968D02*
D03*
X151000Y176469D02*
D03*
X144937D02*
D03*
D22*
X317154Y144000D02*
D03*
Y149000D02*
D03*
Y154000D02*
D03*
Y159000D02*
D03*
Y164000D02*
D03*
Y169000D02*
D03*
Y174000D02*
D03*
Y179000D02*
D03*
X295500Y144000D02*
D03*
Y149000D02*
D03*
Y154000D02*
D03*
Y159000D02*
D03*
Y164000D02*
D03*
Y169000D02*
D03*
Y174000D02*
D03*
Y179000D02*
D03*
D23*
X169122Y240000D02*
D03*
X157389Y269133D02*
D03*
X220225D02*
D03*
X178964Y240001D02*
D03*
X188807D02*
D03*
X198649D02*
D03*
X208492Y240000D02*
D03*
D24*
X121803Y267946D02*
D03*
X147000D02*
D03*
X229839D02*
D03*
X255035D02*
D03*
X147000Y61978D02*
D03*
X121803Y61976D02*
D03*
X229839Y61978D02*
D03*
X255035D02*
D03*
D25*
X138339Y245308D02*
D03*
X130465D02*
D03*
X246374D02*
D03*
X238500D02*
D03*
X138339Y84616D02*
D03*
X130465D02*
D03*
X246374D02*
D03*
X238500D02*
D03*
D26*
X137355Y235000D02*
D03*
X135386D02*
D03*
X133418D02*
D03*
X131449D02*
D03*
Y227696D02*
D03*
X133418D02*
D03*
X135386D02*
D03*
X137355D02*
D03*
X245390D02*
D03*
X243421D02*
D03*
X241453D02*
D03*
X239484D02*
D03*
Y235000D02*
D03*
X241453D02*
D03*
X243421D02*
D03*
X245390D02*
D03*
X131449Y103652D02*
D03*
X133418D02*
D03*
X135386D02*
D03*
X137355D02*
D03*
Y96348D02*
D03*
X135386D02*
D03*
X133418D02*
D03*
X131449D02*
D03*
X239547D02*
D03*
X241516D02*
D03*
X243484D02*
D03*
X245453D02*
D03*
Y103652D02*
D03*
X243484D02*
D03*
X241516D02*
D03*
X239547D02*
D03*
D27*
X134402Y231348D02*
D03*
X242437D02*
D03*
X134402Y100000D02*
D03*
X242500D02*
D03*
D28*
X145500Y223134D02*
D03*
Y234866D02*
D03*
X253500D02*
D03*
Y223134D02*
D03*
X123500Y96134D02*
D03*
Y107866D02*
D03*
X161500Y201366D02*
D03*
Y189634D02*
D03*
X231500Y107866D02*
D03*
Y96134D02*
D03*
X169000Y189634D02*
D03*
Y201366D02*
D03*
X181000Y144866D02*
D03*
Y133134D02*
D03*
X188500Y144866D02*
D03*
Y133134D02*
D03*
D29*
X109500Y198000D02*
D03*
X109500Y193000D02*
D03*
Y188000D02*
D03*
X109500Y183000D02*
D03*
X129972Y198000D02*
D03*
X129972Y193000D02*
D03*
Y188000D02*
D03*
X129972Y183000D02*
D03*
D30*
X119736Y190500D02*
D03*
D31*
X100169Y184500D02*
D03*
X88437D02*
D03*
X150606Y182468D02*
D03*
X138874D02*
D03*
X150606Y189969D02*
D03*
X138874D02*
D03*
D32*
X92500Y173726D02*
D03*
Y155615D02*
D03*
X106500Y155445D02*
D03*
Y173555D02*
D03*
D33*
X231173Y159512D02*
D03*
X233142D02*
D03*
X235110D02*
D03*
X237079D02*
D03*
X239047D02*
D03*
X241016D02*
D03*
X242984D02*
D03*
X244953D02*
D03*
X246921D02*
D03*
X248890D02*
D03*
X250858D02*
D03*
X252827D02*
D03*
Y191005D02*
D03*
X250858D02*
D03*
X248890D02*
D03*
X246921D02*
D03*
X244953D02*
D03*
X242984D02*
D03*
X241016D02*
D03*
X239047D02*
D03*
X237079D02*
D03*
X235110D02*
D03*
X233142D02*
D03*
X231173D02*
D03*
D34*
X257747Y164432D02*
D03*
Y166400D02*
D03*
Y168369D02*
D03*
Y170337D02*
D03*
Y172306D02*
D03*
Y174274D02*
D03*
Y176243D02*
D03*
Y178211D02*
D03*
Y180180D02*
D03*
Y182149D02*
D03*
Y184117D02*
D03*
Y186085D02*
D03*
X226254D02*
D03*
Y184117D02*
D03*
Y182149D02*
D03*
Y180180D02*
D03*
Y178211D02*
D03*
Y176243D02*
D03*
Y174274D02*
D03*
Y172306D02*
D03*
Y170337D02*
D03*
Y168369D02*
D03*
Y166400D02*
D03*
Y164432D02*
D03*
D35*
X202553Y183004D02*
D03*
Y175996D02*
D03*
X215447D02*
D03*
Y183004D02*
D03*
D36*
X178000Y155000D02*
D03*
D37*
X168945Y180500D02*
D03*
X178000D02*
D03*
X187055D02*
D03*
D38*
X175752Y67500D02*
D03*
X207248D02*
D03*
D39*
X117000Y157000D02*
D03*
X147000D02*
D03*
D40*
X36526Y122759D02*
D03*
Y239500D02*
D03*
Y218500D02*
D03*
Y100259D02*
D03*
D41*
Y115759D02*
D03*
Y232501D02*
D03*
Y211500D02*
D03*
Y93259D02*
D03*
D42*
X299500Y59263D02*
D03*
D43*
X306500D02*
D03*
D44*
X46000Y121228D02*
D03*
Y115165D02*
D03*
Y231906D02*
D03*
Y237969D02*
D03*
Y216968D02*
D03*
Y210906D02*
D03*
X138000Y197937D02*
D03*
Y204000D02*
D03*
X313500Y59469D02*
D03*
Y65531D02*
D03*
X46000Y98728D02*
D03*
Y92665D02*
D03*
D45*
X310905Y71552D02*
D03*
X308937Y71552D02*
D03*
X306968Y71552D02*
D03*
X305000Y71552D02*
D03*
X303032Y71552D02*
D03*
X301063D02*
D03*
X299094Y71552D02*
D03*
Y81000D02*
D03*
X301063Y81000D02*
D03*
X303032Y81000D02*
D03*
X305000Y81000D02*
D03*
X306968Y81000D02*
D03*
X308937Y81000D02*
D03*
X310905Y81000D02*
D03*
D46*
X297469Y76276D02*
D03*
X312547D02*
D03*
D88*
X75681Y179201D02*
D03*
Y150855D02*
D03*
D89*
X52059Y191603D02*
D03*
Y138453D02*
D03*
D90*
X72524Y86516D02*
D03*
X82366D02*
D03*
X90240D02*
D03*
X100083D02*
D03*
X102051Y92422D02*
D03*
X94177D02*
D03*
X86303D02*
D03*
X78429D02*
D03*
X70555D02*
D03*
X332469Y147520D02*
D03*
Y157362D02*
D03*
Y165236D02*
D03*
Y175079D02*
D03*
X326563Y177047D02*
D03*
Y169173D02*
D03*
Y161299D02*
D03*
Y153425D02*
D03*
Y145551D02*
D03*
D91*
X61106Y88485D02*
D03*
X111500D02*
D03*
D92*
Y62500D02*
D03*
X61106D02*
D03*
D93*
X330500Y136102D02*
D03*
Y186496D02*
D03*
D94*
X356485D02*
D03*
Y136102D02*
D03*
D95*
X44752Y261484D02*
D03*
Y68571D02*
D03*
X273098D02*
D03*
Y261484D02*
D03*
M02*
