G04*
G04 #@! TF.GenerationSoftware,Altium Limited,Altium Designer,22.0.2 (36)*
G04*
G04 Layer_Color=8388736*
%FSLAX25Y25*%
%MOIN*%
G70*
G04*
G04 #@! TF.SameCoordinates,A6D4CE7A-EFCD-4D6A-9A72-3AB9F5591AE9*
G04*
G04*
G04 #@! TF.FilePolarity,Positive*
G04*
G01*
G75*
%ADD13C,0.01575*%
%ADD14C,0.00591*%
%ADD16C,0.01000*%
%ADD97C,0.00236*%
G36*
X66618Y41241D02*
Y74311D01*
X105201D01*
Y41241D01*
X103626D01*
Y72737D01*
X68193D01*
Y41241D01*
X66618D01*
D01*
D02*
G37*
G36*
X377744Y141614D02*
X344673D01*
Y180197D01*
X377744D01*
Y178622D01*
X346248D01*
Y143189D01*
X377744D01*
Y141614D01*
D01*
D02*
G37*
D13*
X216798Y240198D02*
G03*
X216798Y240198I-787J0D01*
G01*
D14*
X137650Y236466D02*
G03*
X137650Y236466I-295J0D01*
G01*
X245685D02*
G03*
X245685Y236466I-295J0D01*
G01*
X131744Y94882D02*
G03*
X131744Y94882I-295J0D01*
G01*
X239842D02*
G03*
X239842Y94882I-295J0D01*
G01*
D16*
X351500Y54398D02*
G03*
X365673Y68571I0J14173D01*
G01*
Y261500D02*
G03*
X351500Y275673I-14173J0D01*
G01*
X30579Y68571D02*
G03*
X44752Y54398I14173J0D01*
G01*
Y275658D02*
G03*
X30579Y261484I0J-14173D01*
G01*
X44752Y275658D02*
X351500D01*
X365673Y68571D02*
Y261500D01*
X44752Y54398D02*
X351500D01*
X30579Y68571D02*
Y261484D01*
D97*
X313984Y70371D02*
G03*
X313984Y70371I-118J0D01*
G01*
M02*
