G04*
G04 #@! TF.GenerationSoftware,Altium Limited,Altium Designer,22.0.2 (36)*
G04*
G04 Layer_Color=32768*
%FSLAX25Y25*%
%MOIN*%
G70*
G04*
G04 #@! TF.SameCoordinates,A6D4CE7A-EFCD-4D6A-9A72-3AB9F5591AE9*
G04*
G04*
G04 #@! TF.FilePolarity,Positive*
G04*
G01*
G75*
%ADD16C,0.01000*%
%ADD98C,0.00591*%
%ADD99C,0.00394*%
%ADD100C,0.00197*%
%ADD101C,0.00984*%
%ADD102C,0.00300*%
%ADD103C,0.00200*%
G36*
X221209Y264212D02*
X219240D01*
Y274054D01*
X221209D01*
Y264212D01*
D02*
G37*
G36*
X158373D02*
X156404D01*
Y274054D01*
X158373D01*
Y264212D01*
D02*
G37*
G36*
X246138Y235285D02*
Y235285D01*
Y235285D01*
D01*
D02*
G37*
G36*
X138102D02*
Y235285D01*
Y235285D01*
D01*
D02*
G37*
G36*
X246608Y235381D02*
X246610Y235285D01*
X246608Y235189D01*
X246470Y235054D01*
X246278D01*
X246140Y235189D01*
X246138Y235285D01*
X246140Y235381D01*
X246278Y235516D01*
X246470D01*
X246608Y235381D01*
D02*
G37*
G36*
X138573D02*
X138575Y235285D01*
X138573Y235189D01*
X138435Y235054D01*
X138242D01*
X138104Y235189D01*
X138102Y235285D01*
X138104Y235381D01*
X138242Y235516D01*
X138435D01*
X138573Y235381D01*
D02*
G37*
G36*
X245882Y234104D02*
X244898D01*
Y235285D01*
X245882D01*
Y234104D01*
D02*
G37*
G36*
X243913D02*
X242929D01*
Y235285D01*
X243913D01*
Y234104D01*
D02*
G37*
G36*
X241945D02*
X240961D01*
Y235285D01*
X241945D01*
Y234104D01*
D02*
G37*
G36*
X239976D02*
X238992D01*
Y235285D01*
X239976D01*
Y234104D01*
D02*
G37*
G36*
X137847D02*
X136862D01*
Y235285D01*
X137847D01*
Y234104D01*
D02*
G37*
G36*
X135878D02*
X134894D01*
Y235285D01*
X135878D01*
Y234104D01*
D02*
G37*
G36*
X133909D02*
X132925D01*
Y235285D01*
X133909D01*
Y234104D01*
D02*
G37*
G36*
X131941D02*
X130957D01*
Y235285D01*
X131941D01*
Y234104D01*
D02*
G37*
G36*
X199908Y233702D02*
X197389D01*
Y246300D01*
X199908D01*
Y233702D01*
D02*
G37*
G36*
X190067D02*
X187547D01*
Y246300D01*
X190067D01*
Y233702D01*
D02*
G37*
G36*
X180224D02*
X177704D01*
Y246300D01*
X180224D01*
Y233702D01*
D02*
G37*
G36*
X209752Y233701D02*
X207232D01*
Y246299D01*
X209752D01*
Y233701D01*
D02*
G37*
G36*
X170381D02*
X167862D01*
Y246299D01*
X170381D01*
Y233701D01*
D02*
G37*
G36*
X223354Y233937D02*
X223492Y233799D01*
X223492Y233701D01*
X223492Y233603D01*
X223354Y233465D01*
X223158Y233465D01*
X223019Y233603D01*
X223019Y233701D01*
X223020Y233799D01*
X223158Y233937D01*
X223354Y233937D01*
D02*
G37*
G36*
X245685Y232765D02*
Y229576D01*
X239189D01*
Y233120D01*
X245331D01*
X245685Y232765D01*
D02*
G37*
G36*
X137650D02*
Y229576D01*
X131154D01*
Y233120D01*
X137295D01*
X137650Y232765D01*
D02*
G37*
G36*
X245882Y227411D02*
X244898D01*
Y228592D01*
X245882D01*
Y227411D01*
D02*
G37*
G36*
X243913D02*
X242929D01*
Y228592D01*
X243913D01*
Y227411D01*
D02*
G37*
G36*
X241945D02*
X240961D01*
Y228592D01*
X241945D01*
Y227411D01*
D02*
G37*
G36*
X239976D02*
X238992D01*
Y228592D01*
X239976D01*
Y227411D01*
D02*
G37*
G36*
X137847D02*
X136862D01*
Y228592D01*
X137847D01*
Y227411D01*
D02*
G37*
G36*
X135878D02*
X134894D01*
Y228592D01*
X135878D01*
Y227411D01*
D02*
G37*
G36*
X133909D02*
X132925D01*
Y228592D01*
X133909D01*
Y227411D01*
D02*
G37*
G36*
X131941D02*
X130957D01*
Y228592D01*
X131941D01*
Y227411D01*
D02*
G37*
G36*
X54421Y190816D02*
X49697D01*
Y192390D01*
X54421D01*
Y190816D01*
D02*
G37*
G36*
X358453Y185906D02*
X354516D01*
Y187087D01*
X358453D01*
Y185906D01*
D02*
G37*
G36*
X334043D02*
X326956D01*
Y187087D01*
X334043D01*
Y185906D01*
D02*
G37*
G36*
X212717Y181681D02*
X212087D01*
Y181933D01*
X211961D01*
Y182059D01*
X211835D01*
Y182311D01*
X211709D01*
Y182437D01*
X211583D01*
Y182689D01*
X211457D01*
Y182815D01*
X211331D01*
Y181681D01*
X210827D01*
Y183697D01*
X211331D01*
Y183571D01*
X211457D01*
Y183445D01*
X211583D01*
Y183193D01*
X211709D01*
Y183067D01*
X211835D01*
Y182815D01*
X211961D01*
Y182563D01*
X212087D01*
Y182437D01*
X212213D01*
Y183697D01*
X212717D01*
Y181681D01*
D02*
G37*
G36*
X205535Y183571D02*
X205787D01*
Y183445D01*
X205913D01*
Y183319D01*
X206039D01*
Y182941D01*
X206165D01*
Y182437D01*
X206039D01*
Y182185D01*
X205913D01*
Y181933D01*
X205661D01*
Y181807D01*
X205409D01*
Y181681D01*
X204276D01*
Y183571D01*
X204150D01*
Y183319D01*
X204024D01*
Y182941D01*
X203898D01*
Y182563D01*
X203772D01*
Y182185D01*
X203646D01*
Y181807D01*
X203520D01*
Y181681D01*
X203016D01*
Y181933D01*
X202890D01*
Y182311D01*
X202764D01*
Y182563D01*
X202638D01*
Y182941D01*
X202512D01*
Y183319D01*
X202386D01*
Y183697D01*
X202764D01*
Y183571D01*
X202890D01*
Y183193D01*
X203016D01*
Y182815D01*
X203142D01*
Y182437D01*
X203394D01*
Y182815D01*
X203520D01*
Y183067D01*
X203646D01*
Y183445D01*
X203772D01*
Y183697D01*
X205535D01*
Y183571D01*
D02*
G37*
G36*
X215488Y181681D02*
X214228D01*
Y181807D01*
X213976D01*
Y181933D01*
X213850D01*
Y182059D01*
X213724D01*
Y182437D01*
X213598D01*
Y182941D01*
X213724D01*
Y183193D01*
X213850D01*
Y183445D01*
X214102D01*
Y183571D01*
X214354D01*
Y183697D01*
X215488D01*
Y181681D01*
D02*
G37*
G36*
X213472D02*
X212968D01*
Y183697D01*
X213472D01*
Y181681D01*
D02*
G37*
G36*
X207551Y183571D02*
X207803D01*
Y183445D01*
X207929D01*
Y183319D01*
X208055D01*
Y182941D01*
X208181D01*
Y182437D01*
X208055D01*
Y182185D01*
X207929D01*
Y181933D01*
X207677D01*
Y181807D01*
X207425D01*
Y181681D01*
X206291D01*
Y183697D01*
X207551D01*
Y183571D01*
D02*
G37*
G36*
X327153Y176338D02*
X325972D01*
Y177756D01*
X327153D01*
Y176338D01*
D02*
G37*
G36*
X77201Y182870D02*
X78099Y182352D01*
X78832Y181619D01*
X79350Y180721D01*
X79619Y179719D01*
Y179201D01*
X79619Y178683D01*
X79350Y177681D01*
X78832Y176783D01*
X78099Y176050D01*
X77201Y175532D01*
X76199Y175263D01*
X75163Y175263D01*
X74161Y175532D01*
X73263Y176050D01*
X72530Y176783D01*
X72012Y177681D01*
X71743Y178682D01*
Y179201D01*
X71743Y179719D01*
X72012Y180721D01*
X72530Y181619D01*
X73263Y182352D01*
X74161Y182870D01*
X75163Y183139D01*
X76199Y183139D01*
X77201Y182870D01*
D02*
G37*
G36*
X333059Y174370D02*
X331878D01*
Y175788D01*
X333059D01*
Y174370D01*
D02*
G37*
G36*
X216244Y172650D02*
X214795D01*
X216244Y174098D01*
Y172650D01*
D02*
G37*
G36*
X327153Y168464D02*
X325972D01*
Y169882D01*
X327153D01*
Y168464D01*
D02*
G37*
G36*
X333059Y164527D02*
X331878D01*
Y165945D01*
X333059D01*
Y164527D01*
D02*
G37*
G36*
X327153Y160590D02*
X325972D01*
Y162008D01*
X327153D01*
Y160590D01*
D02*
G37*
G36*
X333059Y156653D02*
X331878D01*
Y158071D01*
X333059D01*
Y156653D01*
D02*
G37*
G36*
X327153Y152716D02*
X325972D01*
Y154134D01*
X327153D01*
Y152716D01*
D02*
G37*
G36*
X77201Y154524D02*
X78099Y154006D01*
X78832Y153273D01*
X79350Y152375D01*
X79619Y151373D01*
Y150855D01*
X79619Y150337D01*
X79350Y149335D01*
X78832Y148437D01*
X78099Y147704D01*
X77201Y147186D01*
X76199Y146917D01*
X75163Y146917D01*
X74161Y147186D01*
X73263Y147704D01*
X72530Y148437D01*
X72012Y149335D01*
X71743Y150337D01*
Y150855D01*
X71743Y151373D01*
X72012Y152375D01*
X72530Y153273D01*
X73263Y154006D01*
X74161Y154524D01*
X75163Y154792D01*
X76199Y154792D01*
X77201Y154524D01*
D02*
G37*
G36*
X333059Y146811D02*
X331878D01*
Y148229D01*
X333059D01*
Y146811D01*
D02*
G37*
G36*
X327153Y144842D02*
X325972D01*
Y146260D01*
X327153D01*
Y144842D01*
D02*
G37*
G36*
X54421Y137666D02*
X49697D01*
Y139240D01*
X54421D01*
Y137666D01*
D02*
G37*
G36*
X358453Y135512D02*
X354516D01*
Y136693D01*
X358453D01*
Y135512D01*
D02*
G37*
G36*
X334043D02*
X326956D01*
Y136693D01*
X334043D01*
Y135512D01*
D02*
G37*
G36*
X324297Y135748D02*
X324392Y135744D01*
X324523Y135607D01*
X324523Y135417D01*
X324392Y135280D01*
X324297Y135276D01*
X324202Y135280D01*
X324071Y135417D01*
X324071Y135607D01*
X324202Y135744D01*
X324297Y135748D01*
X324297Y135748D01*
D02*
G37*
G36*
X83602Y134623D02*
X83606Y134528D01*
X83606Y134528D01*
X83602Y134433D01*
X83465Y134301D01*
X83275Y134301D01*
X83138Y134433D01*
X83134Y134528D01*
X83134Y134528D01*
X83138Y134623D01*
X83275Y134754D01*
X83465Y134754D01*
X83602Y134623D01*
D02*
G37*
G36*
X245945Y102756D02*
X244961D01*
Y103937D01*
X245945D01*
Y102756D01*
D02*
G37*
G36*
X243976D02*
X242992D01*
Y103937D01*
X243976D01*
Y102756D01*
D02*
G37*
G36*
X242008D02*
X241024D01*
Y103937D01*
X242008D01*
Y102756D01*
D02*
G37*
G36*
X240039D02*
X239055D01*
Y103937D01*
X240039D01*
Y102756D01*
D02*
G37*
G36*
X137847D02*
X136862D01*
Y103937D01*
X137847D01*
Y102756D01*
D02*
G37*
G36*
X135878D02*
X134894D01*
Y103937D01*
X135878D01*
Y102756D01*
D02*
G37*
G36*
X133909D02*
X132925D01*
Y103937D01*
X133909D01*
Y102756D01*
D02*
G37*
G36*
X131941D02*
X130957D01*
Y103937D01*
X131941D01*
Y102756D01*
D02*
G37*
G36*
X245748Y98228D02*
X239606D01*
X239252Y98583D01*
Y101772D01*
X245748D01*
Y98228D01*
D02*
G37*
G36*
X137650D02*
X131508D01*
X131154Y98583D01*
Y101772D01*
X137650D01*
Y98228D01*
D02*
G37*
G36*
X245945Y96063D02*
X244961D01*
Y97244D01*
X245945D01*
Y96063D01*
D02*
G37*
G36*
X243976D02*
X242992D01*
Y97244D01*
X243976D01*
Y96063D01*
D02*
G37*
G36*
X242008D02*
X241024D01*
Y97244D01*
X242008D01*
Y96063D01*
D02*
G37*
G36*
X240039D02*
X239055D01*
Y97244D01*
X240039D01*
Y96063D01*
D02*
G37*
G36*
X137847D02*
X136862D01*
Y97244D01*
X137847D01*
Y96063D01*
D02*
G37*
G36*
X135878D02*
X134894D01*
Y97244D01*
X135878D01*
Y96063D01*
D02*
G37*
G36*
X133909D02*
X132925D01*
Y97244D01*
X133909D01*
Y96063D01*
D02*
G37*
G36*
X131941D02*
X130957D01*
Y97244D01*
X131941D01*
Y96063D01*
D02*
G37*
G36*
X238797Y96159D02*
X238799Y96063D01*
D01*
Y96063D01*
Y96063D01*
X238797Y95967D01*
X238659Y95832D01*
X238467D01*
X238329Y95967D01*
X238327Y96063D01*
X238329Y96159D01*
X238467Y96294D01*
X238659D01*
X238797Y96159D01*
D02*
G37*
G36*
X130699D02*
X130701Y96063D01*
D01*
Y96063D01*
Y96063D01*
X130699Y95967D01*
X130561Y95832D01*
X130368D01*
X130231Y95967D01*
X130229Y96063D01*
X130231Y96159D01*
X130368Y96294D01*
X130561D01*
X130699Y96159D01*
D02*
G37*
G36*
X60611Y94914D02*
X60747Y94783D01*
X60751Y94688D01*
X60751Y94688D01*
X60747Y94593D01*
X60610Y94461D01*
X60420Y94461D01*
X60283Y94593D01*
X60279Y94688D01*
X60283Y94783D01*
X60420Y94914D01*
X60611Y94914D01*
D02*
G37*
G36*
X102759Y91831D02*
X101342D01*
Y93013D01*
X102759D01*
Y91831D01*
D02*
G37*
G36*
X94885D02*
X93468D01*
Y93013D01*
X94885D01*
Y91831D01*
D02*
G37*
G36*
X87011D02*
X85594D01*
Y93013D01*
X87011D01*
Y91831D01*
D02*
G37*
G36*
X79137D02*
X77720D01*
Y93013D01*
X79137D01*
Y91831D01*
D02*
G37*
G36*
X71263D02*
X69846D01*
Y93013D01*
X71263D01*
Y91831D01*
D02*
G37*
G36*
X100791Y85925D02*
X99374D01*
Y87107D01*
X100791D01*
Y85925D01*
D02*
G37*
G36*
X90948D02*
X89531D01*
Y87107D01*
X90948D01*
Y85925D01*
D02*
G37*
G36*
X83074D02*
X81657D01*
Y87107D01*
X83074D01*
Y85925D01*
D02*
G37*
G36*
X73232D02*
X71815D01*
Y87107D01*
X73232D01*
Y85925D01*
D02*
G37*
G36*
X112091Y84942D02*
X110909D01*
Y92029D01*
X112091D01*
Y84942D01*
D02*
G37*
G36*
X61697D02*
X60515D01*
Y92029D01*
X61697D01*
Y84942D01*
D02*
G37*
G36*
X112091Y60532D02*
X110909D01*
Y64469D01*
X112091D01*
Y60532D01*
D02*
G37*
G36*
X61697D02*
X60515D01*
Y64469D01*
X61697D01*
Y60532D01*
D02*
G37*
%LPC*%
G36*
X205283Y183445D02*
X204780D01*
Y181933D01*
X205283D01*
Y182059D01*
X205409D01*
Y182185D01*
X205535D01*
Y182311D01*
X205661D01*
Y183067D01*
X205535D01*
Y183193D01*
X205409D01*
Y183319D01*
X205283D01*
Y183445D01*
D02*
G37*
G36*
X214984D02*
X214480D01*
Y183319D01*
X214354D01*
Y183193D01*
X214228D01*
Y183067D01*
X214102D01*
Y182311D01*
X214228D01*
Y182185D01*
X214354D01*
Y182059D01*
X214480D01*
Y181933D01*
X214984D01*
Y183445D01*
D02*
G37*
G36*
X207299D02*
X206795D01*
Y181933D01*
X207299D01*
Y182059D01*
X207425D01*
Y182185D01*
X207551D01*
Y182311D01*
X207677D01*
Y183067D01*
X207551D01*
Y183193D01*
X207425D01*
Y183319D01*
X207299D01*
Y183445D01*
D02*
G37*
%LPD*%
D16*
X351500Y54398D02*
G03*
X365673Y68571I0J14173D01*
G01*
Y261500D02*
G03*
X351500Y275673I-14173J0D01*
G01*
X30579Y68571D02*
G03*
X44752Y54398I14173J0D01*
G01*
Y275658D02*
G03*
X30579Y261484I0J-14173D01*
G01*
X44752Y275658D02*
X351500D01*
X365673Y68571D02*
Y261500D01*
X44752Y54398D02*
X351500D01*
X30579Y68571D02*
Y261484D01*
D98*
X222000Y155259D02*
X262000D01*
X222000Y195259D02*
X262000D01*
X222000Y155259D02*
Y195259D01*
X262000Y155259D02*
Y195259D01*
D99*
X290327Y140500D02*
X322327D01*
X290327Y182500D02*
X322327D01*
Y140500D02*
Y182500D01*
X290327Y140500D02*
Y182500D01*
X164500Y150500D02*
Y185000D01*
X191500Y150500D02*
Y185000D01*
X164500Y150500D02*
X191500D01*
X164500Y185000D02*
X191500D01*
D100*
X307705Y161500D02*
G03*
X307705Y161500I-1378J0D01*
G01*
X135780Y267923D02*
G03*
X135780Y267923I-1378J0D01*
G01*
X243815D02*
G03*
X243815Y267923I-1378J0D01*
G01*
X135780Y62000D02*
G03*
X135780Y62000I-1378J0D01*
G01*
X93878Y164671D02*
G03*
X93878Y164671I-1378J0D01*
G01*
X243815Y62000D02*
G03*
X243815Y62000I-1378J0D01*
G01*
X243378Y175259D02*
G03*
X243378Y175259I-1378J0D01*
G01*
X179378Y167500D02*
G03*
X179378Y167500I-1378J0D01*
G01*
X107878Y164500D02*
G03*
X107878Y164500I-1378J0D01*
G01*
X37930Y119259D02*
G03*
X37930Y119259I-1378J0D01*
G01*
X37929Y236000D02*
G03*
X37929Y236000I-1378J0D01*
G01*
X37904Y215000D02*
G03*
X37904Y215000I-1378J0D01*
G01*
X304378Y59289D02*
G03*
X304378Y59289I-1378J0D01*
G01*
X37930Y96759D02*
G03*
X37930Y96759I-1378J0D01*
G01*
X304358Y161500D02*
X308295D01*
X306327Y159531D02*
Y163469D01*
X132433Y267923D02*
X136370D01*
X134402Y265955D02*
Y269892D01*
X240469Y267923D02*
X244406D01*
X242437Y265955D02*
Y269892D01*
X134402Y60031D02*
Y63968D01*
X132433Y62000D02*
X136370D01*
X92500Y162702D02*
Y166639D01*
X90531Y164671D02*
X94468D01*
X242437Y60031D02*
Y63968D01*
X240469Y62000D02*
X244406D01*
X242000Y173290D02*
Y177227D01*
X240032Y175259D02*
X243969D01*
X178000Y165532D02*
Y169468D01*
X176031Y167500D02*
X179969D01*
X104532Y164500D02*
X108468D01*
X106500Y162531D02*
Y166469D01*
X36552Y117290D02*
Y121227D01*
X34583Y119259D02*
X38520D01*
X34583Y236000D02*
X38520D01*
X36551Y234032D02*
Y237968D01*
X34557Y215000D02*
X38494D01*
X36526Y213031D02*
Y216968D01*
X303000Y57320D02*
Y61257D01*
X301031Y59289D02*
X304969D01*
X34583Y96759D02*
X38520D01*
X36552Y94790D02*
Y98727D01*
D101*
X311405Y69386D02*
G03*
X311405Y69386I-492J0D01*
G01*
D102*
X240000Y131259D02*
Y135259D01*
X238000Y133259D02*
X242000D01*
D103*
X154358Y275237D02*
X223256D01*
X154358Y244528D02*
Y275237D01*
Y244528D02*
X223256D01*
Y275237D01*
X138339Y227411D02*
Y235285D01*
X130465Y227411D02*
X138339D01*
X130465D02*
Y235285D01*
X138339D01*
X238500D02*
X246374D01*
X238500Y227411D02*
Y235285D01*
Y227411D02*
X246374D01*
Y235285D01*
X83168Y141431D02*
X83370Y188528D01*
X82870Y189028D02*
X83370Y188528D01*
X78870Y192028D02*
X82870Y189028D01*
X74870Y194028D02*
X78870Y192028D01*
X70870Y195028D02*
X74870Y194028D01*
X67870Y195528D02*
X70870Y195028D01*
X12037Y195528D02*
X67870D01*
X12037Y134528D02*
Y195528D01*
Y134528D02*
X68370D01*
X72370Y135528D01*
X76370Y136528D01*
X79370Y138028D01*
X82370Y140528D01*
X83168Y141431D01*
X130465Y96063D02*
X138339D01*
Y103937D01*
X130465D02*
X138339D01*
X130465Y96063D02*
Y103937D01*
X60515Y94688D02*
X112090D01*
Y40751D02*
Y94688D01*
X60515Y40751D02*
X112090D01*
X60515D02*
Y94688D01*
X324297Y135511D02*
Y187086D01*
X378234D01*
Y135511D02*
Y187086D01*
X324297Y135511D02*
X378234D01*
X238563Y96063D02*
Y103937D01*
X246437D01*
Y96063D02*
Y103937D01*
X238563Y96063D02*
X246437D01*
M02*
