G04*
G04 #@! TF.GenerationSoftware,Altium Limited,Altium Designer,22.0.2 (36)*
G04*
G04 Layer_Color=8388736*
%FSLAX25Y25*%
%MOIN*%
G70*
G04*
G04 #@! TF.SameCoordinates,A6D4CE7A-EFCD-4D6A-9A72-3AB9F5591AE9*
G04*
G04*
G04 #@! TF.FilePolarity,Negative*
G04*
G01*
G75*
%ADD16C,0.01000*%
%ADD47R,0.20485X0.08674*%
%ADD48R,0.04461X0.04658*%
%ADD49O,0.07887X0.02965*%
%ADD50R,0.06299X0.14173*%
%ADD51R,0.05524X0.16548*%
%ADD52R,0.05524X0.14580*%
%ADD53R,0.01902X0.02788*%
%ADD54R,0.07296X0.04343*%
%ADD55R,0.07887X0.05249*%
%ADD56O,0.07099X0.03162*%
%ADD57R,0.12611X0.16548*%
%ADD58R,0.05249X0.07887*%
%ADD59R,0.07690X0.09461*%
%ADD60O,0.01784X0.06902*%
%ADD61O,0.06902X0.01784*%
%ADD62R,0.06883X0.04725*%
%ADD63R,0.13398X0.08674*%
%ADD64R,0.04147X0.08674*%
%ADD65R,0.08674X0.05131*%
%ADD66R,0.08674X0.08674*%
G04:AMPARAMS|DCode=67|XSize=58mil|YSize=43mil|CornerRadius=0mil|HoleSize=0mil|Usage=FLASHONLY|Rotation=90.000|XOffset=0mil|YOffset=0mil|HoleType=Round|Shape=Octagon|*
%AMOCTAGOND67*
4,1,8,0.01075,0.02900,-0.01075,0.02900,-0.02150,0.01825,-0.02150,-0.01825,-0.01075,-0.02900,0.01075,-0.02900,0.02150,-0.01825,0.02150,0.01825,0.01075,0.02900,0.0*
%
%ADD67OCTAGOND67*%

%ADD68R,0.04300X0.05800*%
G04:AMPARAMS|DCode=69|XSize=58mil|YSize=43mil|CornerRadius=0mil|HoleSize=0mil|Usage=FLASHONLY|Rotation=180.000|XOffset=0mil|YOffset=0mil|HoleType=Round|Shape=Octagon|*
%AMOCTAGOND69*
4,1,8,-0.02900,0.01075,-0.02900,-0.01075,-0.01825,-0.02150,0.01825,-0.02150,0.02900,-0.01075,0.02900,0.01075,0.01825,0.02150,-0.01825,0.02150,-0.02900,0.01075,0.0*
%
%ADD69OCTAGOND69*%

%ADD70R,0.05800X0.04300*%
%ADD71R,0.04658X0.04461*%
%ADD72R,0.01784X0.03359*%
%ADD73R,0.03359X0.01784*%
%ADD74C,0.15354*%
%ADD75O,0.09055X0.05118*%
%ADD76C,0.05918*%
%ADD77O,0.05918X0.11430*%
%ADD78O,0.05918X0.10249*%
%ADD79O,0.11430X0.05918*%
%ADD80O,0.10249X0.05918*%
%ADD81C,0.24422*%
D16*
X351500Y54398D02*
G03*
X365673Y68571I0J14173D01*
G01*
Y261500D02*
G03*
X351500Y275673I-14173J0D01*
G01*
X30579Y68571D02*
G03*
X44752Y54398I14173J0D01*
G01*
Y275658D02*
G03*
X30579Y261484I0J-14173D01*
G01*
X44752Y275658D02*
X351500D01*
X365673Y68571D02*
Y261500D01*
X44752Y54398D02*
X351500D01*
X30579Y68571D02*
Y261484D01*
D47*
X221299Y133259D02*
D03*
X258701D02*
D03*
D48*
X243032Y146259D02*
D03*
X249095D02*
D03*
X239405Y219500D02*
D03*
X245468D02*
D03*
X137500D02*
D03*
X131437D02*
D03*
X116500Y176500D02*
D03*
X122563D02*
D03*
X131370Y111500D02*
D03*
X137433D02*
D03*
X94500Y190500D02*
D03*
X100563D02*
D03*
X205500Y191000D02*
D03*
X211563D02*
D03*
X307000Y65500D02*
D03*
X300937D02*
D03*
X303000Y87000D02*
D03*
X309063D02*
D03*
X302437Y187000D02*
D03*
X308500D02*
D03*
X281937Y164000D02*
D03*
X288000D02*
D03*
X245563Y111500D02*
D03*
X239500D02*
D03*
X236968Y146259D02*
D03*
X230906D02*
D03*
X201185Y80000D02*
D03*
X207248D02*
D03*
X150563Y197968D02*
D03*
X144500D02*
D03*
X207248Y86000D02*
D03*
X201185D02*
D03*
X243032Y151759D02*
D03*
X236968D02*
D03*
X151000Y176469D02*
D03*
X144937D02*
D03*
D49*
X317154Y144000D02*
D03*
Y149000D02*
D03*
Y154000D02*
D03*
Y159000D02*
D03*
Y164000D02*
D03*
Y169000D02*
D03*
Y174000D02*
D03*
Y179000D02*
D03*
X295500Y144000D02*
D03*
Y149000D02*
D03*
Y154000D02*
D03*
Y159000D02*
D03*
Y164000D02*
D03*
Y169000D02*
D03*
Y174000D02*
D03*
Y179000D02*
D03*
D50*
X169122Y240000D02*
D03*
X157389Y269133D02*
D03*
X220225D02*
D03*
X178964Y240001D02*
D03*
X188807D02*
D03*
X198649D02*
D03*
X208492Y240000D02*
D03*
D51*
X121803Y267946D02*
D03*
X147000D02*
D03*
X229839D02*
D03*
X255035D02*
D03*
X147000Y61978D02*
D03*
X121803Y61976D02*
D03*
X229839Y61978D02*
D03*
X255035D02*
D03*
D52*
X138339Y245308D02*
D03*
X130465D02*
D03*
X246374D02*
D03*
X238500D02*
D03*
X138339Y84616D02*
D03*
X130465D02*
D03*
X246374D02*
D03*
X238500D02*
D03*
D53*
X137355Y235000D02*
D03*
X135386D02*
D03*
X133418D02*
D03*
X131449D02*
D03*
Y227696D02*
D03*
X133418D02*
D03*
X135386D02*
D03*
X137355D02*
D03*
X245390D02*
D03*
X243421D02*
D03*
X241453D02*
D03*
X239484D02*
D03*
Y235000D02*
D03*
X241453D02*
D03*
X243421D02*
D03*
X245390D02*
D03*
X131449Y103652D02*
D03*
X133418D02*
D03*
X135386D02*
D03*
X137355D02*
D03*
Y96348D02*
D03*
X135386D02*
D03*
X133418D02*
D03*
X131449D02*
D03*
X239547D02*
D03*
X241516D02*
D03*
X243484D02*
D03*
X245453D02*
D03*
Y103652D02*
D03*
X243484D02*
D03*
X241516D02*
D03*
X239547D02*
D03*
D54*
X134402Y231348D02*
D03*
X242437D02*
D03*
X134402Y100000D02*
D03*
X242500D02*
D03*
D55*
X145500Y223134D02*
D03*
Y234866D02*
D03*
X253500D02*
D03*
Y223134D02*
D03*
X123500Y96134D02*
D03*
Y107866D02*
D03*
X161500Y201366D02*
D03*
Y189634D02*
D03*
X231500Y107866D02*
D03*
Y96134D02*
D03*
X169000Y189634D02*
D03*
Y201366D02*
D03*
X181000Y144866D02*
D03*
Y133134D02*
D03*
X188500Y144866D02*
D03*
Y133134D02*
D03*
D56*
X109500Y198000D02*
D03*
X109500Y193000D02*
D03*
Y188000D02*
D03*
X109500Y183000D02*
D03*
X129972Y198000D02*
D03*
X129972Y193000D02*
D03*
Y188000D02*
D03*
X129972Y183000D02*
D03*
D57*
X119736Y190500D02*
D03*
D58*
X100169Y184500D02*
D03*
X88437D02*
D03*
X150606Y182468D02*
D03*
X138874D02*
D03*
X150606Y189969D02*
D03*
X138874D02*
D03*
D59*
X92500Y173726D02*
D03*
Y155615D02*
D03*
X106500Y155445D02*
D03*
Y173555D02*
D03*
D60*
X231173Y159512D02*
D03*
X233142D02*
D03*
X235110D02*
D03*
X237079D02*
D03*
X239047D02*
D03*
X241016D02*
D03*
X242984D02*
D03*
X244953D02*
D03*
X246921D02*
D03*
X248890D02*
D03*
X250858D02*
D03*
X252827D02*
D03*
Y191005D02*
D03*
X250858D02*
D03*
X248890D02*
D03*
X246921D02*
D03*
X244953D02*
D03*
X242984D02*
D03*
X241016D02*
D03*
X239047D02*
D03*
X237079D02*
D03*
X235110D02*
D03*
X233142D02*
D03*
X231173D02*
D03*
D61*
X257747Y164432D02*
D03*
Y166400D02*
D03*
Y168369D02*
D03*
Y170337D02*
D03*
Y172306D02*
D03*
Y174274D02*
D03*
Y176243D02*
D03*
Y178211D02*
D03*
Y180180D02*
D03*
Y182149D02*
D03*
Y184117D02*
D03*
Y186085D02*
D03*
X226254D02*
D03*
Y184117D02*
D03*
Y182149D02*
D03*
Y180180D02*
D03*
Y178211D02*
D03*
Y176243D02*
D03*
Y174274D02*
D03*
Y172306D02*
D03*
Y170337D02*
D03*
Y168369D02*
D03*
Y166400D02*
D03*
Y164432D02*
D03*
D62*
X202553Y183004D02*
D03*
Y175996D02*
D03*
X215447D02*
D03*
Y183004D02*
D03*
D63*
X178000Y155000D02*
D03*
D64*
X168945Y180500D02*
D03*
X178000D02*
D03*
X187055D02*
D03*
D65*
X175752Y67500D02*
D03*
X207248D02*
D03*
D66*
X117000Y157000D02*
D03*
X147000D02*
D03*
D67*
X36526Y122759D02*
D03*
Y239500D02*
D03*
Y218500D02*
D03*
Y100259D02*
D03*
D68*
Y115759D02*
D03*
Y232501D02*
D03*
Y211500D02*
D03*
Y93259D02*
D03*
D69*
X299500Y59263D02*
D03*
D70*
X306500D02*
D03*
D71*
X46000Y121228D02*
D03*
Y115165D02*
D03*
Y231906D02*
D03*
Y237969D02*
D03*
Y216968D02*
D03*
Y210906D02*
D03*
X138000Y197937D02*
D03*
Y204000D02*
D03*
X313500Y59469D02*
D03*
Y65531D02*
D03*
X46000Y98728D02*
D03*
Y92665D02*
D03*
D72*
X310905Y71552D02*
D03*
X308937Y71552D02*
D03*
X306968Y71552D02*
D03*
X305000Y71552D02*
D03*
X303032Y71552D02*
D03*
X301063D02*
D03*
X299094Y71552D02*
D03*
Y81000D02*
D03*
X301063Y81000D02*
D03*
X303032Y81000D02*
D03*
X305000Y81000D02*
D03*
X306968Y81000D02*
D03*
X308937Y81000D02*
D03*
X310905Y81000D02*
D03*
D73*
X297469Y76276D02*
D03*
X312547D02*
D03*
D74*
X75681Y179201D02*
D03*
Y150855D02*
D03*
D75*
X52059Y191603D02*
D03*
Y138453D02*
D03*
D76*
X72524Y86516D02*
D03*
X82366D02*
D03*
X90240D02*
D03*
X100083D02*
D03*
X102051Y92422D02*
D03*
X94177D02*
D03*
X86303D02*
D03*
X78429D02*
D03*
X70555D02*
D03*
X332469Y147520D02*
D03*
Y157362D02*
D03*
Y165236D02*
D03*
Y175079D02*
D03*
X326563Y177047D02*
D03*
Y169173D02*
D03*
Y161299D02*
D03*
Y153425D02*
D03*
Y145551D02*
D03*
D77*
X61106Y88485D02*
D03*
X111500D02*
D03*
D78*
Y62500D02*
D03*
X61106D02*
D03*
D79*
X330500Y136102D02*
D03*
Y186496D02*
D03*
D80*
X356485D02*
D03*
Y136102D02*
D03*
D81*
X44752Y261484D02*
D03*
Y68571D02*
D03*
X273098D02*
D03*
Y261484D02*
D03*
M02*
