%FSTAX25Y25*%
%MOIN*%
%SFA1B1*%

%IPPOS*%
%ADD9500C,0.012000*%
%ADD9501C,0.027600*%
%ADD9502C,0.114200*%
%ADD9503C,0.106300*%
G54D9500*
X007Y006D03*
X008D03*
X009D03*
X01D03*
X0105Y007D03*
X0115D03*
X012Y008D03*
X0125Y009D03*
X01235Y009613D03*
X011Y01D03*
Y012D03*
X0115Y013D03*
X0125D03*
X0135D03*
X0145D03*
X0142Y01255D03*
X014Y014D03*
X015D03*
X0155Y015D03*
X013Y014D03*
X012D03*
X011D03*
X01D03*
X009D03*
X008D03*
X007D03*
X0075Y013D03*
X0085D03*
X0095D03*
X0105D03*
X0095Y011D03*
X0085D03*
X0075D03*
X0065D03*
X0055D03*
X0045D03*
X005Y012D03*
X006D03*
X004D03*
X0045Y013D03*
X004Y014D03*
X0045Y015D03*
X0055D03*
X0085D03*
Y007D03*
X0095D03*
X0075D03*
X0065D03*
X007Y008D03*
X006D03*
X0055Y009D03*
X004Y01D03*
X013145Y011158D03*
X0145Y009D03*
X0155D03*
X015Y008D03*
X0155Y007D03*
X0135D03*
X014Y006D03*
X013D03*
X016D03*
X017D03*
X018D03*
X019D03*
X02D03*
X021D03*
X022D03*
X0225Y007D03*
X0235D03*
X0245D03*
X025Y006D03*
X026D03*
Y008D03*
X0265Y009D03*
X0275D03*
X028Y01D03*
X027D03*
X026D03*
X025D03*
X0255Y011D03*
X0265D03*
X0264Y01215D03*
X0267D03*
X027D03*
X027238Y012388D03*
X0275Y01265D03*
Y013025D03*
Y0134D03*
Y013775D03*
Y01415D03*
X027262Y014388D03*
X027024Y014626D03*
X026722D03*
X02642D03*
X026118D03*
X025816D03*
X025514D03*
X025212D03*
X024909D03*
X023091D03*
X022788D03*
X022486D03*
X022184D03*
X021882D03*
X02158D03*
X021278D03*
X020976D03*
X020738Y014388D03*
X0205Y01415D03*
Y013775D03*
Y0134D03*
Y013025D03*
Y01265D03*
X020762Y012388D03*
X021Y01215D03*
X0213D03*
X0216D03*
X0219D03*
X0222D03*
X0225D03*
X0228D03*
X0231D03*
X0234D03*
X0237D03*
X024D03*
X0243D03*
X0246D03*
X0249D03*
X0252D03*
X0255D03*
X0258D03*
X0261D03*
X023942Y011158D03*
X02315Y009613D03*
X0225Y009D03*
X0215D03*
X022Y008D03*
X023D03*
X0215Y007D03*
X0195D03*
X0185D03*
X019Y008D03*
X018D03*
X017D03*
X016D03*
X0165Y009D03*
X0175D03*
X0185D03*
X0195D03*
X0201Y01045D03*
X02005Y0113D03*
Y012D03*
X019D03*
X018D03*
X017D03*
X01705Y01255D03*
X0175Y013D03*
X018Y014D03*
X019D03*
X01885Y0145D03*
X0165Y015D03*
X016Y012D03*
X0165Y007D03*
X024Y006D03*
X0255Y009D03*
X030303Y008697D03*
X030906Y0087D03*
X0307Y00655D03*
X030094D03*
X02995Y005926D03*
X0295Y011D03*
X0305D03*
X031Y012D03*
X03D03*
X0305Y013D03*
X0295D03*
X03Y014D03*
X031D03*
X0305Y015D03*
X02275Y015344D03*
X0223D03*
X032Y014D03*
X0325Y013D03*
X0335D03*
X0345D03*
X0355D03*
X036Y012D03*
X035D03*
X034D03*
X033D03*
X032D03*
X0325Y011D03*
X0335D03*
X0345D03*
X0355D03*
X036Y01D03*
X035D03*
X034D03*
X033D03*
X032D03*
X0315Y011D03*
Y013D03*
X034Y014D03*
X035D03*
X0355Y015D03*
X0345D03*
Y009D03*
X0355D03*
X036Y008D03*
X035D03*
X034D03*
X033D03*
X0335Y009D03*
Y007D03*
X0345D03*
X0355D03*
X036Y006D03*
X035D03*
X034D03*
X033D03*
X0315Y007D03*
Y009D03*
X0335Y017D03*
X0345D03*
X0355D03*
X036Y018D03*
X035D03*
X0345Y019D03*
X035Y02D03*
X036D03*
X0355Y021D03*
X0345D03*
X0335D03*
X0325D03*
X0315D03*
X032Y022D03*
X033D03*
X034D03*
X035D03*
X036D03*
X0355Y023D03*
X0345D03*
X0335D03*
X0325D03*
X0315D03*
X032Y024D03*
X033D03*
X034D03*
X035D03*
X036D03*
X0355Y025D03*
X0345D03*
X0335D03*
X0325D03*
X0315D03*
X032Y026D03*
X033D03*
X034D03*
X035D03*
X036D03*
X0355Y027D03*
X0345D03*
X0335D03*
X0325D03*
X0315D03*
X032Y02D03*
X033D03*
X034D03*
X033Y018D03*
X035Y016D03*
X036D03*
X0305Y017D03*
X031Y018D03*
X03085Y0187D03*
X031Y02D03*
X0305Y021D03*
X0295D03*
X0285D03*
X0275D03*
X0265D03*
X0255D03*
X0245D03*
X024545Y021952D03*
X026Y022D03*
X027D03*
X028D03*
X029D03*
X03D03*
X031D03*
X0305Y023D03*
X0295D03*
X0285D03*
X0275D03*
X0265D03*
X0255D03*
X02535Y023487D03*
X026Y024D03*
X027D03*
X028D03*
X029D03*
X03D03*
X031D03*
X0305Y025D03*
X0295D03*
X0285D03*
X029Y026D03*
X03D03*
X031D03*
X0305Y027D03*
X0295D03*
X0285D03*
X0265Y025D03*
X0255D03*
X025Y026D03*
X024D03*
X0245Y027D03*
X0235D03*
X0225D03*
X0215D03*
X0205D03*
X0195D03*
X0185D03*
X0175D03*
X0165D03*
X017Y026D03*
X018D03*
X019D03*
X02D03*
X021D03*
X022D03*
X0225Y025D03*
X023Y024D03*
X0235Y023D03*
X0225D03*
X0205D03*
Y025D03*
X0195D03*
X0185D03*
X0175D03*
X0165D03*
X016Y026D03*
Y024D03*
X0165Y023D03*
X0175D03*
X0178Y01955D03*
X016899Y018962D03*
X01665Y01895D03*
X016Y018D03*
X0165Y017D03*
X016Y016D03*
X019D03*
X02D03*
X0205Y017D03*
X0195D03*
X0185D03*
X021Y018D03*
X02185Y016443D03*
X02275Y01595D03*
X023303Y017231D03*
X023117Y01845D03*
X024Y018D03*
X0245Y017D03*
X02509Y01665D03*
X026Y016D03*
X0275Y017D03*
Y019D03*
X0285D03*
X0295D03*
X03Y018D03*
X0265Y019D03*
X025095Y018455D03*
X02305Y0208D03*
Y0211D03*
X02025D03*
Y0208D03*
X02055Y02D03*
X019D03*
X0145Y019D03*
X01225Y01905D03*
X011974D03*
X011697D03*
Y01869D03*
X011974D03*
X01225D03*
Y01833D03*
X011974D03*
X011697D03*
Y01941D03*
X011974D03*
X01225D03*
Y01977D03*
X011974D03*
X011697D03*
X01Y02D03*
X009D03*
X0085Y021D03*
Y019D03*
X0065D03*
X007Y02D03*
X006D03*
X005D03*
X004D03*
X0045Y019D03*
X005Y018D03*
X006D03*
X0055Y017D03*
X0045D03*
X005Y016D03*
X004D03*
Y018D03*
Y022D03*
X005D03*
X006D03*
X007D03*
X0075Y023D03*
X0065D03*
X0055D03*
Y025D03*
X0065D03*
X0075D03*
X0085D03*
X0095D03*
X0105D03*
X0115D03*
X0125D03*
X013Y026D03*
X014D03*
X0145Y025D03*
X0155D03*
X015Y024D03*
X01455Y023487D03*
X0145Y023D03*
X0155D03*
X01375Y02195D03*
X012Y022D03*
X011D03*
X01D03*
X0105Y023D03*
X0115D03*
X0125D03*
X012Y024D03*
X011D03*
X01D03*
X009D03*
X008D03*
Y026D03*
X009D03*
X01D03*
X011D03*
X0115Y027D03*
X0105D03*
X0095D03*
X0085D03*
X0075D03*
X0065D03*
X007Y026D03*
X006D03*
X004Y024D03*
X0055Y021D03*
X0065D03*
X0095Y023D03*
X01Y016D03*
X008D03*
X007D03*
X0155Y017D03*
X0135Y027D03*
G54D9501*
X007252Y008652D03*
X007056Y009242D03*
X007843D03*
X00863D03*
X009418D03*
X010205D03*
X010008Y008652D03*
X009024D03*
X008237D03*
X032656Y014555D03*
Y015343D03*
X033247Y014752D03*
Y015736D03*
Y016524D03*
Y017508D03*
X032656Y017705D03*
Y016917D03*
Y01613D03*
G54D9502*
X007568Y015086D03*
Y01792D03*
G54D9503*
X004475Y006857D03*
X02731D03*
Y026148D03*
X004475D03*
M02*