G04*
G04 #@! TF.GenerationSoftware,Altium Limited,Altium Designer,22.0.2 (36)*
G04*
G04 Layer_Physical_Order=2*
G04 Layer_Color=16711680*
%FSLAX25Y25*%
%MOIN*%
G70*
G04*
G04 #@! TF.SameCoordinates,A6D4CE7A-EFCD-4D6A-9A72-3AB9F5591AE9*
G04*
G04*
G04 #@! TF.FilePolarity,Positive*
G04*
G01*
G75*
%ADD16C,0.01000*%
%ADD21R,0.03661X0.03858*%
%ADD44R,0.03858X0.03661*%
%ADD82C,0.05000*%
%ADD85C,0.01500*%
%ADD87C,0.03000*%
%ADD88C,0.14961*%
%ADD89O,0.08661X0.04724*%
%ADD90C,0.05118*%
%ADD91O,0.05118X0.10630*%
%ADD92O,0.05118X0.09449*%
%ADD93O,0.10630X0.05118*%
%ADD94O,0.09449X0.05118*%
%ADD95C,0.23622*%
%ADD96C,0.02400*%
G36*
X354271Y275431D02*
X356066Y274950D01*
X357782Y274239D01*
X359391Y273310D01*
X360865Y272179D01*
X362179Y270865D01*
X363310Y269391D01*
X364239Y267782D01*
X364950Y266066D01*
X365431Y264271D01*
X365673Y262429D01*
Y261500D01*
Y68571D01*
Y67642D01*
X365431Y65800D01*
X364950Y64005D01*
X364239Y62289D01*
X363310Y60680D01*
X362179Y59206D01*
X360865Y57892D01*
X359391Y56761D01*
X357782Y55832D01*
X356066Y55121D01*
X354271Y54640D01*
X352429Y54398D01*
X326958D01*
X326500Y54500D01*
X326500Y54898D01*
Y88000D01*
X314500Y100000D01*
X300000D01*
Y93000D01*
X314000D01*
X320000Y87000D01*
Y54898D01*
X320000Y54500D01*
X319542Y54398D01*
X294458D01*
X294000Y54500D01*
X294000Y54898D01*
Y74500D01*
X285500Y83000D01*
Y72221D01*
X285000Y72162D01*
X284939Y72418D01*
X284191Y74223D01*
X283170Y75888D01*
X281902Y77374D01*
X280416Y78643D01*
X278750Y79663D01*
X276945Y80411D01*
X275046Y80867D01*
X273098Y81020D01*
X271151Y80867D01*
X269251Y80411D01*
X267446Y79663D01*
X265781Y78643D01*
X264295Y77374D01*
X263027Y75888D01*
X262006Y74223D01*
X261258Y72418D01*
X260802Y70518D01*
X260649Y68571D01*
X260802Y66623D01*
X261258Y64724D01*
X262006Y62919D01*
X263027Y61253D01*
X264295Y59768D01*
X265781Y58499D01*
X267446Y57478D01*
X269251Y56731D01*
X271151Y56275D01*
X273098Y56121D01*
X275046Y56275D01*
X276945Y56731D01*
X278750Y57478D01*
X280416Y58499D01*
X281902Y59768D01*
X283170Y61253D01*
X284191Y62919D01*
X284939Y64724D01*
X285000Y64980D01*
X285500Y64921D01*
Y54898D01*
X285500Y54500D01*
X285042Y54398D01*
X43823D01*
X41981Y54640D01*
X40186Y55121D01*
X38470Y55832D01*
X36861Y56761D01*
X35387Y57892D01*
X34073Y59206D01*
X32942Y60680D01*
X32013Y62289D01*
X31302Y64005D01*
X30821Y65800D01*
X30579Y67642D01*
Y68571D01*
Y261484D01*
Y262413D01*
X30821Y264255D01*
X31302Y266050D01*
X32013Y267766D01*
X32942Y269375D01*
X34073Y270849D01*
X35387Y272163D01*
X36861Y273294D01*
X38470Y274223D01*
X40186Y274934D01*
X41981Y275415D01*
X42730Y275514D01*
X42787Y275228D01*
X43030Y274864D01*
X43394Y274621D01*
X43823Y274536D01*
X103323D01*
X103752Y274621D01*
X104116Y274864D01*
X104359Y275228D01*
X104445Y275658D01*
X351500D01*
Y275673D01*
X352429D01*
X354271Y275431D01*
D02*
G37*
%LPC*%
G36*
X273098Y273934D02*
X271151Y273780D01*
X269251Y273324D01*
X267446Y272577D01*
X265781Y271556D01*
X264295Y270287D01*
X263027Y268802D01*
X262006Y267136D01*
X261258Y265331D01*
X260802Y263432D01*
X260649Y261484D01*
X260802Y259537D01*
X261258Y257637D01*
X262006Y255832D01*
X263027Y254167D01*
X264295Y252681D01*
X265781Y251413D01*
X267446Y250392D01*
X269251Y249644D01*
X271151Y249188D01*
X273098Y249035D01*
X275046Y249188D01*
X276945Y249644D01*
X278750Y250392D01*
X280416Y251413D01*
X281902Y252681D01*
X283170Y254167D01*
X284191Y255832D01*
X284939Y257637D01*
X285395Y259537D01*
X285548Y261484D01*
X285395Y263432D01*
X284939Y265331D01*
X284191Y267136D01*
X283170Y268802D01*
X281902Y270287D01*
X280416Y271556D01*
X278750Y272577D01*
X276945Y273324D01*
X275046Y273780D01*
X273098Y273934D01*
D02*
G37*
G36*
X44752D02*
X42805Y273780D01*
X40905Y273324D01*
X39100Y272577D01*
X37434Y271556D01*
X35949Y270287D01*
X34680Y268802D01*
X33659Y267136D01*
X32912Y265331D01*
X32456Y263432D01*
X32303Y261484D01*
X32456Y259537D01*
X32912Y257637D01*
X33659Y255832D01*
X34680Y254167D01*
X35949Y252681D01*
X37434Y251413D01*
X39100Y250392D01*
X40905Y249644D01*
X42805Y249188D01*
X44752Y249035D01*
X46700Y249188D01*
X48599Y249644D01*
X50404Y250392D01*
X52069Y251413D01*
X53555Y252681D01*
X54824Y254167D01*
X55844Y255832D01*
X56592Y257637D01*
X57048Y259537D01*
X57201Y261484D01*
X57048Y263432D01*
X56592Y265331D01*
X55844Y267136D01*
X54824Y268802D01*
X53555Y270287D01*
X52069Y271556D01*
X50404Y272577D01*
X48599Y273324D01*
X46700Y273780D01*
X44752Y273934D01*
D02*
G37*
G36*
X230500Y212835D02*
X229798Y212696D01*
X229202Y212298D01*
X229085Y212122D01*
X203915D01*
X203798Y212298D01*
X203202Y212696D01*
X202500Y212835D01*
X201798Y212696D01*
X201202Y212298D01*
X200804Y211702D01*
X200665Y211000D01*
X200804Y210298D01*
X201202Y209702D01*
Y209298D01*
X200804Y208702D01*
X200665Y208000D01*
X200804Y207298D01*
X201202Y206702D01*
X201798Y206304D01*
X202500Y206165D01*
X203202Y206304D01*
X203798Y206702D01*
X203915Y206878D01*
X229085D01*
X229202Y206702D01*
X229798Y206304D01*
X230500Y206165D01*
X231202Y206304D01*
X231798Y206702D01*
X232196Y207298D01*
X232335Y208000D01*
X232196Y208702D01*
X231798Y209298D01*
Y209702D01*
X232196Y210298D01*
X232335Y211000D01*
X232196Y211702D01*
X231798Y212298D01*
X231202Y212696D01*
X230500Y212835D01*
D02*
G37*
G36*
X245449Y221661D02*
X245350Y221641D01*
X137500D01*
X136681Y221478D01*
X135986Y221014D01*
X135522Y220319D01*
X135359Y219500D01*
X135522Y218681D01*
X135986Y217986D01*
X136681Y217522D01*
X137500Y217359D01*
X175859D01*
Y195500D01*
X176022Y194681D01*
X176486Y193986D01*
X177181Y193522D01*
X178000Y193359D01*
X178819Y193522D01*
X179514Y193986D01*
X179978Y194681D01*
X180141Y195500D01*
Y217359D01*
X245429D01*
X246249Y217522D01*
X246943Y217986D01*
X246963Y218006D01*
X247427Y218700D01*
X247590Y219520D01*
X247427Y220339D01*
X246963Y221034D01*
X246268Y221498D01*
X245449Y221661D01*
D02*
G37*
G36*
X253431Y187127D02*
X248569D01*
Y186690D01*
X233702D01*
Y186931D01*
X228644D01*
Y186641D01*
X226000D01*
X225181Y186478D01*
X224486Y186014D01*
X216986Y178514D01*
X216522Y177819D01*
X216359Y177000D01*
Y166961D01*
X216069D01*
Y161903D01*
X216297D01*
Y160387D01*
X210051Y154141D01*
X202000D01*
X201181Y153978D01*
X200486Y153514D01*
X194113Y147141D01*
X185000D01*
X184181Y146978D01*
X183486Y146514D01*
X183022Y145819D01*
X182859Y145000D01*
X183022Y144181D01*
X183486Y143486D01*
X184181Y143022D01*
X185000Y142859D01*
X195000D01*
X195819Y143022D01*
X196514Y143486D01*
X202887Y149859D01*
X210938D01*
X211757Y150022D01*
X212452Y150486D01*
X219325Y157359D01*
X224971D01*
Y157069D01*
X230029D01*
Y161931D01*
X224971D01*
Y161641D01*
X221322D01*
X220931Y161903D01*
Y166961D01*
X220641D01*
Y176113D01*
X226887Y182359D01*
X228644D01*
Y182069D01*
X233702D01*
Y182408D01*
X248569D01*
Y182069D01*
X248810D01*
Y168931D01*
X248372D01*
Y164069D01*
X253431D01*
Y164359D01*
X267613D01*
X284859Y147113D01*
Y93500D01*
X285022Y92681D01*
X285486Y91986D01*
X292018Y85454D01*
X292713Y84990D01*
X293532Y84827D01*
X300891D01*
Y77968D01*
X301054Y77149D01*
X301518Y76454D01*
X304859Y73113D01*
Y65500D01*
X305022Y64681D01*
X305486Y63986D01*
X306181Y63522D01*
X307000Y63359D01*
X307819Y63522D01*
X308514Y63986D01*
X308978Y64681D01*
X309141Y65500D01*
Y74000D01*
X308978Y74819D01*
X308514Y75514D01*
X305173Y78855D01*
Y86968D01*
X305010Y87787D01*
X304546Y88482D01*
X303851Y88946D01*
X303032Y89109D01*
X294419D01*
X289141Y94387D01*
Y148000D01*
X288978Y148819D01*
X288514Y149514D01*
X270014Y168014D01*
X269319Y168478D01*
X268500Y168641D01*
X253431D01*
Y168931D01*
X253092D01*
Y182069D01*
X253431D01*
Y187127D01*
D02*
G37*
G36*
X295500Y203127D02*
X295500Y203127D01*
X199000D01*
X198191Y203020D01*
X197437Y202708D01*
X196789Y202211D01*
X196789Y202211D01*
X187205Y192627D01*
X166500D01*
X165691Y192520D01*
X164937Y192208D01*
X164289Y191711D01*
X163792Y191063D01*
X163480Y190309D01*
X163373Y189500D01*
X163480Y188691D01*
X163792Y187937D01*
X164289Y187289D01*
X164937Y186792D01*
X165691Y186480D01*
X166500Y186373D01*
X188500D01*
X188500Y186373D01*
X189309Y186480D01*
X190063Y186792D01*
X190711Y187289D01*
X200295Y196873D01*
X294205D01*
X306289Y184789D01*
X306937Y184292D01*
X307691Y183980D01*
X308500Y183873D01*
X309309Y183980D01*
X310063Y184292D01*
X310711Y184789D01*
X311208Y185437D01*
X311520Y186191D01*
X311627Y187000D01*
X311520Y187809D01*
X311208Y188563D01*
X310711Y189211D01*
X297711Y202211D01*
X297063Y202708D01*
X296309Y203020D01*
X295500Y203127D01*
D02*
G37*
G36*
X326563Y180234D02*
X325738Y180125D01*
X324970Y179807D01*
X324310Y179300D01*
X323803Y178640D01*
X323485Y177872D01*
X323376Y177047D01*
X323485Y176223D01*
X323803Y175454D01*
X324310Y174794D01*
X324970Y174288D01*
X325738Y173969D01*
X326563Y173861D01*
X327387Y173969D01*
X328156Y174288D01*
X328816Y174794D01*
X329322Y175454D01*
X329640Y176223D01*
X329749Y177047D01*
X329640Y177872D01*
X329322Y178640D01*
X328816Y179300D01*
X328156Y179807D01*
X327387Y180125D01*
X326563Y180234D01*
D02*
G37*
G36*
X90866Y237993D02*
X90461Y237940D01*
X90057Y237886D01*
X89303Y237574D01*
X88655Y237077D01*
X73470Y221892D01*
X72973Y221245D01*
X72661Y220490D01*
X72554Y219681D01*
X72554Y219681D01*
Y186692D01*
X71170Y185952D01*
X69940Y184942D01*
X68930Y183712D01*
X68180Y182308D01*
X67718Y180785D01*
X67562Y179201D01*
X67718Y177617D01*
X68173Y176115D01*
X58789Y166731D01*
X58292Y166083D01*
X57980Y165329D01*
X57873Y164520D01*
X57873Y164520D01*
Y130000D01*
X57873Y130000D01*
X57980Y129191D01*
X58292Y128437D01*
X58789Y127789D01*
X70789Y115789D01*
X70789Y115789D01*
X71437Y115292D01*
X72191Y114980D01*
X73000Y114873D01*
X100339D01*
X121289Y93923D01*
X121289Y93923D01*
X121937Y93426D01*
X122691Y93114D01*
X123500Y93007D01*
X231500D01*
X232309Y93114D01*
X233063Y93426D01*
X233711Y93923D01*
X234208Y94570D01*
X234520Y95325D01*
X234627Y96134D01*
X234520Y96943D01*
X234208Y97697D01*
X233711Y98345D01*
X233063Y98842D01*
X232309Y99154D01*
X231500Y99261D01*
X124795D01*
X103845Y120211D01*
X103197Y120708D01*
X102443Y121020D01*
X101634Y121127D01*
X101634Y121127D01*
X74295D01*
X64127Y131295D01*
Y163225D01*
X72595Y171693D01*
X74097Y171238D01*
X75681Y171082D01*
X77265Y171238D01*
X78788Y171700D01*
X80192Y172450D01*
X81422Y173460D01*
X82432Y174690D01*
X83182Y176094D01*
X83644Y177617D01*
X83801Y179201D01*
X83644Y180785D01*
X83182Y182308D01*
X82432Y183712D01*
X81422Y184942D01*
X80192Y185952D01*
X78808Y186692D01*
Y218386D01*
X92161Y231739D01*
X253500D01*
X254309Y231846D01*
X255063Y232158D01*
X255711Y232655D01*
X256208Y233303D01*
X256520Y234057D01*
X256627Y234866D01*
X256520Y235675D01*
X256208Y236430D01*
X255711Y237077D01*
X255063Y237574D01*
X254309Y237886D01*
X253500Y237993D01*
X90866D01*
X90866Y237993D01*
D02*
G37*
G36*
X235462Y174835D02*
X230601D01*
Y169777D01*
X235462D01*
Y174835D01*
D02*
G37*
G36*
X326563Y172360D02*
X325738Y172251D01*
X324970Y171933D01*
X324310Y171426D01*
X323803Y170766D01*
X323485Y169998D01*
X323376Y169173D01*
X323485Y168349D01*
X323803Y167580D01*
X324310Y166920D01*
X324970Y166414D01*
X325738Y166095D01*
X326563Y165987D01*
X327387Y166095D01*
X328156Y166414D01*
X328816Y166920D01*
X329322Y167580D01*
X329640Y168349D01*
X329749Y169173D01*
X329640Y169998D01*
X329322Y170766D01*
X328816Y171426D01*
X328156Y171933D01*
X327387Y172251D01*
X326563Y172360D01*
D02*
G37*
G36*
X332469Y168422D02*
X331644Y168314D01*
X330875Y167996D01*
X330216Y167489D01*
X329709Y166829D01*
X329391Y166061D01*
X329282Y165236D01*
X329391Y164411D01*
X329709Y163643D01*
X330216Y162983D01*
X330875Y162477D01*
X331644Y162159D01*
X332469Y162050D01*
X333293Y162159D01*
X334062Y162477D01*
X334722Y162983D01*
X335228Y163643D01*
X335546Y164411D01*
X335655Y165236D01*
X335546Y166061D01*
X335228Y166829D01*
X334722Y167489D01*
X334062Y167996D01*
X333293Y168314D01*
X332469Y168422D01*
D02*
G37*
G36*
Y160548D02*
X331644Y160440D01*
X330875Y160122D01*
X330216Y159615D01*
X329709Y158955D01*
X329391Y158187D01*
X329282Y157362D01*
X329391Y156537D01*
X329709Y155769D01*
X330216Y155109D01*
X330875Y154603D01*
X331644Y154285D01*
X332469Y154176D01*
X333293Y154285D01*
X334062Y154603D01*
X334722Y155109D01*
X335228Y155769D01*
X335546Y156537D01*
X335655Y157362D01*
X335546Y158187D01*
X335228Y158955D01*
X334722Y159615D01*
X334062Y160122D01*
X333293Y160440D01*
X332469Y160548D01*
D02*
G37*
G36*
X326563Y156612D02*
X325738Y156503D01*
X324970Y156185D01*
X324310Y155678D01*
X323803Y155018D01*
X323485Y154250D01*
X323376Y153425D01*
X323485Y152601D01*
X323803Y151832D01*
X324310Y151172D01*
X324970Y150666D01*
X325738Y150347D01*
X326563Y150239D01*
X327387Y150347D01*
X328156Y150666D01*
X328816Y151172D01*
X329322Y151832D01*
X329640Y152601D01*
X329749Y153425D01*
X329640Y154250D01*
X329322Y155018D01*
X328816Y155678D01*
X328156Y156185D01*
X327387Y156503D01*
X326563Y156612D01*
D02*
G37*
G36*
X332469Y150707D02*
X331644Y150598D01*
X330875Y150280D01*
X330216Y149773D01*
X329709Y149113D01*
X329391Y148345D01*
X329338Y147945D01*
X328816Y147804D01*
X328156Y148311D01*
X327387Y148629D01*
X326563Y148738D01*
X325738Y148629D01*
X324970Y148311D01*
X324310Y147804D01*
X323803Y147144D01*
X323485Y146376D01*
X323376Y145551D01*
X323485Y144727D01*
X323803Y143958D01*
X324310Y143298D01*
X324970Y142792D01*
X325738Y142473D01*
X326563Y142365D01*
X327387Y142473D01*
X328156Y142792D01*
X328816Y143298D01*
X329322Y143958D01*
X329640Y144727D01*
X329693Y145127D01*
X330216Y145267D01*
X330875Y144761D01*
X331644Y144442D01*
X332469Y144334D01*
X333293Y144442D01*
X334062Y144761D01*
X334722Y145267D01*
X335228Y145927D01*
X335546Y146695D01*
X335655Y147520D01*
X335546Y148345D01*
X335228Y149113D01*
X334722Y149773D01*
X334062Y150280D01*
X333293Y150598D01*
X332469Y150707D01*
D02*
G37*
G36*
X170500Y127335D02*
X169798Y127196D01*
X169202Y126798D01*
X169085Y126622D01*
X143415D01*
X143298Y126798D01*
X142702Y127196D01*
X142000Y127335D01*
X141298Y127196D01*
X140702Y126798D01*
X140304Y126202D01*
X140165Y125500D01*
X140304Y124798D01*
X140702Y124202D01*
X141298Y123804D01*
X142000Y123665D01*
X142702Y123804D01*
X143298Y124202D01*
X143415Y124378D01*
X169085D01*
X169202Y124202D01*
X169798Y123804D01*
X170500Y123665D01*
X171202Y123804D01*
X171798Y124202D01*
X172196Y124798D01*
X172335Y125500D01*
X172196Y126202D01*
X171798Y126798D01*
X171202Y127196D01*
X170500Y127335D01*
D02*
G37*
G36*
X270241Y146259D02*
X209759D01*
X205000Y141500D01*
Y126500D01*
X205000D01*
X210000Y121500D01*
X270000D01*
X275000Y126500D01*
Y141500D01*
X270241Y146259D01*
D02*
G37*
G36*
X200500Y121835D02*
X199798Y121696D01*
X199202Y121298D01*
X198804Y120702D01*
X198665Y120000D01*
X198804Y119298D01*
X199202Y118702D01*
X199378Y118585D01*
Y114415D01*
X199202Y114298D01*
X198804Y113702D01*
X198665Y113000D01*
X198799Y112326D01*
X198800Y112239D01*
X198544Y111826D01*
X167765D01*
X167033Y112558D01*
X166587Y112856D01*
X166060Y112961D01*
X132635D01*
X132157Y113280D01*
X131455Y113420D01*
X130752Y113280D01*
X130157Y112882D01*
X129759Y112287D01*
X129619Y111585D01*
X129759Y110882D01*
X130157Y110287D01*
X130752Y109889D01*
X131455Y109749D01*
X132157Y109889D01*
X132635Y110208D01*
X165490D01*
X166221Y109477D01*
X166668Y109178D01*
X167194Y109073D01*
X167195Y109074D01*
X199624D01*
Y105680D01*
X199304Y105202D01*
X199165Y104500D01*
X199304Y103798D01*
X199702Y103202D01*
X200298Y102804D01*
X201000Y102665D01*
X201702Y102804D01*
X202298Y103202D01*
X202696Y103798D01*
X202835Y104500D01*
X202696Y105202D01*
X202376Y105680D01*
Y109074D01*
X219450D01*
X219977Y109178D01*
X220423Y109477D01*
X221155Y110208D01*
X238235D01*
X238713Y109889D01*
X239415Y109749D01*
X240118Y109889D01*
X240713Y110287D01*
X241111Y110882D01*
X241251Y111585D01*
X241111Y112287D01*
X240713Y112882D01*
X240118Y113280D01*
X239415Y113420D01*
X238713Y113280D01*
X238235Y112961D01*
X220585D01*
X220585Y112961D01*
X220058Y112856D01*
X219611Y112558D01*
X218880Y111826D01*
X202456D01*
X202200Y112239D01*
X202201Y112326D01*
X202335Y113000D01*
X202196Y113702D01*
X201798Y114298D01*
X201622Y114415D01*
Y118585D01*
X201798Y118702D01*
X202196Y119298D01*
X202335Y120000D01*
X202196Y120702D01*
X201798Y121298D01*
X201202Y121696D01*
X200500Y121835D01*
D02*
G37*
G36*
X102051Y95608D02*
X101226Y95500D01*
X100458Y95181D01*
X99798Y94675D01*
X99292Y94015D01*
X98973Y93247D01*
X98865Y92422D01*
X98973Y91597D01*
X99292Y90829D01*
X99798Y90169D01*
X100458Y89663D01*
X101226Y89344D01*
X102051Y89236D01*
X102876Y89344D01*
X103644Y89663D01*
X104304Y90169D01*
X104810Y90829D01*
X105129Y91597D01*
X105237Y92422D01*
X105129Y93247D01*
X104810Y94015D01*
X104304Y94675D01*
X103644Y95181D01*
X102876Y95500D01*
X102051Y95608D01*
D02*
G37*
G36*
X94177D02*
X93352Y95500D01*
X92584Y95181D01*
X91924Y94675D01*
X91418Y94015D01*
X91099Y93247D01*
X90991Y92422D01*
X91099Y91597D01*
X91418Y90829D01*
X91924Y90169D01*
X92584Y89663D01*
X93352Y89344D01*
X94177Y89236D01*
X95002Y89344D01*
X95770Y89663D01*
X96430Y90169D01*
X96936Y90829D01*
X97255Y91597D01*
X97363Y92422D01*
X97255Y93247D01*
X96936Y94015D01*
X96430Y94675D01*
X95770Y95181D01*
X95002Y95500D01*
X94177Y95608D01*
D02*
G37*
G36*
X78429D02*
X77604Y95500D01*
X76836Y95181D01*
X76176Y94675D01*
X75670Y94015D01*
X75351Y93247D01*
X75243Y92422D01*
X75351Y91597D01*
X75670Y90829D01*
X76176Y90169D01*
X76836Y89663D01*
X77604Y89344D01*
X78429Y89236D01*
X79254Y89344D01*
X80022Y89663D01*
X80682Y90169D01*
X81188Y90829D01*
X81507Y91597D01*
X81615Y92422D01*
X81507Y93247D01*
X81188Y94015D01*
X80682Y94675D01*
X80022Y95181D01*
X79254Y95500D01*
X78429Y95608D01*
D02*
G37*
G36*
X90240Y89702D02*
X89415Y89594D01*
X88647Y89275D01*
X87987Y88769D01*
X87481Y88109D01*
X87162Y87341D01*
X87054Y86516D01*
X87162Y85691D01*
X87481Y84923D01*
X87987Y84263D01*
X88647Y83757D01*
X89415Y83438D01*
X90240Y83330D01*
X91065Y83438D01*
X91833Y83757D01*
X92493Y84263D01*
X92999Y84923D01*
X93318Y85691D01*
X93426Y86516D01*
X93318Y87341D01*
X92999Y88109D01*
X92493Y88769D01*
X91833Y89275D01*
X91065Y89594D01*
X90240Y89702D01*
D02*
G37*
G36*
X82366D02*
X81541Y89594D01*
X80773Y89275D01*
X80113Y88769D01*
X79607Y88109D01*
X79288Y87341D01*
X79180Y86516D01*
X79288Y85691D01*
X79607Y84923D01*
X80113Y84263D01*
X80773Y83757D01*
X81541Y83438D01*
X82366Y83330D01*
X83191Y83438D01*
X83959Y83757D01*
X84619Y84263D01*
X85125Y84923D01*
X85444Y85691D01*
X85552Y86516D01*
X85444Y87341D01*
X85125Y88109D01*
X84619Y88769D01*
X83959Y89275D01*
X83191Y89594D01*
X82366Y89702D01*
D02*
G37*
G36*
X70555Y95608D02*
X69730Y95500D01*
X68962Y95181D01*
X68302Y94675D01*
X67796Y94015D01*
X67477Y93247D01*
X67369Y92422D01*
X67477Y91597D01*
X67796Y90829D01*
X68302Y90169D01*
X68962Y89663D01*
X69730Y89344D01*
X70130Y89292D01*
X70271Y88769D01*
X69765Y88109D01*
X69446Y87341D01*
X69338Y86516D01*
X69446Y85691D01*
X69765Y84923D01*
X70271Y84263D01*
X70931Y83757D01*
X71699Y83438D01*
X72524Y83330D01*
X73349Y83438D01*
X74117Y83757D01*
X74777Y84263D01*
X75283Y84923D01*
X75602Y85691D01*
X75710Y86516D01*
X75602Y87341D01*
X75283Y88109D01*
X74777Y88769D01*
X74117Y89275D01*
X73349Y89594D01*
X72948Y89646D01*
X72808Y90169D01*
X73314Y90829D01*
X73633Y91597D01*
X73741Y92422D01*
X73633Y93247D01*
X73314Y94015D01*
X72808Y94675D01*
X72148Y95181D01*
X71380Y95500D01*
X70555Y95608D01*
D02*
G37*
G36*
X44752Y81020D02*
X42805Y80867D01*
X40905Y80411D01*
X39100Y79663D01*
X37434Y78643D01*
X35949Y77374D01*
X34680Y75888D01*
X33659Y74223D01*
X32912Y72418D01*
X32456Y70518D01*
X32303Y68571D01*
X32456Y66623D01*
X32912Y64724D01*
X33659Y62919D01*
X34680Y61253D01*
X35949Y59768D01*
X37434Y58499D01*
X39100Y57478D01*
X40905Y56731D01*
X42805Y56275D01*
X44752Y56121D01*
X46700Y56275D01*
X48599Y56731D01*
X50404Y57478D01*
X52069Y58499D01*
X53555Y59768D01*
X54824Y61253D01*
X55844Y62919D01*
X56592Y64724D01*
X57048Y66623D01*
X57201Y68571D01*
X57048Y70518D01*
X56592Y72418D01*
X55844Y74223D01*
X54824Y75888D01*
X53555Y77374D01*
X52069Y78643D01*
X50404Y79663D01*
X48599Y80411D01*
X46700Y80867D01*
X44752Y81020D01*
D02*
G37*
%LPD*%
D16*
X200500Y113000D02*
Y120000D01*
X142000Y125500D02*
X170500D01*
X202500Y211000D02*
X230500D01*
X202500Y208000D02*
X230500D01*
X351500Y54398D02*
G03*
X365673Y68571I0J14173D01*
G01*
Y261500D02*
G03*
X351500Y275673I-14173J0D01*
G01*
X30579Y68571D02*
G03*
X44752Y54398I14173J0D01*
G01*
Y275658D02*
G03*
X30579Y261484I0J-14173D01*
G01*
X44752Y275658D02*
X351500D01*
X365673Y68571D02*
Y261500D01*
X44752Y54398D02*
X351500D01*
X30579Y68571D02*
Y261484D01*
D21*
X233032Y172306D02*
D03*
X226969D02*
D03*
X224563Y164432D02*
D03*
X218500D02*
D03*
X257063Y184598D02*
D03*
X251000D02*
D03*
D44*
X231173Y190563D02*
D03*
Y184500D02*
D03*
X250902Y160437D02*
D03*
Y166500D02*
D03*
X227500Y153437D02*
D03*
Y159500D02*
D03*
D82*
X166500Y189500D02*
X188500D01*
X123500Y96134D02*
X231500D01*
X101634Y118000D02*
X123500Y96134D01*
X145500Y234866D02*
X253500D01*
X90866D02*
X145500D01*
X73000Y118000D02*
X101634D01*
X61000Y130000D02*
Y164520D01*
Y130000D02*
X73000Y118000D01*
X75681Y179200D02*
Y179201D01*
X61000Y164520D02*
X75681Y179200D01*
X75681Y219681D02*
X90866Y234866D01*
X75681Y179201D02*
X75681Y179202D01*
Y219681D01*
X205500Y200000D02*
X295500D01*
X199000D02*
X205500D01*
X295500D02*
X308500Y187000D01*
X188500Y189500D02*
X199000Y200000D01*
D85*
X201000Y110450D02*
X219450D01*
X167194D02*
X201000D01*
Y104500D02*
Y110450D01*
X220585Y111585D02*
X239415D01*
X219450Y110450D02*
X220585Y111585D01*
X131455D02*
X166060D01*
X167194Y110450D01*
D87*
X137500Y219500D02*
X245429D01*
X245449Y219520D01*
X178000Y195500D02*
Y219000D01*
X268500Y166500D02*
X287000Y148000D01*
Y93500D02*
Y148000D01*
X250902Y166500D02*
X268500D01*
X185000Y145000D02*
X195000D01*
X202000Y152000D01*
X210938D01*
X218438Y159500D01*
X293532Y86968D02*
X303032D01*
X287000Y93500D02*
X293532Y86968D01*
X307000Y65500D02*
Y74000D01*
X303032Y77968D02*
X307000Y74000D01*
X303032Y77968D02*
Y86968D01*
X250951Y166549D02*
Y184549D01*
X250902Y166500D02*
X250951Y166549D01*
X231173Y184500D02*
X231222Y184549D01*
X250951D01*
X218500Y177000D02*
X226000Y184500D01*
X231173D01*
X218500Y164432D02*
Y177000D01*
X218438Y159500D02*
Y164071D01*
Y159500D02*
X227500D01*
D88*
X75681Y179201D02*
D03*
Y150855D02*
D03*
D89*
X52059Y191603D02*
D03*
Y138453D02*
D03*
D90*
X72524Y86516D02*
D03*
X82366D02*
D03*
X90240D02*
D03*
X100083D02*
D03*
X102051Y92422D02*
D03*
X94177D02*
D03*
X86303D02*
D03*
X78429D02*
D03*
X70555D02*
D03*
X332469Y147520D02*
D03*
Y157362D02*
D03*
Y165236D02*
D03*
Y175079D02*
D03*
X326563Y177047D02*
D03*
Y169173D02*
D03*
Y161299D02*
D03*
Y153425D02*
D03*
Y145551D02*
D03*
D91*
X61106Y88485D02*
D03*
X111500D02*
D03*
D92*
Y62500D02*
D03*
X61106D02*
D03*
D93*
X330500Y136102D02*
D03*
Y186496D02*
D03*
D94*
X356485D02*
D03*
Y136102D02*
D03*
D95*
X44752Y261484D02*
D03*
Y68571D02*
D03*
X273098D02*
D03*
Y261484D02*
D03*
D96*
X258000Y121500D02*
D03*
X255000D02*
D03*
X252000D02*
D03*
X249000D02*
D03*
X246000D02*
D03*
X243000D02*
D03*
X240000D02*
D03*
X237000D02*
D03*
X234000D02*
D03*
X231000D02*
D03*
X212780Y146259D02*
D03*
X215801D02*
D03*
X218822D02*
D03*
X228000Y121500D02*
D03*
X225000D02*
D03*
X222000D02*
D03*
X219000D02*
D03*
X216000D02*
D03*
X213000D02*
D03*
X210000D02*
D03*
X207621Y123879D02*
D03*
X207379Y143879D02*
D03*
X205900Y134000D02*
D03*
Y141500D02*
D03*
Y130250D02*
D03*
Y126500D02*
D03*
Y137750D02*
D03*
X209759Y146259D02*
D03*
X224864D02*
D03*
X230906D02*
D03*
X227885D02*
D03*
X221843D02*
D03*
X258157D02*
D03*
X252116D02*
D03*
X249095D02*
D03*
X255136D02*
D03*
X270241D02*
D03*
X274100Y137750D02*
D03*
Y126500D02*
D03*
Y130250D02*
D03*
Y141500D02*
D03*
Y134000D02*
D03*
X295000Y130000D02*
D03*
X272621Y143879D02*
D03*
X223000Y153437D02*
D03*
X227500D02*
D03*
X360000Y260000D02*
D03*
Y240000D02*
D03*
Y220000D02*
D03*
Y200000D02*
D03*
Y180000D02*
D03*
Y160000D02*
D03*
Y120000D02*
D03*
Y100000D02*
D03*
Y80000D02*
D03*
Y60000D02*
D03*
X355000Y270000D02*
D03*
X350000Y260000D02*
D03*
X355000Y250000D02*
D03*
X350000Y240000D02*
D03*
X355000Y230000D02*
D03*
X350000Y220000D02*
D03*
X355000Y210000D02*
D03*
X350000Y200000D02*
D03*
Y180000D02*
D03*
X355000Y170000D02*
D03*
X350000Y160000D02*
D03*
X355000Y150000D02*
D03*
X350000Y140000D02*
D03*
X355000Y130000D02*
D03*
X350000Y120000D02*
D03*
X355000Y110000D02*
D03*
X350000Y100000D02*
D03*
X355000Y90000D02*
D03*
X350000Y80000D02*
D03*
X355000Y70000D02*
D03*
X350000Y60000D02*
D03*
X345000Y270000D02*
D03*
X340000Y260000D02*
D03*
X345000Y250000D02*
D03*
X340000Y240000D02*
D03*
X345000Y230000D02*
D03*
X340000Y220000D02*
D03*
X345000Y210000D02*
D03*
X340000Y200000D02*
D03*
X345000Y190000D02*
D03*
Y170000D02*
D03*
Y150000D02*
D03*
X340000Y140000D02*
D03*
X345000Y130000D02*
D03*
X340000Y120000D02*
D03*
X345000Y110000D02*
D03*
X340000Y100000D02*
D03*
X345000Y90000D02*
D03*
X340000Y80000D02*
D03*
X345000Y70000D02*
D03*
X340000Y60000D02*
D03*
X335000Y270000D02*
D03*
X330000Y260000D02*
D03*
X335000Y250000D02*
D03*
X330000Y240000D02*
D03*
X335000Y230000D02*
D03*
X330000Y220000D02*
D03*
X335000Y210000D02*
D03*
X330000Y200000D02*
D03*
Y180000D02*
D03*
X335000Y170000D02*
D03*
Y130000D02*
D03*
X330000Y120000D02*
D03*
X335000Y110000D02*
D03*
X330000Y100000D02*
D03*
X335000Y90000D02*
D03*
X330000Y80000D02*
D03*
X335000Y70000D02*
D03*
X330000Y60000D02*
D03*
X325000Y270000D02*
D03*
X320000Y260000D02*
D03*
X325000Y250000D02*
D03*
X320000Y240000D02*
D03*
X325000Y230000D02*
D03*
X320000Y220000D02*
D03*
X325000Y210000D02*
D03*
X320000Y200000D02*
D03*
Y140000D02*
D03*
X325000Y130000D02*
D03*
X320000Y120000D02*
D03*
X325000Y110000D02*
D03*
X320000Y100000D02*
D03*
X315000Y270000D02*
D03*
X310000Y260000D02*
D03*
X315000Y250000D02*
D03*
X310000Y240000D02*
D03*
X315000Y230000D02*
D03*
X310000Y220000D02*
D03*
X315000Y210000D02*
D03*
X310000Y200000D02*
D03*
Y180000D02*
D03*
Y140000D02*
D03*
X315000Y130000D02*
D03*
X310000Y120000D02*
D03*
X315000Y110000D02*
D03*
Y90000D02*
D03*
Y70000D02*
D03*
X305000Y270000D02*
D03*
X300000Y260000D02*
D03*
X305000Y250000D02*
D03*
X300000Y240000D02*
D03*
X305000Y230000D02*
D03*
X300000Y220000D02*
D03*
X305000Y210000D02*
D03*
X300000Y180000D02*
D03*
X305000Y170000D02*
D03*
Y150000D02*
D03*
X300000Y140000D02*
D03*
X305000Y130000D02*
D03*
X300000Y120000D02*
D03*
X305000Y110000D02*
D03*
X295000Y270000D02*
D03*
X290000Y260000D02*
D03*
X295000Y250000D02*
D03*
X290000Y240000D02*
D03*
X295000Y230000D02*
D03*
X290000Y220000D02*
D03*
X295000Y210000D02*
D03*
Y190000D02*
D03*
Y110000D02*
D03*
X285000Y270000D02*
D03*
Y250000D02*
D03*
X280000Y240000D02*
D03*
X285000Y230000D02*
D03*
X280000Y220000D02*
D03*
X285000Y210000D02*
D03*
Y190000D02*
D03*
X280000Y100000D02*
D03*
X270000Y240000D02*
D03*
X275000Y230000D02*
D03*
X270000Y220000D02*
D03*
X275000Y210000D02*
D03*
Y190000D02*
D03*
Y170000D02*
D03*
X270000Y100000D02*
D03*
X275000Y90000D02*
D03*
X265000Y250000D02*
D03*
X260000Y240000D02*
D03*
X265000Y230000D02*
D03*
X260000Y220000D02*
D03*
X265000Y210000D02*
D03*
Y190000D02*
D03*
X260000Y160000D02*
D03*
X265000Y110000D02*
D03*
X260000Y100000D02*
D03*
X265000Y90000D02*
D03*
X260000Y80000D02*
D03*
Y60000D02*
D03*
X250000Y260000D02*
D03*
X255000Y250000D02*
D03*
Y230000D02*
D03*
Y210000D02*
D03*
Y110000D02*
D03*
X250000Y100000D02*
D03*
X255000Y90000D02*
D03*
X250000Y60000D02*
D03*
X245000Y270000D02*
D03*
X240000Y260000D02*
D03*
X245000Y210000D02*
D03*
X240000Y180000D02*
D03*
X245000Y170000D02*
D03*
Y70000D02*
D03*
X240000Y60000D02*
D03*
X235000Y270000D02*
D03*
X230000Y240000D02*
D03*
X235000Y230000D02*
D03*
X230000Y80000D02*
D03*
X235000Y70000D02*
D03*
X225000Y270000D02*
D03*
X220000Y260000D02*
D03*
X225000Y250000D02*
D03*
Y230000D02*
D03*
Y90000D02*
D03*
X220000Y80000D02*
D03*
X225000Y70000D02*
D03*
X220000Y60000D02*
D03*
X215000Y270000D02*
D03*
X210000Y260000D02*
D03*
Y180000D02*
D03*
X215000Y90000D02*
D03*
Y70000D02*
D03*
X210000Y60000D02*
D03*
X205000Y270000D02*
D03*
X200000Y260000D02*
D03*
X205000Y250000D02*
D03*
Y230000D02*
D03*
Y170000D02*
D03*
X200000Y160000D02*
D03*
Y60000D02*
D03*
X195000Y270000D02*
D03*
X190000Y260000D02*
D03*
X195000Y250000D02*
D03*
X190000Y200000D02*
D03*
X195000Y170000D02*
D03*
X190000Y160000D02*
D03*
Y140000D02*
D03*
Y120000D02*
D03*
X195000Y90000D02*
D03*
X190000Y80000D02*
D03*
X195000Y70000D02*
D03*
X190000Y60000D02*
D03*
X185000Y270000D02*
D03*
X180000Y260000D02*
D03*
X185000Y250000D02*
D03*
Y170000D02*
D03*
X180000Y140000D02*
D03*
Y120000D02*
D03*
X185000Y90000D02*
D03*
X180000Y80000D02*
D03*
X185000Y70000D02*
D03*
X180000Y60000D02*
D03*
X175000Y270000D02*
D03*
X170000Y260000D02*
D03*
X175000Y250000D02*
D03*
Y230000D02*
D03*
Y130000D02*
D03*
X170000Y120000D02*
D03*
X175000Y90000D02*
D03*
X170000Y80000D02*
D03*
Y60000D02*
D03*
X165000Y270000D02*
D03*
X160000Y260000D02*
D03*
X165000Y250000D02*
D03*
X160000Y240000D02*
D03*
X165000Y230000D02*
D03*
X160000Y180000D02*
D03*
X165000Y170000D02*
D03*
X160000Y160000D02*
D03*
X165000Y150000D02*
D03*
X160000Y120000D02*
D03*
X165000Y90000D02*
D03*
X160000Y80000D02*
D03*
X165000Y70000D02*
D03*
X160000Y60000D02*
D03*
X155000Y250000D02*
D03*
X150000Y240000D02*
D03*
X155000Y230000D02*
D03*
Y170000D02*
D03*
Y150000D02*
D03*
X150000Y140000D02*
D03*
X155000Y90000D02*
D03*
X150000Y80000D02*
D03*
X155000Y70000D02*
D03*
X140000Y260000D02*
D03*
X145000Y250000D02*
D03*
Y230000D02*
D03*
Y190000D02*
D03*
X140000Y140000D02*
D03*
X145000Y130000D02*
D03*
Y90000D02*
D03*
X140000Y60000D02*
D03*
X135000Y270000D02*
D03*
X130000Y260000D02*
D03*
Y140000D02*
D03*
X135000Y130000D02*
D03*
Y70000D02*
D03*
X130000Y60000D02*
D03*
X125000Y250000D02*
D03*
X120000Y240000D02*
D03*
X125000Y230000D02*
D03*
X120000Y220000D02*
D03*
Y140000D02*
D03*
X125000Y130000D02*
D03*
Y90000D02*
D03*
X120000Y80000D02*
D03*
X115000Y270000D02*
D03*
X110000Y260000D02*
D03*
X115000Y250000D02*
D03*
X110000Y240000D02*
D03*
X115000Y230000D02*
D03*
X110000Y220000D02*
D03*
Y140000D02*
D03*
X115000Y130000D02*
D03*
X110000Y120000D02*
D03*
Y100000D02*
D03*
X115000Y70000D02*
D03*
X105000Y270000D02*
D03*
X100000Y260000D02*
D03*
X105000Y250000D02*
D03*
X100000Y240000D02*
D03*
X105000Y230000D02*
D03*
X100000Y220000D02*
D03*
Y200000D02*
D03*
Y160000D02*
D03*
Y140000D02*
D03*
X105000Y130000D02*
D03*
Y70000D02*
D03*
X100000Y60000D02*
D03*
X95000Y270000D02*
D03*
X90000Y260000D02*
D03*
X95000Y250000D02*
D03*
X90000Y240000D02*
D03*
X95000Y230000D02*
D03*
X90000Y200000D02*
D03*
Y140000D02*
D03*
X95000Y130000D02*
D03*
Y110000D02*
D03*
Y70000D02*
D03*
X90000Y60000D02*
D03*
X85000Y270000D02*
D03*
X80000Y260000D02*
D03*
X85000Y250000D02*
D03*
X80000Y240000D02*
D03*
X85000Y210000D02*
D03*
Y190000D02*
D03*
X80000Y160000D02*
D03*
X85000Y150000D02*
D03*
X80000Y140000D02*
D03*
X85000Y130000D02*
D03*
Y110000D02*
D03*
Y70000D02*
D03*
X80000Y60000D02*
D03*
X75000Y270000D02*
D03*
X70000Y260000D02*
D03*
X75000Y250000D02*
D03*
Y230000D02*
D03*
X70000Y220000D02*
D03*
Y200000D02*
D03*
Y160000D02*
D03*
Y140000D02*
D03*
X75000Y130000D02*
D03*
Y110000D02*
D03*
X70000Y80000D02*
D03*
X75000Y70000D02*
D03*
X70000Y60000D02*
D03*
X65000Y270000D02*
D03*
X60000Y260000D02*
D03*
X65000Y250000D02*
D03*
Y230000D02*
D03*
X60000Y220000D02*
D03*
X65000Y210000D02*
D03*
X60000Y200000D02*
D03*
X65000Y190000D02*
D03*
X60000Y180000D02*
D03*
Y120000D02*
D03*
X65000Y110000D02*
D03*
X60000Y80000D02*
D03*
X65000Y70000D02*
D03*
X55000Y250000D02*
D03*
Y230000D02*
D03*
X50000Y220000D02*
D03*
X55000Y210000D02*
D03*
X50000Y200000D02*
D03*
Y180000D02*
D03*
X55000Y170000D02*
D03*
X50000Y160000D02*
D03*
X55000Y150000D02*
D03*
X50000Y120000D02*
D03*
X55000Y110000D02*
D03*
Y90000D02*
D03*
X40000Y240000D02*
D03*
Y220000D02*
D03*
Y200000D02*
D03*
X45000Y190000D02*
D03*
X40000Y180000D02*
D03*
X45000Y170000D02*
D03*
X40000Y160000D02*
D03*
X45000Y150000D02*
D03*
X40000Y140000D02*
D03*
X45000Y130000D02*
D03*
X40000Y120000D02*
D03*
X45000Y110000D02*
D03*
X40000Y100000D02*
D03*
X200500Y120000D02*
D03*
Y113000D02*
D03*
X142000Y125500D02*
D03*
X202500Y211000D02*
D03*
Y208000D02*
D03*
X245449Y219520D02*
D03*
X230500Y211000D02*
D03*
Y208000D02*
D03*
X145500Y234866D02*
D03*
X137500Y219500D02*
D03*
X253500Y234866D02*
D03*
X119736Y183300D02*
D03*
X116972D02*
D03*
X122500D02*
D03*
X119736Y186900D02*
D03*
X116972D02*
D03*
X122500D02*
D03*
X119736Y197700D02*
D03*
X122500D02*
D03*
X116972D02*
D03*
X119736Y190500D02*
D03*
X122500D02*
D03*
X116972D02*
D03*
Y194100D02*
D03*
X122500D02*
D03*
X119736D02*
D03*
X123500Y96134D02*
D03*
X231500D02*
D03*
X170500Y125500D02*
D03*
X178000Y195500D02*
D03*
X201000Y104500D02*
D03*
X239415Y111585D02*
D03*
X131455D02*
D03*
X205500Y200000D02*
D03*
X166500Y189500D02*
D03*
X168986Y189620D02*
D03*
X188500Y145000D02*
D03*
X309063Y87000D02*
D03*
X300937Y65500D02*
D03*
X299500Y59263D02*
D03*
X272379Y123879D02*
D03*
X270000Y121500D02*
D03*
X267000D02*
D03*
X264000D02*
D03*
X261000D02*
D03*
X261178Y146259D02*
D03*
X264199D02*
D03*
X267220D02*
D03*
X303032Y86968D02*
D03*
X307000Y65500D02*
D03*
X308500Y187000D02*
D03*
X250902Y166500D02*
D03*
X250951Y184549D02*
D03*
X231173Y184500D02*
D03*
X233032Y172306D02*
D03*
X218500Y164432D02*
D03*
X227500Y159500D02*
D03*
M02*
