G04*
G04 #@! TF.GenerationSoftware,Altium Limited,Altium Designer,22.0.2 (36)*
G04*
G04 Layer_Physical_Order=1*
G04 Layer_Color=255*
%FSLAX25Y25*%
%MOIN*%
G70*
G04*
G04 #@! TF.SameCoordinates,A6D4CE7A-EFCD-4D6A-9A72-3AB9F5591AE9*
G04*
G04*
G04 #@! TF.FilePolarity,Positive*
G04*
G01*
G75*
%ADD16C,0.01000*%
%ADD20R,0.19685X0.07874*%
%ADD21R,0.03661X0.03858*%
%ADD22O,0.07087X0.02165*%
%ADD23R,0.05906X0.13780*%
%ADD24R,0.04724X0.15748*%
%ADD25R,0.04724X0.13780*%
%ADD26R,0.01102X0.01988*%
%ADD27R,0.06496X0.03543*%
%ADD28R,0.07087X0.04449*%
%ADD29O,0.06299X0.02362*%
%ADD30R,0.11811X0.15748*%
%ADD31R,0.04449X0.07087*%
%ADD32R,0.06890X0.08661*%
%ADD33O,0.00984X0.06102*%
%ADD34O,0.06102X0.00984*%
%ADD35R,0.06083X0.03925*%
%ADD36R,0.12598X0.07874*%
%ADD37R,0.03347X0.07874*%
%ADD38R,0.07874X0.04331*%
%ADD39R,0.07874X0.07874*%
G04:AMPARAMS|DCode=40|XSize=50mil|YSize=35mil|CornerRadius=0mil|HoleSize=0mil|Usage=FLASHONLY|Rotation=90.000|XOffset=0mil|YOffset=0mil|HoleType=Round|Shape=Octagon|*
%AMOCTAGOND40*
4,1,8,0.00875,0.02500,-0.00875,0.02500,-0.01750,0.01625,-0.01750,-0.01625,-0.00875,-0.02500,0.00875,-0.02500,0.01750,-0.01625,0.01750,0.01625,0.00875,0.02500,0.0*
%
%ADD40OCTAGOND40*%

%ADD41R,0.03500X0.05000*%
G04:AMPARAMS|DCode=42|XSize=50mil|YSize=35mil|CornerRadius=0mil|HoleSize=0mil|Usage=FLASHONLY|Rotation=180.000|XOffset=0mil|YOffset=0mil|HoleType=Round|Shape=Octagon|*
%AMOCTAGOND42*
4,1,8,-0.02500,0.00875,-0.02500,-0.00875,-0.01625,-0.01750,0.01625,-0.01750,0.02500,-0.00875,0.02500,0.00875,0.01625,0.01750,-0.01625,0.01750,-0.02500,0.00875,0.0*
%
%ADD42OCTAGOND42*%

%ADD43R,0.05000X0.03500*%
%ADD44R,0.03858X0.03661*%
%ADD45R,0.00984X0.02559*%
%ADD46R,0.02559X0.00984*%
%ADD82C,0.05000*%
%ADD83C,0.02200*%
%ADD84C,0.06000*%
%ADD85C,0.01500*%
%ADD86C,0.03600*%
%ADD87C,0.03000*%
%ADD88C,0.14961*%
%ADD89O,0.08661X0.04724*%
%ADD90C,0.05118*%
%ADD91O,0.05118X0.10630*%
%ADD92O,0.05118X0.09449*%
%ADD93O,0.10630X0.05118*%
%ADD94O,0.09449X0.05118*%
%ADD95C,0.23622*%
%ADD96C,0.02400*%
G36*
X354271Y275431D02*
X356066Y274950D01*
X357782Y274239D01*
X359391Y273310D01*
X360865Y272179D01*
X362179Y270865D01*
X363310Y269391D01*
X364239Y267782D01*
X364950Y266066D01*
X365431Y264271D01*
X365673Y262429D01*
Y261500D01*
Y68571D01*
Y67642D01*
X365431Y65800D01*
X364950Y64005D01*
X364239Y62289D01*
X363310Y60680D01*
X362179Y59206D01*
X360865Y57892D01*
X359391Y56761D01*
X357782Y55832D01*
X356066Y55121D01*
X354271Y54640D01*
X352429Y54398D01*
X327003D01*
X326532Y54468D01*
X326532Y54898D01*
Y87968D01*
X314532Y99968D01*
X300032D01*
Y92968D01*
X314032D01*
X320032Y86968D01*
Y54898D01*
X320032Y54468D01*
X319561Y54398D01*
X294458D01*
X294000Y54500D01*
X294000Y54898D01*
Y74124D01*
X294500Y74332D01*
X294949Y73883D01*
X295312Y73640D01*
X295742Y73554D01*
X295742Y73554D01*
X300802D01*
X301903Y72454D01*
Y71560D01*
X301903Y71560D01*
X301940Y71373D01*
Y69673D01*
X304124D01*
Y71404D01*
X304153Y71552D01*
X304146Y71592D01*
Y72918D01*
X304146Y72918D01*
X304124Y73027D01*
Y73432D01*
X304004D01*
X303817Y73711D01*
X303817Y73711D01*
X302059Y75469D01*
X301696Y75712D01*
X301266Y75798D01*
X301266Y75798D01*
X299349D01*
Y76878D01*
X301000D01*
X301000Y76878D01*
X301000Y76878D01*
X309264D01*
X309264Y76878D01*
X309694Y76964D01*
X310057Y77207D01*
X310168Y77317D01*
X310667Y77110D01*
X310667Y76975D01*
Y75184D01*
X314427D01*
Y77368D01*
X311063D01*
X310926Y77368D01*
X310838Y77581D01*
X310719Y77868D01*
X311690Y78840D01*
X311690Y78840D01*
X311878Y79120D01*
X311997D01*
Y79524D01*
X312019Y79633D01*
Y80961D01*
X312027Y81000D01*
X311997Y81148D01*
Y82880D01*
X311997Y82880D01*
X311997D01*
X312238Y83274D01*
X312793Y83828D01*
X312793Y83829D01*
X313036Y84192D01*
X313122Y84622D01*
X313122Y84622D01*
Y89000D01*
X313122Y89000D01*
X313115Y89032D01*
Y89385D01*
X313115Y89385D01*
X313030Y89814D01*
X312787Y90178D01*
X312787Y90178D01*
X312142Y90822D01*
X311778Y91065D01*
X311349Y91151D01*
X311349Y91151D01*
X296435D01*
X291621Y95964D01*
Y142322D01*
X292122Y142589D01*
X292383Y142415D01*
X293039Y142284D01*
X297961D01*
X298617Y142415D01*
X299174Y142787D01*
X299546Y143343D01*
X299676Y144000D01*
X299546Y144657D01*
X299174Y145213D01*
X298617Y145585D01*
X297961Y145716D01*
X293039D01*
X292383Y145585D01*
X292122Y145411D01*
X291621Y145678D01*
Y147322D01*
X292122Y147590D01*
X292383Y147415D01*
X293039Y147284D01*
X297961D01*
X298617Y147415D01*
X299174Y147787D01*
X299546Y148344D01*
X299676Y149000D01*
X299546Y149656D01*
X299174Y150213D01*
X298617Y150585D01*
X297961Y150716D01*
X293039D01*
X292383Y150585D01*
X292012Y150337D01*
X291961Y150324D01*
X291465Y150404D01*
X291382Y150448D01*
X291293Y150581D01*
X266807Y175067D01*
X266443Y175311D01*
X266014Y175396D01*
X266014Y175396D01*
X261654D01*
X261475Y175632D01*
X261350Y175896D01*
X261419Y176243D01*
X261334Y176669D01*
X261189Y176887D01*
X261128Y177227D01*
X261189Y177568D01*
X261334Y177785D01*
X261419Y178211D01*
X261350Y178558D01*
X261475Y178822D01*
X261654Y179058D01*
X277356D01*
X288207Y168207D01*
X288207Y168207D01*
X288571Y167964D01*
X289000Y167878D01*
X289000Y167878D01*
X291765D01*
X291826Y167787D01*
X292383Y167415D01*
X293039Y167284D01*
X297961D01*
X298617Y167415D01*
X299174Y167787D01*
X299546Y168343D01*
X299676Y169000D01*
X299546Y169657D01*
X299174Y170213D01*
X298617Y170585D01*
X297961Y170716D01*
X293039D01*
X292383Y170585D01*
X291826Y170213D01*
X291765Y170122D01*
X289465D01*
X279059Y180527D01*
X279266Y181027D01*
X280387D01*
X288207Y173207D01*
X288207Y173207D01*
X288571Y172964D01*
X289000Y172878D01*
X289000Y172878D01*
X291765D01*
X291826Y172787D01*
X292383Y172415D01*
X293039Y172284D01*
X297961D01*
X298617Y172415D01*
X299174Y172787D01*
X299546Y173344D01*
X299676Y174000D01*
X299546Y174656D01*
X299174Y175213D01*
X298617Y175585D01*
X297961Y175716D01*
X293039D01*
X292383Y175585D01*
X291826Y175213D01*
X291765Y175122D01*
X289465D01*
X281645Y182941D01*
X281281Y183185D01*
X280852Y183270D01*
X280852Y183270D01*
X257747D01*
X257706Y183262D01*
X255187D01*
X254761Y183177D01*
X254400Y182936D01*
X254159Y182575D01*
X254074Y182149D01*
X254159Y181722D01*
X254304Y181505D01*
X254365Y181164D01*
X254304Y180824D01*
X254159Y180606D01*
X254074Y180180D01*
X254159Y179754D01*
X254304Y179536D01*
X254365Y179196D01*
X254304Y178855D01*
X254159Y178638D01*
X254074Y178211D01*
X254159Y177785D01*
X254304Y177568D01*
X254365Y177227D01*
X254304Y176887D01*
X254159Y176669D01*
X254074Y176243D01*
X254159Y175817D01*
X254304Y175599D01*
X254365Y175259D01*
X254304Y174918D01*
X254159Y174701D01*
X254074Y174274D01*
X254159Y173848D01*
X254304Y173631D01*
X254365Y173290D01*
X254304Y172950D01*
X254159Y172732D01*
X254074Y172306D01*
X254159Y171880D01*
X254304Y171662D01*
X254365Y171322D01*
X254304Y170981D01*
X254159Y170764D01*
X254074Y170337D01*
X254159Y169911D01*
X254304Y169694D01*
X254365Y169353D01*
X254304Y169013D01*
X254159Y168795D01*
X254074Y168369D01*
X254159Y167943D01*
X254304Y167725D01*
X254365Y167385D01*
X254304Y167044D01*
X254159Y166827D01*
X254074Y166400D01*
X254159Y165974D01*
X254304Y165757D01*
X254365Y165416D01*
X254304Y165076D01*
X254159Y164858D01*
X254074Y164432D01*
X254159Y164006D01*
X254400Y163645D01*
X254761Y163403D01*
X255187Y163318D01*
X257706D01*
X257747Y163310D01*
X264078D01*
X271573Y155815D01*
X271382Y155353D01*
X253965D01*
X253948Y155369D01*
Y159512D01*
X253940Y159553D01*
Y162071D01*
X253855Y162497D01*
X253614Y162859D01*
X253253Y163100D01*
X252827Y163185D01*
X252401Y163100D01*
X252183Y162955D01*
X251842Y162894D01*
X251502Y162955D01*
X251284Y163100D01*
X250858Y163185D01*
X250432Y163100D01*
X250071Y162859D01*
X249677D01*
X249316Y163100D01*
X248890Y163185D01*
X248543Y163116D01*
X248279Y163241D01*
X248043Y163420D01*
Y163957D01*
X249117Y165031D01*
X249604Y165202D01*
X250199Y164804D01*
X250902Y164665D01*
X251604Y164804D01*
X252199Y165202D01*
X252597Y165798D01*
X252737Y166500D01*
X252597Y167202D01*
X252199Y167798D01*
X251604Y168196D01*
X250902Y168335D01*
X250199Y168196D01*
X249604Y167798D01*
X249486Y167622D01*
X249000D01*
X249000Y167622D01*
X248571Y167536D01*
X248207Y167293D01*
X248207Y167293D01*
X246128Y165214D01*
X245885Y164850D01*
X245800Y164421D01*
X245800Y164421D01*
Y159512D01*
X245808Y159472D01*
Y156953D01*
X245893Y156527D01*
X246134Y156166D01*
X246495Y155924D01*
X246921Y155840D01*
X247268Y155909D01*
X247532Y155784D01*
X247768Y155604D01*
Y153110D01*
X247768Y153110D01*
X247854Y152681D01*
X248097Y152317D01*
X250207Y150207D01*
X250207Y150207D01*
X250571Y149964D01*
X251000Y149878D01*
X251000Y149878D01*
X250983Y149385D01*
X249095D01*
X248285Y149279D01*
X247531Y148967D01*
X246884Y148470D01*
X246387Y147822D01*
X246074Y147068D01*
X245968Y146259D01*
X245462D01*
Y148788D01*
X245462D01*
Y149230D01*
X245462D01*
Y154288D01*
X242187D01*
X242137Y154338D01*
Y155604D01*
X242373Y155784D01*
X242637Y155909D01*
X242984Y155840D01*
X243410Y155924D01*
X243772Y156166D01*
X244013Y156527D01*
X244098Y156953D01*
Y159472D01*
X244106Y159512D01*
Y163016D01*
X244020Y163445D01*
X243777Y163809D01*
X243777Y163809D01*
X241793Y165793D01*
X241429Y166036D01*
X241000Y166122D01*
X241000Y166122D01*
X231632D01*
X231203Y166036D01*
X230839Y165793D01*
X230839Y165793D01*
X230227Y165181D01*
X229600Y165219D01*
X229239Y165461D01*
X228813Y165545D01*
X226294D01*
X226254Y165553D01*
X219915D01*
X219798Y165730D01*
X219202Y166128D01*
X218500Y166267D01*
X217798Y166128D01*
X217202Y165730D01*
X216804Y165134D01*
X216665Y164432D01*
X216804Y163730D01*
X217010Y163422D01*
X216743Y162922D01*
X214300D01*
X214300Y162922D01*
X213871Y162836D01*
X213507Y162593D01*
X213507Y162593D01*
X199707Y148793D01*
X199464Y148429D01*
X199378Y148000D01*
X199378Y148000D01*
Y121415D01*
X199202Y121298D01*
X198804Y120702D01*
X198665Y120000D01*
X198804Y119298D01*
X198922Y119122D01*
X198655Y118622D01*
X160000D01*
X160000Y118622D01*
X159571Y118536D01*
X159207Y118293D01*
X159207Y118293D01*
X150035Y109122D01*
X137000D01*
X136571Y109036D01*
X136207Y108793D01*
X136207Y108793D01*
X134592Y107179D01*
X134349Y106815D01*
X134264Y106386D01*
X134264Y106386D01*
Y105246D01*
X132786D01*
Y108971D01*
X133801D01*
Y112083D01*
X136465Y114746D01*
X149123D01*
X149650Y114851D01*
X150096Y115150D01*
X176988Y142042D01*
X192643D01*
Y147691D01*
X183141D01*
Y150463D01*
X184899D01*
Y159537D01*
X180141D01*
Y175963D01*
X180273D01*
Y185037D01*
X180141D01*
Y195500D01*
X179978Y196319D01*
X179514Y197014D01*
X179122Y197276D01*
Y203500D01*
X179036Y203929D01*
X178793Y204293D01*
X178793Y204293D01*
X173708Y209379D01*
X173915Y209878D01*
X180846D01*
X183518Y207207D01*
X183881Y206964D01*
X184311Y206878D01*
X184311Y206878D01*
X201085D01*
X201202Y206702D01*
X201798Y206304D01*
X202500Y206165D01*
X203202Y206304D01*
X203798Y206702D01*
X204196Y207298D01*
X204335Y208000D01*
X204196Y208702D01*
X203798Y209298D01*
Y209702D01*
X204196Y210298D01*
X204335Y211000D01*
X204196Y211702D01*
X203798Y212298D01*
X203202Y212696D01*
X202500Y212835D01*
X201798Y212696D01*
X201202Y212298D01*
X201085Y212122D01*
X184965D01*
X182293Y214793D01*
X181929Y215036D01*
X181500Y215122D01*
X181500Y215122D01*
X130465D01*
X128536Y217050D01*
Y220950D01*
X129965Y222378D01*
X132500D01*
X132500Y222378D01*
X132929Y222464D01*
X133293Y222707D01*
X134211Y223624D01*
X134211Y223624D01*
X134454Y223988D01*
X134539Y224418D01*
Y226102D01*
X136051D01*
Y222029D01*
X135069D01*
Y216971D01*
X139931D01*
Y222029D01*
X138804D01*
Y227623D01*
X138804Y227623D01*
X138699Y228150D01*
X138506Y228439D01*
Y229290D01*
X130297D01*
Y226221D01*
X128837D01*
X128837Y226222D01*
X128408Y226136D01*
X128044Y225893D01*
X124607Y222456D01*
X124364Y222092D01*
X124278Y221663D01*
X124278Y221663D01*
Y215100D01*
X124278Y215100D01*
X124364Y214671D01*
X124607Y214307D01*
X128292Y210622D01*
X128085Y210121D01*
X102965D01*
X74324Y238762D01*
X73960Y239005D01*
X73531Y239090D01*
X73531Y239090D01*
X48529D01*
Y240400D01*
X43471D01*
Y235538D01*
X48529D01*
Y236847D01*
X73066D01*
X100570Y209343D01*
X100406Y208801D01*
X100305Y208781D01*
X91325Y217762D01*
X90961Y218005D01*
X90531Y218090D01*
X90531Y218090D01*
X48529D01*
Y219399D01*
X43471D01*
Y214538D01*
X48529D01*
Y215847D01*
X90067D01*
X99307Y206607D01*
X99307Y206607D01*
X99671Y206364D01*
X100100Y206278D01*
X100100Y206278D01*
X148135D01*
X149442Y204972D01*
Y200859D01*
X149000Y200676D01*
X148767Y200498D01*
X148132D01*
Y199893D01*
X147855Y199532D01*
X147543Y198778D01*
X147436Y197968D01*
Y189969D01*
Y173999D01*
X125347Y173976D01*
X124994Y174330D01*
Y175378D01*
X127000D01*
X127000Y175378D01*
X127429Y175464D01*
X127793Y175707D01*
X130765Y178679D01*
X131009Y179043D01*
X131094Y179472D01*
X131094Y179472D01*
Y181184D01*
X131941D01*
X132636Y181322D01*
X133225Y181716D01*
X133619Y182305D01*
X133757Y183000D01*
X133619Y183695D01*
X133225Y184284D01*
X132636Y184678D01*
X131941Y184816D01*
X128004D01*
X127309Y184678D01*
X126720Y184284D01*
X126326Y183695D01*
X126188Y183000D01*
X126326Y182305D01*
X126720Y181716D01*
X127309Y181322D01*
X128004Y181184D01*
X128851D01*
Y179937D01*
X126535Y177622D01*
X124994D01*
Y179029D01*
X120137D01*
X119959Y179459D01*
X119500Y179649D01*
X118769D01*
X115933Y182485D01*
X115474Y182675D01*
X113880D01*
Y184269D01*
X113690Y184729D01*
X113459Y184959D01*
X113000Y185149D01*
X112481D01*
X112234Y185649D01*
X112645Y186185D01*
X113007Y187060D01*
X113013Y187106D01*
X113146Y187305D01*
X113285Y188000D01*
X113146Y188695D01*
X113013Y188894D01*
X113007Y188940D01*
X112645Y189815D01*
X112068Y190568D01*
X111316Y191145D01*
X110440Y191507D01*
X109500Y191631D01*
X103991D01*
X103708Y192315D01*
X103130Y193068D01*
X102378Y193645D01*
X101503Y194007D01*
X100563Y194131D01*
X99623Y194007D01*
X98747Y193645D01*
X97996Y193068D01*
X97418Y192315D01*
X97056Y191440D01*
X96932Y190500D01*
Y184178D01*
X91410Y178656D01*
X88455D01*
Y177357D01*
X84839D01*
X83728Y178468D01*
X83801Y179201D01*
X83644Y180785D01*
X83182Y182308D01*
X82432Y183712D01*
X81422Y184942D01*
X80192Y185952D01*
X78788Y186702D01*
X77265Y187164D01*
X75681Y187320D01*
X74097Y187164D01*
X72574Y186702D01*
X71170Y185952D01*
X69940Y184942D01*
X68930Y183712D01*
X68180Y182308D01*
X67718Y180785D01*
X67562Y179201D01*
X67718Y177617D01*
X68180Y176094D01*
X68930Y174690D01*
X69224Y174331D01*
X59707Y164814D01*
X59464Y164450D01*
X59378Y164021D01*
X59378Y164021D01*
Y136192D01*
X46845Y123658D01*
X43471D01*
Y118797D01*
X48529D01*
Y122171D01*
X61293Y134935D01*
X61293Y134935D01*
X61536Y135299D01*
X61622Y135728D01*
X61622Y135728D01*
Y163556D01*
X70810Y172745D01*
X71170Y172450D01*
X72574Y171700D01*
X74097Y171238D01*
X75681Y171082D01*
X77265Y171238D01*
X78788Y171700D01*
X79725Y172200D01*
X80768Y171158D01*
X80768Y171158D01*
X81520Y170581D01*
X82395Y170218D01*
X83335Y170095D01*
X83335Y170095D01*
X88455D01*
Y168795D01*
X96545D01*
Y173521D01*
X100889Y177865D01*
X101351Y177674D01*
Y164000D01*
X101541Y163541D01*
X105165Y159916D01*
X105624Y159726D01*
X109895D01*
Y155455D01*
X110086Y154996D01*
X112463Y152619D01*
Y152463D01*
X112729D01*
X113000Y152351D01*
Y141500D01*
X148000D01*
Y152463D01*
X151537D01*
Y157115D01*
X152774Y158352D01*
X152774Y158352D01*
X153271Y159000D01*
X153583Y159754D01*
X153690Y160563D01*
Y186507D01*
X165846D01*
Y180709D01*
X165818Y180500D01*
X165925Y179691D01*
X166237Y178937D01*
X166498Y178597D01*
Y146458D01*
X141986Y121947D01*
X123500D01*
X122564Y121761D01*
X122535Y121741D01*
X122216Y122130D01*
X124465Y124378D01*
X140585D01*
X140702Y124202D01*
X141298Y123804D01*
X142000Y123665D01*
X142702Y123804D01*
X143298Y124202D01*
X143696Y124798D01*
X143835Y125500D01*
X143696Y126202D01*
X143298Y126798D01*
X142702Y127196D01*
X142000Y127335D01*
X141298Y127196D01*
X140702Y126798D01*
X140585Y126622D01*
X124000D01*
X124000Y126622D01*
X123571Y126536D01*
X123207Y126293D01*
X123207Y126293D01*
X96763Y99849D01*
X48529D01*
Y101158D01*
X43471D01*
Y96297D01*
X48529D01*
Y97606D01*
X97228D01*
X97228Y97606D01*
X97657Y97692D01*
X98021Y97935D01*
X114370Y114284D01*
X114759Y113965D01*
X114739Y113936D01*
X114553Y113000D01*
Y85229D01*
X112540Y83217D01*
X91837D01*
X91738Y83717D01*
X91833Y83757D01*
X92493Y84263D01*
X92999Y84923D01*
X93318Y85691D01*
X93426Y86516D01*
X93318Y87341D01*
X92999Y88109D01*
X92493Y88769D01*
X91833Y89275D01*
X91065Y89594D01*
X90240Y89702D01*
X89415Y89594D01*
X88647Y89275D01*
X87987Y88769D01*
X87481Y88109D01*
X87162Y87341D01*
X87054Y86516D01*
X87162Y85691D01*
X87481Y84923D01*
X87987Y84263D01*
X88647Y83757D01*
X88742Y83717D01*
X88643Y83217D01*
X83963D01*
X83864Y83717D01*
X83959Y83757D01*
X84619Y84263D01*
X85125Y84923D01*
X85444Y85691D01*
X85552Y86516D01*
X85444Y87341D01*
X85125Y88109D01*
X84619Y88769D01*
X83959Y89275D01*
X83191Y89594D01*
X82366Y89702D01*
X81541Y89594D01*
X80773Y89275D01*
X80113Y88769D01*
X79607Y88109D01*
X79288Y87341D01*
X79180Y86516D01*
X79288Y85691D01*
X79607Y84923D01*
X80113Y84263D01*
X80773Y83757D01*
X80868Y83717D01*
X80769Y83217D01*
X79283D01*
X75669Y86832D01*
X75602Y87341D01*
X75283Y88109D01*
X74777Y88769D01*
X74117Y89275D01*
X73349Y89594D01*
X72948Y89646D01*
X72808Y90169D01*
X73314Y90829D01*
X73633Y91597D01*
X73741Y92422D01*
X73633Y93247D01*
X73314Y94015D01*
X72808Y94675D01*
X72148Y95181D01*
X71380Y95500D01*
X70555Y95608D01*
X69730Y95500D01*
X68962Y95181D01*
X68302Y94675D01*
X67796Y94015D01*
X67477Y93247D01*
X67369Y92422D01*
X67477Y91597D01*
X67796Y90829D01*
X68302Y90169D01*
X68962Y89663D01*
X69730Y89344D01*
X70130Y89292D01*
X70271Y88769D01*
X69765Y88109D01*
X69446Y87341D01*
X69338Y86516D01*
X69446Y85691D01*
X69765Y84923D01*
X70271Y84263D01*
X70931Y83757D01*
X71699Y83438D01*
X72208Y83371D01*
X76540Y79040D01*
X77333Y78509D01*
X78270Y78323D01*
X113554D01*
X114490Y78509D01*
X115284Y79040D01*
X118730Y82486D01*
X119261Y83280D01*
X119447Y84216D01*
Y93309D01*
X127643D01*
Y94864D01*
X130297D01*
Y94754D01*
X132296D01*
Y92561D01*
X131841Y92105D01*
X127502D01*
Y77126D01*
X133427D01*
Y90519D01*
X134079Y91172D01*
X134267Y91220D01*
X134537D01*
X134724Y91172D01*
X135376Y90519D01*
Y77126D01*
X141301D01*
Y92105D01*
X136962D01*
X136507Y92561D01*
Y94754D01*
X136537D01*
Y97942D01*
X130297D01*
Y97617D01*
X127643D01*
Y98958D01*
X119447D01*
Y111986D01*
X124514Y117053D01*
X134225D01*
X134416Y116591D01*
X131854Y114029D01*
X128939D01*
Y108971D01*
X130033D01*
Y103691D01*
X130138Y103165D01*
X130297Y102926D01*
Y102058D01*
X138506D01*
Y105246D01*
X138992Y105278D01*
X151400D01*
X151400Y105278D01*
X151829Y105364D01*
X152193Y105607D01*
X160965Y114378D01*
X198655D01*
X198922Y113878D01*
X198804Y113702D01*
X198665Y113000D01*
X198804Y112298D01*
X199202Y111702D01*
X199798Y111304D01*
X200500Y111165D01*
X200708Y111206D01*
X206126Y105787D01*
Y88529D01*
X204817D01*
Y83471D01*
X206126D01*
Y82529D01*
X204817D01*
Y77471D01*
X206126D01*
Y70265D01*
X202711D01*
Y64735D01*
X211785D01*
Y70265D01*
X208370D01*
Y77471D01*
X209679D01*
Y82529D01*
X208370D01*
Y83471D01*
X209679D01*
Y88529D01*
X208370D01*
Y106252D01*
X208370Y106252D01*
X208284Y106681D01*
X208041Y107045D01*
X208041Y107045D01*
X202294Y112792D01*
X202335Y113000D01*
X202196Y113702D01*
X202078Y113878D01*
X202345Y114378D01*
X236714D01*
X237069Y114029D01*
Y108971D01*
X238147D01*
Y103675D01*
X238252Y103149D01*
X238396Y102933D01*
Y102058D01*
X246604D01*
Y103595D01*
X246626Y103703D01*
X246626Y103703D01*
Y104777D01*
X246627Y104778D01*
X269688D01*
X269688Y104778D01*
X270117Y104864D01*
X270481Y105107D01*
X282517Y117142D01*
X282979Y116951D01*
Y86318D01*
X282978Y86318D01*
X283064Y85888D01*
X283307Y85525D01*
X285381Y83451D01*
X285477Y83086D01*
X285500Y82625D01*
X285500Y82625D01*
X285500D01*
Y72221D01*
X285000Y72162D01*
X284939Y72418D01*
X284191Y74223D01*
X283170Y75888D01*
X281902Y77374D01*
X280416Y78643D01*
X278750Y79663D01*
X276945Y80411D01*
X275046Y80867D01*
X273098Y81020D01*
X271151Y80867D01*
X269251Y80411D01*
X267446Y79663D01*
X265781Y78643D01*
X264295Y77374D01*
X263027Y75888D01*
X262006Y74223D01*
X261258Y72418D01*
X260802Y70518D01*
X260649Y68571D01*
X260802Y66623D01*
X261258Y64724D01*
X262006Y62919D01*
X263027Y61253D01*
X264295Y59768D01*
X265781Y58499D01*
X267446Y57478D01*
X269251Y56731D01*
X271151Y56275D01*
X273098Y56121D01*
X275046Y56275D01*
X276945Y56731D01*
X278750Y57478D01*
X280416Y58499D01*
X281902Y59768D01*
X283170Y61253D01*
X284191Y62919D01*
X284939Y64724D01*
X285000Y64980D01*
X285500Y64921D01*
Y54898D01*
X285500Y54500D01*
X285042Y54398D01*
X43823D01*
X41981Y54640D01*
X40186Y55121D01*
X38470Y55832D01*
X36861Y56761D01*
X35387Y57892D01*
X34073Y59206D01*
X32942Y60680D01*
X32013Y62289D01*
X31302Y64005D01*
X30821Y65800D01*
X30579Y67642D01*
Y68571D01*
Y261484D01*
Y262413D01*
X30821Y264255D01*
X31302Y266050D01*
X32013Y267766D01*
X32942Y269375D01*
X34073Y270849D01*
X35387Y272163D01*
X36861Y273294D01*
X38470Y274223D01*
X40186Y274934D01*
X41981Y275415D01*
X42730Y275514D01*
X42787Y275228D01*
X43030Y274864D01*
X43394Y274621D01*
X43823Y274536D01*
X103323D01*
X103752Y274621D01*
X104116Y274864D01*
X104359Y275228D01*
X104445Y275658D01*
X351500D01*
Y275673D01*
X352429D01*
X354271Y275431D01*
D02*
G37*
G36*
X130000Y212878D02*
X180896D01*
X181101Y212615D01*
X180879Y212122D01*
X129989D01*
X129716Y212462D01*
X129940Y212890D01*
X130000Y212878D01*
D02*
G37*
G36*
X176878Y203035D02*
Y197276D01*
X176486Y197014D01*
X176022Y196319D01*
X175859Y195500D01*
Y185037D01*
X175727D01*
Y175963D01*
X175859D01*
Y159537D01*
X171392D01*
Y178588D01*
X171680Y178964D01*
X171993Y179718D01*
X172099Y180528D01*
X172099Y180528D01*
Y186809D01*
X173143D01*
Y192458D01*
X170282D01*
X169809Y192654D01*
X169000Y192761D01*
X169000Y192761D01*
X153690D01*
Y197968D01*
X153583Y198778D01*
X153271Y199532D01*
X152994Y199893D01*
Y200498D01*
X152359D01*
X152126Y200676D01*
X151684Y200859D01*
Y205437D01*
X151685Y205437D01*
X151599Y205866D01*
X151356Y206230D01*
X151356Y206230D01*
X150170Y207417D01*
X150361Y207878D01*
X172035D01*
X176878Y203035D01*
D02*
G37*
G36*
X113231Y184269D02*
Y182026D01*
X115474D01*
X118500Y179000D01*
X119500D01*
Y153000D01*
X113000D01*
X110545Y155455D01*
Y160376D01*
X105624D01*
X102000Y164000D01*
Y178976D01*
X103130Y180107D01*
X103130Y180107D01*
X103708Y180859D01*
X104070Y181735D01*
X104194Y182674D01*
Y184369D01*
X109500D01*
X110440Y184493D01*
X110458Y184500D01*
X113000D01*
X113231Y184269D01*
D02*
G37*
G36*
X225805Y160267D02*
X225800Y160178D01*
X225665Y159500D01*
X225804Y158798D01*
X226202Y158202D01*
X226798Y157804D01*
X227500Y157665D01*
X228202Y157804D01*
X228798Y158202D01*
X228915Y158378D01*
X230060D01*
Y156953D01*
X230145Y156527D01*
X230386Y156166D01*
X230747Y155924D01*
X231173Y155840D01*
X231599Y155924D01*
X231817Y156070D01*
X232157Y156131D01*
X232498Y156070D01*
X232716Y155924D01*
X233142Y155840D01*
X233568Y155924D01*
X233786Y156070D01*
X234126Y156131D01*
X234466Y156070D01*
X234684Y155924D01*
X235110Y155840D01*
X235536Y155924D01*
X235754Y156070D01*
X236094Y156131D01*
X236435Y156070D01*
X236653Y155924D01*
X237079Y155840D01*
X237426Y155909D01*
X237690Y155784D01*
X237926Y155604D01*
Y154400D01*
X237813Y154288D01*
X234538D01*
Y149230D01*
X234538D01*
X234538Y148788D01*
X234538D01*
Y146259D01*
X234032D01*
X233926Y147068D01*
X233613Y147822D01*
X233116Y148470D01*
X232469Y148967D01*
X231715Y149279D01*
X230906Y149385D01*
X209759D01*
X209759Y149385D01*
X208949Y149279D01*
X208195Y148967D01*
X207548Y148470D01*
X207548Y148470D01*
X203689Y144611D01*
X203192Y143963D01*
X202880Y143209D01*
X202773Y142400D01*
X202773Y142400D01*
Y125600D01*
X202773Y125600D01*
X202880Y124791D01*
X203192Y124037D01*
X203689Y123389D01*
X207789Y119289D01*
X208008Y119122D01*
X207838Y118622D01*
X202345D01*
X202078Y119122D01*
X202196Y119298D01*
X202335Y120000D01*
X202196Y120702D01*
X201798Y121298D01*
X201622Y121415D01*
Y147535D01*
X214765Y160678D01*
X225548D01*
X225805Y160267D01*
D02*
G37*
G36*
X178859Y147691D02*
X176857D01*
Y145124D01*
X176458Y144835D01*
X175932Y144730D01*
X175485Y144431D01*
X148553Y117499D01*
X145167D01*
X144960Y117999D01*
X170675Y143715D01*
X171206Y144508D01*
X171392Y145445D01*
Y150463D01*
X178859D01*
Y147691D01*
D02*
G37*
G36*
X273856Y113917D02*
X268561Y108622D01*
X245500D01*
X245500Y108622D01*
X245071Y108536D01*
X244707Y108293D01*
X244707Y108293D01*
X242742Y106328D01*
X242499Y105964D01*
X242414Y105535D01*
X242051Y105246D01*
X240900D01*
Y108971D01*
X241931D01*
Y114029D01*
X242286Y114378D01*
X273664D01*
X273856Y113917D01*
D02*
G37*
G36*
X310878Y85086D02*
X310405Y84613D01*
X310069D01*
X310069Y84613D01*
X309640Y84527D01*
X309276Y84284D01*
X308152Y83160D01*
X307964Y82880D01*
X305876D01*
Y82880D01*
X304153D01*
Y84471D01*
X305431D01*
Y88908D01*
X310878D01*
Y85086D01*
D02*
G37*
G36*
X297972Y84178D02*
Y81000D01*
X298002Y80852D01*
Y79791D01*
X297502Y79584D01*
X288422Y88665D01*
Y93076D01*
X288883Y93267D01*
X297972Y84178D01*
D02*
G37*
%LPC*%
G36*
X213400Y255722D02*
X213400Y255721D01*
X194100D01*
X194100Y255722D01*
X193671Y255636D01*
X193307Y255393D01*
X188014Y250100D01*
X187771Y249736D01*
X187685Y249307D01*
X187685Y249307D01*
Y247491D01*
X185254D01*
Y232511D01*
X192359D01*
Y247491D01*
X189928D01*
Y248842D01*
X194565Y253479D01*
X201239D01*
X201430Y253016D01*
X197856Y249442D01*
X197613Y249078D01*
X197527Y248649D01*
X197527Y248649D01*
Y247491D01*
X195096D01*
Y232511D01*
X202202D01*
Y247491D01*
X199770D01*
Y248184D01*
X203465Y251878D01*
X212035D01*
X215378Y248535D01*
Y216000D01*
X215378Y216000D01*
X215464Y215571D01*
X215707Y215207D01*
X225132Y205782D01*
Y187199D01*
X223694D01*
X223622Y187185D01*
X223122Y187572D01*
Y204500D01*
X223036Y204929D01*
X222793Y205293D01*
X222793Y205293D01*
X198293Y229793D01*
X197929Y230036D01*
X197500Y230122D01*
X197500Y230121D01*
X181965D01*
X180122Y231965D01*
Y232511D01*
X182517D01*
Y247491D01*
X175411D01*
Y232511D01*
X177878D01*
Y231500D01*
X177878Y231500D01*
X177964Y231071D01*
X178207Y230707D01*
X180707Y228207D01*
X180707Y228207D01*
X181071Y227964D01*
X181500Y227878D01*
X196896D01*
X197101Y227615D01*
X196879Y227121D01*
X175965D01*
X171038Y232048D01*
X171229Y232510D01*
X172675D01*
Y247490D01*
X165569D01*
Y232510D01*
X167533D01*
X168000Y232378D01*
X168086Y231949D01*
X168329Y231585D01*
X174707Y225207D01*
X174707Y225207D01*
X175071Y224964D01*
X175500Y224879D01*
X197035D01*
X218467Y203447D01*
Y185566D01*
X211806D01*
Y180441D01*
X218467D01*
Y176978D01*
X218467Y176978D01*
X218552Y176549D01*
X218795Y176185D01*
X221491Y173489D01*
X221491Y173489D01*
X221854Y173246D01*
X222284Y173161D01*
X222284Y173161D01*
X222351D01*
X222573Y172858D01*
X222652Y172661D01*
X222581Y172306D01*
X222650Y171959D01*
X222525Y171695D01*
X222346Y171459D01*
X209755D01*
X206194Y175020D01*
Y178559D01*
X198912D01*
Y173433D01*
X204608D01*
X208497Y169544D01*
X208497Y169544D01*
X208861Y169301D01*
X209291Y169216D01*
X214423D01*
X214630Y168716D01*
X196207Y150293D01*
X195964Y149929D01*
X195878Y149500D01*
X195878Y149500D01*
Y134775D01*
X187725Y126622D01*
X171915D01*
X171798Y126798D01*
X171202Y127196D01*
X170500Y127335D01*
X169798Y127196D01*
X169202Y126798D01*
X168804Y126202D01*
X168665Y125500D01*
X168804Y124798D01*
X169202Y124202D01*
X169798Y123804D01*
X170500Y123665D01*
X171202Y123804D01*
X171798Y124202D01*
X171915Y124378D01*
X188189D01*
X188189Y124378D01*
X188619Y124464D01*
X188982Y124707D01*
X197793Y133517D01*
X197793Y133518D01*
X198036Y133881D01*
X198122Y134310D01*
Y149035D01*
X216334Y167247D01*
X226254D01*
X226294Y167255D01*
X228813D01*
X229239Y167340D01*
X229600Y167581D01*
X229841Y167943D01*
X229926Y168369D01*
X229841Y168795D01*
X229696Y169013D01*
X229635Y169353D01*
X229696Y169694D01*
X229841Y169911D01*
X229926Y170337D01*
X229857Y170684D01*
X229982Y170948D01*
X230161Y171184D01*
X231616D01*
X231734Y171008D01*
X232329Y170610D01*
X233032Y170471D01*
X233734Y170610D01*
X234329Y171008D01*
X234727Y171604D01*
X234867Y172306D01*
X234727Y173008D01*
X234329Y173604D01*
X233734Y174002D01*
X233032Y174141D01*
X232329Y174002D01*
X231734Y173604D01*
X231616Y173427D01*
X230161D01*
X229982Y173663D01*
X229857Y173927D01*
X229926Y174274D01*
X229841Y174701D01*
X229696Y174918D01*
X229635Y175259D01*
X229696Y175599D01*
X229841Y175817D01*
X229926Y176243D01*
X229841Y176669D01*
X229696Y176887D01*
X229635Y177227D01*
X229696Y177568D01*
X229841Y177785D01*
X229926Y178211D01*
X229841Y178638D01*
X229696Y178855D01*
X229635Y179196D01*
X229696Y179536D01*
X229841Y179754D01*
X229926Y180180D01*
X229841Y180606D01*
X229696Y180824D01*
X229635Y181164D01*
X229696Y181505D01*
X229841Y181722D01*
X229926Y182149D01*
X229841Y182575D01*
X229782Y182663D01*
X230142Y183024D01*
X230471Y182804D01*
X231173Y182665D01*
X231876Y182804D01*
X232471Y183202D01*
X232869Y183798D01*
X233009Y184500D01*
X232869Y185202D01*
X232471Y185798D01*
X232295Y185915D01*
Y191005D01*
X232287Y191045D01*
Y193564D01*
X232202Y193990D01*
X231961Y194352D01*
X231599Y194593D01*
X231173Y194678D01*
X230747Y194593D01*
X230386Y194352D01*
X230145Y193990D01*
X230060Y193564D01*
Y191045D01*
X230052Y191005D01*
Y187097D01*
X229777Y186961D01*
X229552Y186905D01*
X229239Y187114D01*
X228813Y187199D01*
X227375D01*
Y205385D01*
X227837Y205577D01*
X233989Y199425D01*
Y191005D01*
X233997Y190965D01*
Y188446D01*
X234082Y188020D01*
X234323Y187659D01*
X234684Y187417D01*
X235110Y187333D01*
X235536Y187417D01*
X235898Y187659D01*
X236291D01*
X236653Y187417D01*
X237079Y187333D01*
X237505Y187417D01*
X237723Y187563D01*
X238063Y187624D01*
X238403Y187563D01*
X238621Y187417D01*
X239047Y187333D01*
X239473Y187417D01*
X239691Y187563D01*
X240032Y187624D01*
X240372Y187563D01*
X240590Y187417D01*
X241016Y187333D01*
X241442Y187417D01*
X241660Y187563D01*
X242000Y187624D01*
X242340Y187563D01*
X242558Y187417D01*
X242984Y187333D01*
X243410Y187417D01*
X243628Y187563D01*
X243969Y187624D01*
X244309Y187563D01*
X244527Y187417D01*
X244953Y187333D01*
X245379Y187417D01*
X245597Y187563D01*
X245937Y187624D01*
X246277Y187563D01*
X246495Y187417D01*
X246921Y187333D01*
X247347Y187417D01*
X247565Y187563D01*
X247905Y187624D01*
X248246Y187563D01*
X248464Y187417D01*
X248890Y187333D01*
X249316Y187417D01*
X249534Y187563D01*
X249874Y187624D01*
X250214Y187563D01*
X250432Y187417D01*
X250858Y187333D01*
X251284Y187417D01*
X251646Y187659D01*
X252039D01*
X252207Y187547D01*
X252226Y186984D01*
X252224Y186980D01*
X252073Y186879D01*
X251475Y186280D01*
X250951Y186384D01*
X250249Y186245D01*
X249653Y185847D01*
X249255Y185251D01*
X249115Y184549D01*
X249255Y183847D01*
X249653Y183252D01*
X250249Y182854D01*
X250951Y182714D01*
X251653Y182854D01*
X252249Y183252D01*
X252646Y183847D01*
X252754Y184387D01*
X253330Y184964D01*
X257747D01*
X257787Y184972D01*
X260306D01*
X260732Y185057D01*
X261093Y185298D01*
X261334Y185659D01*
X261419Y186085D01*
X261334Y186512D01*
X261093Y186873D01*
X260732Y187114D01*
X260306Y187199D01*
X257787D01*
X257747Y187207D01*
X253838D01*
X253702Y187482D01*
X253646Y187707D01*
X253855Y188020D01*
X253940Y188446D01*
Y193564D01*
X253855Y193990D01*
X253614Y194352D01*
X253253Y194593D01*
X252827Y194678D01*
X252401Y194593D01*
X252039Y194352D01*
X251646D01*
X251284Y194593D01*
X250858Y194678D01*
X250432Y194593D01*
X250214Y194448D01*
X249874Y194387D01*
X249534Y194448D01*
X249316Y194593D01*
X248890Y194678D01*
X248464Y194593D01*
X248246Y194448D01*
X247905Y194387D01*
X247565Y194448D01*
X247347Y194593D01*
X246921Y194678D01*
X246574Y194609D01*
X246310Y194734D01*
X246074Y194913D01*
Y205573D01*
X245989Y206002D01*
X245746Y206366D01*
X245746Y206366D01*
X237222Y214890D01*
Y221635D01*
X237365Y221778D01*
X239900D01*
X239900Y221778D01*
X240329Y221864D01*
X240693Y222107D01*
X242195Y223609D01*
X242438Y223973D01*
X242523Y224402D01*
X242523Y224402D01*
Y226102D01*
X244053D01*
Y222029D01*
X243038D01*
Y216971D01*
X247899D01*
Y222029D01*
X246806D01*
Y227657D01*
X246701Y228184D01*
X246541Y228422D01*
Y229290D01*
X238333D01*
Y226102D01*
X238333Y226102D01*
X238333D01*
X238285Y225622D01*
X235500D01*
X235071Y225536D01*
X234707Y225293D01*
X234707Y225293D01*
X233707Y224293D01*
X233464Y223929D01*
X233378Y223500D01*
X233379Y223500D01*
Y213763D01*
X233378Y213763D01*
X233464Y213334D01*
X233707Y212970D01*
X234093Y212583D01*
X233902Y212122D01*
X231915D01*
X231798Y212298D01*
X231202Y212696D01*
X230500Y212835D01*
X229798Y212696D01*
X229202Y212298D01*
X228804Y211702D01*
X228665Y211000D01*
X228804Y210298D01*
X229111Y209838D01*
X229168Y209500D01*
X229111Y209162D01*
X228804Y208702D01*
X228769Y208524D01*
X228226Y208360D01*
X219621Y216965D01*
Y249500D01*
X219622Y249500D01*
X219536Y249929D01*
X219293Y250293D01*
X214193Y255393D01*
X213829Y255636D01*
X213400Y255722D01*
D02*
G37*
G36*
X273098Y273934D02*
X271151Y273780D01*
X269251Y273324D01*
X267446Y272577D01*
X265781Y271556D01*
X264295Y270287D01*
X263027Y268802D01*
X262006Y267136D01*
X261258Y265331D01*
X260802Y263432D01*
X260649Y261484D01*
X260802Y259537D01*
X261258Y257637D01*
X262006Y255832D01*
X263027Y254167D01*
X264295Y252681D01*
X265781Y251413D01*
X267446Y250392D01*
X269251Y249644D01*
X271151Y249188D01*
X273098Y249035D01*
X275046Y249188D01*
X276945Y249644D01*
X278750Y250392D01*
X280416Y251413D01*
X281902Y252681D01*
X283170Y254167D01*
X284191Y255832D01*
X284939Y257637D01*
X285395Y259537D01*
X285548Y261484D01*
X285395Y263432D01*
X284939Y265331D01*
X284191Y267136D01*
X283170Y268802D01*
X281902Y270287D01*
X280416Y271556D01*
X278750Y272577D01*
X276945Y273324D01*
X275046Y273780D01*
X273098Y273934D01*
D02*
G37*
G36*
X44752D02*
X42805Y273780D01*
X40905Y273324D01*
X39100Y272577D01*
X37434Y271556D01*
X35949Y270287D01*
X34680Y268802D01*
X33659Y267136D01*
X32912Y265331D01*
X32456Y263432D01*
X32303Y261484D01*
X32456Y259537D01*
X32912Y257637D01*
X33659Y255832D01*
X34680Y254167D01*
X35949Y252681D01*
X37434Y251413D01*
X39100Y250392D01*
X40905Y249644D01*
X42805Y249188D01*
X44752Y249035D01*
X46700Y249188D01*
X48599Y249644D01*
X50404Y250392D01*
X52069Y251413D01*
X53555Y252681D01*
X54824Y254167D01*
X55844Y255832D01*
X56592Y257637D01*
X57048Y259537D01*
X57201Y261484D01*
X57048Y263432D01*
X56592Y265331D01*
X55844Y267136D01*
X54824Y268802D01*
X53555Y270287D01*
X52069Y271556D01*
X50404Y272577D01*
X48599Y273324D01*
X46700Y273780D01*
X44752Y273934D01*
D02*
G37*
G36*
X249336Y252798D02*
X243412D01*
Y239404D01*
X242759Y238752D01*
X242437Y238669D01*
X242114Y238752D01*
X241462Y239404D01*
Y252798D01*
X235538D01*
Y237818D01*
X239876D01*
X240332Y237363D01*
Y236594D01*
X240302D01*
Y233406D01*
X246541D01*
Y233557D01*
X249357D01*
Y232042D01*
X257643D01*
Y237690D01*
X249842D01*
X249806Y237691D01*
X249781Y237691D01*
X249352Y237814D01*
X249336Y238180D01*
X249336Y238188D01*
X249336Y238216D01*
Y252798D01*
D02*
G37*
G36*
X141301D02*
X135376D01*
Y239404D01*
X134724Y238752D01*
X134402Y238669D01*
X134079Y238752D01*
X133427Y239404D01*
Y252798D01*
X127502D01*
Y237818D01*
X131841D01*
X132296Y237363D01*
Y236594D01*
X132266D01*
Y233406D01*
X138506D01*
Y233557D01*
X141357D01*
Y232042D01*
X149643D01*
Y237690D01*
X141819Y237691D01*
X141780Y237691D01*
X141743Y237692D01*
X141343Y237806D01*
X141302Y238161D01*
X141301Y238186D01*
X141301Y238226D01*
Y252798D01*
D02*
G37*
G36*
X38876Y235600D02*
X34176D01*
Y229400D01*
X38876D01*
Y230784D01*
X43471D01*
Y229475D01*
X48529D01*
Y234337D01*
X43471D01*
Y233028D01*
X38876D01*
Y235600D01*
D02*
G37*
G36*
Y214600D02*
X34176D01*
Y208400D01*
X38876D01*
Y209784D01*
X43471D01*
Y208475D01*
X48529D01*
Y213336D01*
X43471D01*
Y212027D01*
X38876D01*
Y214600D01*
D02*
G37*
G36*
X146931Y200498D02*
X142069D01*
Y199122D01*
X140529D01*
Y200368D01*
X135471D01*
Y199122D01*
X133334D01*
X133225Y199284D01*
X132636Y199678D01*
X131941Y199816D01*
X128004D01*
X127309Y199678D01*
X126720Y199284D01*
X126326Y198695D01*
X126188Y198000D01*
X126326Y197305D01*
X126720Y196716D01*
X127309Y196322D01*
X128004Y196184D01*
X131941D01*
X132636Y196322D01*
X133225Y196716D01*
X133334Y196878D01*
X135471D01*
Y195506D01*
X140529D01*
Y196878D01*
X142069D01*
Y195439D01*
X146931D01*
Y200498D01*
D02*
G37*
G36*
X337571Y198127D02*
X337571Y198127D01*
X325500D01*
X325500Y198127D01*
X325095Y198073D01*
X324691Y198020D01*
X323937Y197708D01*
X323289Y197211D01*
X316205Y190127D01*
X308500D01*
X307691Y190020D01*
X306937Y189708D01*
X306704Y189529D01*
X306069D01*
Y188925D01*
X305792Y188563D01*
X305480Y187809D01*
X305373Y187000D01*
X305480Y186191D01*
X305792Y185437D01*
X306069Y185075D01*
Y184471D01*
X306704D01*
X306937Y184292D01*
X307691Y183980D01*
X308500Y183873D01*
X314373D01*
Y180652D01*
X314036Y180585D01*
X313480Y180213D01*
X313108Y179657D01*
X312977Y179000D01*
X313108Y178343D01*
X313480Y177787D01*
X314036Y177415D01*
X314693Y177284D01*
X315042D01*
X315289Y176962D01*
X315937Y176465D01*
X316540Y176216D01*
X316440Y175716D01*
X314693D01*
X314036Y175585D01*
X313480Y175213D01*
X313108Y174656D01*
X312977Y174000D01*
X313108Y173344D01*
X313480Y172787D01*
X314036Y172415D01*
X314693Y172284D01*
X319614D01*
X320271Y172415D01*
X320827Y172787D01*
X321199Y173344D01*
X321330Y174000D01*
X321199Y174656D01*
X320827Y175213D01*
X320271Y175585D01*
X319614Y175716D01*
X318560D01*
X318460Y176216D01*
X319063Y176465D01*
X319711Y176962D01*
X320020Y177365D01*
X320271Y177415D01*
X320827Y177787D01*
X321199Y178343D01*
X321330Y179000D01*
X321199Y179657D01*
X320827Y180213D01*
X320627Y180347D01*
Y185705D01*
X326795Y191873D01*
X336276D01*
X337373Y190776D01*
Y156847D01*
X330577Y150051D01*
X330216Y149773D01*
X329709Y149113D01*
X329391Y148345D01*
X329338Y147945D01*
X328816Y147804D01*
X328156Y148311D01*
X327387Y148629D01*
X326563Y148738D01*
X325738Y148629D01*
X324970Y148311D01*
X324310Y147804D01*
X323803Y147144D01*
X323485Y146376D01*
X323376Y145551D01*
X323485Y144727D01*
X323803Y143958D01*
X324310Y143298D01*
X324970Y142792D01*
X325738Y142473D01*
X326563Y142365D01*
X327387Y142473D01*
X328156Y142792D01*
X328816Y143298D01*
X329322Y143958D01*
X329640Y144727D01*
X329693Y145127D01*
X330216Y145267D01*
X330875Y144761D01*
X331644Y144442D01*
X332469Y144334D01*
X333293Y144442D01*
X334062Y144761D01*
X334722Y145267D01*
X334999Y145629D01*
X342711Y153341D01*
X342711Y153341D01*
X343208Y153988D01*
X343520Y154742D01*
X343627Y155552D01*
Y192071D01*
X343627Y192071D01*
X343573Y192476D01*
X343520Y192880D01*
X343391Y193193D01*
X343208Y193634D01*
X342711Y194282D01*
X342711Y194282D01*
X339782Y197211D01*
X339134Y197708D01*
X338380Y198020D01*
X337571Y198127D01*
D02*
G37*
G36*
X111469Y199816D02*
X107531D01*
X106836Y199678D01*
X106247Y199284D01*
X105854Y198695D01*
X105716Y198000D01*
X105854Y197305D01*
X106247Y196716D01*
X106836Y196322D01*
X107531Y196184D01*
X111469D01*
X112163Y196322D01*
X112753Y196716D01*
X113146Y197305D01*
X113285Y198000D01*
X113146Y198695D01*
X112753Y199284D01*
X112163Y199678D01*
X111469Y199816D01*
D02*
G37*
G36*
X131941Y194816D02*
X128004D01*
X127309Y194678D01*
X126720Y194284D01*
X126326Y193695D01*
X126188Y193000D01*
X126326Y192305D01*
X126720Y191716D01*
X127309Y191322D01*
X128004Y191184D01*
X131941D01*
X132636Y191322D01*
X133225Y191716D01*
X133619Y192305D01*
X133757Y193000D01*
X133619Y193695D01*
X133225Y194284D01*
X132636Y194678D01*
X131941Y194816D01*
D02*
G37*
G36*
Y189816D02*
X128004D01*
X127309Y189678D01*
X126720Y189284D01*
X126326Y188695D01*
X126188Y188000D01*
X126326Y187305D01*
X126720Y186716D01*
X127309Y186322D01*
X128004Y186184D01*
X131941D01*
X132636Y186322D01*
X133225Y186716D01*
X133619Y187305D01*
X133757Y188000D01*
X133619Y188695D01*
X133225Y189284D01*
X132636Y189678D01*
X131941Y189816D01*
D02*
G37*
G36*
X205500Y203127D02*
X204691Y203020D01*
X203937Y202708D01*
X203289Y202211D01*
X202792Y201563D01*
X202480Y200809D01*
X202373Y200000D01*
Y192295D01*
X200884Y190805D01*
X200387Y190158D01*
X200074Y189404D01*
X200021Y188999D01*
X199968Y188594D01*
X199968Y188594D01*
Y185566D01*
X198912D01*
Y180441D01*
X200800D01*
X200990Y180296D01*
X201744Y179984D01*
X202553Y179877D01*
X202557D01*
X202557Y179877D01*
X202962Y179930D01*
X203366Y179984D01*
X204120Y180296D01*
X204310Y180441D01*
X206194D01*
Y183338D01*
X206221Y183541D01*
X206221Y183541D01*
Y187299D01*
X207393Y188471D01*
X207931D01*
Y189076D01*
X208208Y189437D01*
X208520Y190191D01*
X208627Y191000D01*
Y200000D01*
X208520Y200809D01*
X208208Y201563D01*
X207711Y202211D01*
X207063Y202708D01*
X206309Y203020D01*
X205500Y203127D01*
D02*
G37*
G36*
X326563Y180234D02*
X325738Y180125D01*
X324970Y179807D01*
X324310Y179300D01*
X323803Y178640D01*
X323485Y177872D01*
X323376Y177047D01*
X323485Y176223D01*
X323803Y175454D01*
X324310Y174794D01*
X324970Y174288D01*
X325738Y173969D01*
X326563Y173861D01*
X327387Y173969D01*
X328156Y174288D01*
X328816Y174794D01*
X329322Y175454D01*
X329640Y176223D01*
X329749Y177047D01*
X329640Y177872D01*
X329322Y178640D01*
X328816Y179300D01*
X328156Y179807D01*
X327387Y180125D01*
X326563Y180234D01*
D02*
G37*
G36*
X319614Y170716D02*
X314693D01*
X314036Y170585D01*
X313480Y170213D01*
X313108Y169657D01*
X312977Y169000D01*
X313108Y168343D01*
X313480Y167787D01*
X314036Y167415D01*
X314693Y167284D01*
X319614D01*
X320271Y167415D01*
X320827Y167787D01*
X321199Y168343D01*
X321330Y169000D01*
X321199Y169657D01*
X320827Y170213D01*
X320271Y170585D01*
X319614Y170716D01*
D02*
G37*
G36*
X326563Y172360D02*
X325738Y172251D01*
X324970Y171933D01*
X324310Y171426D01*
X323803Y170766D01*
X323485Y169998D01*
X323376Y169173D01*
X323485Y168349D01*
X323803Y167580D01*
X324310Y166920D01*
X324391Y166858D01*
X324246Y166389D01*
X324224Y166355D01*
X323807Y166272D01*
X323443Y166029D01*
X323443Y166029D01*
X321769Y164355D01*
X321226Y164520D01*
X321199Y164656D01*
X320827Y165213D01*
X320271Y165585D01*
X319614Y165716D01*
X314693D01*
X314036Y165585D01*
X313480Y165213D01*
X313108Y164656D01*
X312977Y164000D01*
X313108Y163344D01*
X313256Y163122D01*
X312989Y162622D01*
X305500D01*
X305071Y162536D01*
X304707Y162293D01*
X304707Y162293D01*
X302535Y160122D01*
X299235D01*
X299174Y160213D01*
X298617Y160585D01*
X297961Y160716D01*
X293039D01*
X292383Y160585D01*
X291826Y160213D01*
X291454Y159657D01*
X291324Y159000D01*
X291454Y158344D01*
X291826Y157787D01*
X292383Y157415D01*
X293039Y157284D01*
X297961D01*
X298617Y157415D01*
X299174Y157787D01*
X299235Y157878D01*
X303000D01*
X303000Y157878D01*
X303429Y157964D01*
X303793Y158207D01*
X305965Y160378D01*
X312989D01*
X313256Y159878D01*
X313108Y159657D01*
X312977Y159000D01*
X313108Y158344D01*
X313468Y157804D01*
X313448Y157700D01*
X313302Y157304D01*
X305683D01*
X305683Y157304D01*
X305254Y157219D01*
X304890Y156976D01*
X304890Y156976D01*
X303035Y155122D01*
X299235D01*
X299174Y155213D01*
X298617Y155585D01*
X297961Y155716D01*
X293039D01*
X292383Y155585D01*
X291826Y155213D01*
X291454Y154657D01*
X291324Y154000D01*
X291454Y153343D01*
X291826Y152787D01*
X292383Y152415D01*
X293039Y152284D01*
X297961D01*
X298617Y152415D01*
X299174Y152787D01*
X299235Y152878D01*
X303500D01*
X303500Y152878D01*
X303929Y152964D01*
X304293Y153207D01*
X306147Y155061D01*
X312823D01*
X313089Y154561D01*
X312977Y154000D01*
X313108Y153343D01*
X313480Y152787D01*
X314036Y152415D01*
X314693Y152284D01*
X319614D01*
X320271Y152415D01*
X320827Y152787D01*
X321199Y153343D01*
X321330Y154000D01*
X321218Y154561D01*
X321484Y155061D01*
X321683D01*
X321683Y155061D01*
X322112Y155147D01*
X322476Y155390D01*
X323327Y156241D01*
X324221D01*
X324391Y155741D01*
X324310Y155678D01*
X323803Y155018D01*
X323485Y154250D01*
X323376Y153425D01*
X323485Y152601D01*
X323803Y151832D01*
X324310Y151172D01*
X324970Y150666D01*
X325738Y150347D01*
X326563Y150239D01*
X327387Y150347D01*
X328156Y150666D01*
X328816Y151172D01*
X329322Y151832D01*
X329640Y152601D01*
X329749Y153425D01*
X329640Y154250D01*
X329322Y155018D01*
X328816Y155678D01*
X328734Y155741D01*
X328904Y156241D01*
X329514D01*
X329709Y155769D01*
X330216Y155109D01*
X330875Y154603D01*
X331644Y154285D01*
X332469Y154176D01*
X333293Y154285D01*
X334062Y154603D01*
X334722Y155109D01*
X335228Y155769D01*
X335546Y156537D01*
X335655Y157362D01*
X335546Y158187D01*
X335228Y158955D01*
X334722Y159615D01*
X334062Y160122D01*
X333293Y160440D01*
X332469Y160548D01*
X331644Y160440D01*
X330875Y160122D01*
X330216Y159615D01*
X329709Y158955D01*
X329514Y158484D01*
X322862D01*
X322862Y158484D01*
X322433Y158398D01*
X322069Y158155D01*
X322069Y158155D01*
X321452Y157538D01*
X321287Y157574D01*
X321060Y158136D01*
X321199Y158344D01*
X321330Y159000D01*
X321199Y159657D01*
X320992Y159967D01*
X320981Y160052D01*
X321102Y160564D01*
X321127Y160596D01*
X321293Y160707D01*
X324701Y164115D01*
X329514D01*
X329709Y163643D01*
X330216Y162983D01*
X330875Y162477D01*
X331644Y162159D01*
X332469Y162050D01*
X333293Y162159D01*
X334062Y162477D01*
X334722Y162983D01*
X335228Y163643D01*
X335546Y164411D01*
X335655Y165236D01*
X335546Y166061D01*
X335228Y166829D01*
X334722Y167489D01*
X334062Y167996D01*
X333293Y168314D01*
X332469Y168422D01*
X331644Y168314D01*
X330875Y167996D01*
X330216Y167489D01*
X329709Y166829D01*
X329514Y166358D01*
X328904D01*
X328734Y166858D01*
X328816Y166920D01*
X329322Y167580D01*
X329640Y168349D01*
X329749Y169173D01*
X329640Y169998D01*
X329322Y170766D01*
X328816Y171426D01*
X328156Y171933D01*
X327387Y172251D01*
X326563Y172360D01*
D02*
G37*
G36*
X290431Y166529D02*
X285569D01*
Y161471D01*
X290431D01*
Y162267D01*
X295500D01*
X295589Y162284D01*
X297961D01*
X298617Y162415D01*
X299174Y162787D01*
X299546Y163344D01*
X299676Y164000D01*
X299546Y164656D01*
X299174Y165213D01*
X298617Y165585D01*
X297961Y165716D01*
X295589D01*
X295500Y165733D01*
X290431D01*
Y166529D01*
D02*
G37*
G36*
X319614Y150716D02*
X314693D01*
X314036Y150585D01*
X313480Y150213D01*
X313108Y149656D01*
X312977Y149000D01*
X313108Y148344D01*
X313480Y147787D01*
X314036Y147415D01*
X314693Y147284D01*
X319614D01*
X320271Y147415D01*
X320827Y147787D01*
X321199Y148344D01*
X321330Y149000D01*
X321199Y149656D01*
X320827Y150213D01*
X320271Y150585D01*
X319614Y150716D01*
D02*
G37*
G36*
Y145716D02*
X314693D01*
X314036Y145585D01*
X313480Y145213D01*
X313108Y144657D01*
X312977Y144000D01*
X313108Y143343D01*
X313480Y142787D01*
X314036Y142415D01*
X314693Y142284D01*
X319614D01*
X320271Y142415D01*
X320827Y142787D01*
X321199Y143343D01*
X321330Y144000D01*
X321199Y144657D01*
X320827Y145213D01*
X320271Y145585D01*
X319614Y145716D01*
D02*
G37*
G36*
X38876Y118859D02*
X34176D01*
Y112659D01*
X38876D01*
Y114043D01*
X43471D01*
Y112734D01*
X48529D01*
Y117595D01*
X43471D01*
Y116286D01*
X38876D01*
Y118859D01*
D02*
G37*
G36*
Y96359D02*
X34176D01*
Y90159D01*
X38876D01*
Y91543D01*
X43471D01*
Y90234D01*
X48529D01*
Y95095D01*
X43471D01*
Y93786D01*
X38876D01*
Y96359D01*
D02*
G37*
G36*
X102051Y95608D02*
X101226Y95500D01*
X100458Y95181D01*
X99798Y94675D01*
X99292Y94015D01*
X98973Y93247D01*
X98865Y92422D01*
X98973Y91597D01*
X99292Y90829D01*
X99798Y90169D01*
X100458Y89663D01*
X101226Y89344D01*
X102051Y89236D01*
X102876Y89344D01*
X103644Y89663D01*
X104304Y90169D01*
X104810Y90829D01*
X105129Y91597D01*
X105237Y92422D01*
X105129Y93247D01*
X104810Y94015D01*
X104304Y94675D01*
X103644Y95181D01*
X102876Y95500D01*
X102051Y95608D01*
D02*
G37*
G36*
X94177D02*
X93352Y95500D01*
X92584Y95181D01*
X91924Y94675D01*
X91418Y94015D01*
X91099Y93247D01*
X90991Y92422D01*
X91099Y91597D01*
X91418Y90829D01*
X91924Y90169D01*
X92584Y89663D01*
X93352Y89344D01*
X94177Y89236D01*
X95002Y89344D01*
X95770Y89663D01*
X96430Y90169D01*
X96936Y90829D01*
X97255Y91597D01*
X97363Y92422D01*
X97255Y93247D01*
X96936Y94015D01*
X96430Y94675D01*
X95770Y95181D01*
X95002Y95500D01*
X94177Y95608D01*
D02*
G37*
G36*
X78429D02*
X77604Y95500D01*
X76836Y95181D01*
X76176Y94675D01*
X75670Y94015D01*
X75351Y93247D01*
X75243Y92422D01*
X75351Y91597D01*
X75670Y90829D01*
X76176Y90169D01*
X76836Y89663D01*
X77604Y89344D01*
X78429Y89236D01*
X79254Y89344D01*
X80022Y89663D01*
X80682Y90169D01*
X81188Y90829D01*
X81507Y91597D01*
X81615Y92422D01*
X81507Y93247D01*
X81188Y94015D01*
X80682Y94675D01*
X80022Y95181D01*
X79254Y95500D01*
X78429Y95608D01*
D02*
G37*
G36*
X201000Y106335D02*
X200298Y106196D01*
X199702Y105798D01*
X199304Y105202D01*
X199165Y104500D01*
X199304Y103798D01*
X199702Y103202D01*
X199716Y103193D01*
Y88529D01*
X198754D01*
Y83471D01*
X203616D01*
Y88529D01*
X202469D01*
Y103458D01*
X202696Y103798D01*
X202835Y104500D01*
X202696Y105202D01*
X202298Y105798D01*
X201702Y106196D01*
X201000Y106335D01*
D02*
G37*
G36*
X235643Y98958D02*
X227357D01*
Y93309D01*
X235643D01*
Y94864D01*
X238396D01*
Y94754D01*
X240394D01*
Y92624D01*
X239876Y92105D01*
X235538D01*
Y77126D01*
X241462D01*
Y90519D01*
X242127Y91184D01*
X242609Y91232D01*
X242772Y91159D01*
X243412Y90519D01*
Y77126D01*
X249336D01*
Y92105D01*
X244998D01*
X244605Y92498D01*
Y94754D01*
X244635D01*
Y97942D01*
X238396D01*
Y97617D01*
X235643D01*
Y98958D01*
D02*
G37*
G36*
X311997Y73432D02*
X309813D01*
Y73432D01*
X308060D01*
Y73432D01*
X305876D01*
Y71700D01*
X305847Y71552D01*
Y70780D01*
X305847Y70780D01*
X305876Y70632D01*
Y69673D01*
X305878D01*
Y68029D01*
X304569D01*
Y62971D01*
X309431D01*
Y64410D01*
X310971D01*
Y63101D01*
X316029D01*
Y67962D01*
X310971D01*
Y66653D01*
X309431D01*
Y68029D01*
X308121D01*
Y69673D01*
X310029D01*
Y69673D01*
X311997D01*
Y73432D01*
D02*
G37*
G36*
X316029Y61899D02*
X310971D01*
Y60385D01*
X309599D01*
Y61613D01*
X303399D01*
Y56913D01*
X309599D01*
Y58141D01*
X310971D01*
Y57038D01*
X316029D01*
Y61899D01*
D02*
G37*
G36*
X44752Y81020D02*
X42805Y80867D01*
X40905Y80411D01*
X39100Y79663D01*
X37434Y78643D01*
X35949Y77374D01*
X34680Y75888D01*
X33659Y74223D01*
X32912Y72418D01*
X32456Y70518D01*
X32303Y68571D01*
X32456Y66623D01*
X32912Y64724D01*
X33659Y62919D01*
X34680Y61253D01*
X35949Y59768D01*
X37434Y58499D01*
X39100Y57478D01*
X40905Y56731D01*
X42805Y56275D01*
X44752Y56121D01*
X46700Y56275D01*
X48599Y56731D01*
X50404Y57478D01*
X52069Y58499D01*
X53555Y59768D01*
X54824Y61253D01*
X55844Y62919D01*
X56592Y64724D01*
X57048Y66623D01*
X57201Y68571D01*
X57048Y70518D01*
X56592Y72418D01*
X55844Y74223D01*
X54824Y75888D01*
X53555Y77374D01*
X52069Y78643D01*
X50404Y79663D01*
X48599Y80411D01*
X46700Y80867D01*
X44752Y81020D01*
D02*
G37*
%LPD*%
G36*
X237926Y203488D02*
Y194913D01*
X237690Y194734D01*
X237426Y194609D01*
X237079Y194678D01*
X236732Y194609D01*
X236468Y194734D01*
X236232Y194913D01*
Y199890D01*
X236232Y199890D01*
X236146Y200319D01*
X235903Y200683D01*
X235903Y200683D01*
X230860Y205727D01*
X231024Y206269D01*
X231202Y206304D01*
X231762Y206679D01*
X234735D01*
X237926Y203488D01*
D02*
G37*
D16*
X266014Y174274D02*
X290500Y149788D01*
Y95499D02*
Y149788D01*
X257747Y174274D02*
X266014D01*
X257747Y172306D02*
X265720D01*
X271606Y152631D02*
X279300Y144937D01*
X265720Y172306D02*
X288900Y149126D01*
X257747Y168369D02*
X265131D01*
X253500Y154231D02*
X272269D01*
X265131Y168369D02*
X285700Y147800D01*
X251000Y151000D02*
X270974D01*
X257747Y164432D02*
X264543D01*
X285700Y87273D02*
Y147800D01*
X277700Y120700D02*
Y144274D01*
X272269Y154231D02*
X280900Y145600D01*
X265425Y170337D02*
X287300Y148463D01*
X264543Y164432D02*
X282500Y146475D01*
X270974Y151000D02*
X277700Y144274D01*
X284100Y86318D02*
Y147137D01*
X264837Y166400D02*
X284100Y147137D01*
X251631Y152631D02*
X271606D01*
X257747Y170337D02*
X265425D01*
X288900Y94837D02*
Y149126D01*
X257747Y166400D02*
X264837D01*
X287300Y88200D02*
Y148463D01*
X282500Y118712D02*
Y146475D01*
X280900Y119375D02*
Y145600D01*
X279300Y120037D02*
Y144937D01*
X285700Y87273D02*
X296697Y76276D01*
X284100Y86318D02*
X295742Y74676D01*
X287300Y88200D02*
X297500Y78000D01*
X290500Y95499D02*
X295970Y90029D01*
X288900Y94837D02*
X299094Y84643D01*
X274763Y115500D02*
X279300Y120037D01*
X269688Y105900D02*
X282500Y118712D01*
X269025Y107500D02*
X280900Y119375D01*
X274500Y117500D02*
X277700Y120700D01*
X305500Y161500D02*
X320500D01*
X324236Y165236D01*
X332469D01*
X311994Y89006D02*
Y89385D01*
Y89006D02*
X312000Y89000D01*
X311349Y90029D02*
X311994Y89385D01*
X295970Y90029D02*
X311349D01*
X308945Y81008D02*
Y82367D01*
X310069Y83491D01*
X310870D01*
X308937Y81000D02*
X308945Y81008D01*
X310870Y83491D02*
X312000Y84622D01*
Y89000D01*
X301000Y78000D02*
X309264D01*
X310897Y79633D02*
Y80992D01*
X309264Y78000D02*
X310897Y79633D01*
X297500Y78000D02*
X301000D01*
X295742Y74676D02*
X301266D01*
X303024Y72918D01*
Y71560D02*
Y72918D01*
Y71560D02*
X303032Y71552D01*
X301063Y78063D02*
Y81000D01*
X301000Y78000D02*
X301063Y78063D01*
X150500Y108000D02*
X160000Y117500D01*
X160500Y115500D02*
X274763D01*
X137940Y106400D02*
X151400D01*
X160000Y117500D02*
X274500D01*
X137000Y108000D02*
X150500D01*
X151400Y106400D02*
X160500Y115500D01*
X200500Y120000D02*
Y148000D01*
X207248Y80000D02*
Y106252D01*
X200500Y113000D02*
X207248Y106252D01*
X124000Y125500D02*
X142000D01*
X97228Y98728D02*
X124000Y125500D01*
X246163Y105900D02*
X269688D01*
X245500Y107500D02*
X269025D01*
X127414Y216586D02*
X130000Y214000D01*
X181500D02*
X184500Y211000D01*
X130000Y214000D02*
X181500D01*
X184500Y211000D02*
X202500D01*
X129500D02*
X181311D01*
X125400Y215100D02*
X129500Y211000D01*
X125400Y215100D02*
Y221663D01*
X181311Y211000D02*
X184311Y208000D01*
X202500D01*
X172500Y209000D02*
X178000Y203500D01*
X102500Y209000D02*
X172500D01*
X178000Y195500D02*
Y203500D01*
X179000Y231500D02*
Y239965D01*
X178964Y240001D02*
X179000Y239965D01*
Y231500D02*
X181500Y229000D01*
X169122Y232378D02*
Y240000D01*
X198649Y248649D02*
X203000Y253000D01*
X212500D02*
X216500Y249000D01*
X194100Y254600D02*
X213400D01*
X218500Y249500D01*
X203000Y253000D02*
X212500D01*
X188807Y249307D02*
X194100Y254600D01*
X218500Y216500D02*
Y249500D01*
X188807Y247001D02*
Y249307D01*
X216500Y216000D02*
Y249000D01*
X198649Y247001D02*
Y248649D01*
X234500Y213763D02*
Y223500D01*
X236100Y214425D02*
Y222100D01*
X230700Y207800D02*
X235200D01*
X239047Y191005D02*
Y203953D01*
X235200Y207800D02*
X239047Y203953D01*
X230500Y211000D02*
X235000D01*
X241016Y204984D01*
X230500Y208000D02*
X230700Y207800D01*
X73531Y237969D02*
X102500Y209000D01*
X90531Y216968D02*
X100100Y207400D01*
X148600D01*
X150563Y205437D01*
X127414Y216586D02*
Y221414D01*
X125400Y221663D02*
X128837Y225100D01*
X138339Y240780D02*
Y245308D01*
X127414Y221414D02*
X129500Y223500D01*
X132500D01*
X133418Y224418D01*
X128837Y225100D02*
X130863D01*
X131449Y225686D01*
X133418Y224418D02*
Y227696D01*
X131449Y225686D02*
Y227696D01*
X133418Y235000D02*
Y237827D01*
X135386Y235000D02*
Y237827D01*
X130465Y240780D02*
X133418Y237827D01*
X135386Y237827D02*
X138339Y240780D01*
X130465D02*
Y245308D01*
X238500Y240780D02*
Y245308D01*
X239484Y225086D02*
Y227696D01*
X238500Y240780D02*
X241453Y237827D01*
X241402Y224402D02*
Y227645D01*
X241453Y227696D01*
Y235000D02*
Y237827D01*
X243421Y235000D02*
Y237827D01*
X246374Y240780D01*
Y245308D01*
X238898Y224500D02*
X239484Y225086D01*
X239900Y222900D02*
X241402Y224402D01*
X234500Y223500D02*
X235500Y224500D01*
X236100Y222100D02*
X236900Y222900D01*
X239900D01*
X235500Y224500D02*
X238898D01*
X46000Y237969D02*
X73531D01*
X150563Y197968D02*
Y205437D01*
X46000Y216968D02*
X90531D01*
X75681Y179201D02*
Y179201D01*
X60500Y164021D02*
X75681Y179201D01*
X60500Y135728D02*
Y164021D01*
X47429Y122657D02*
X60500Y135728D01*
X46000Y121228D02*
X46098D01*
X47429Y122558D01*
Y122657D01*
X170500Y125500D02*
X188189D01*
X197000Y134310D01*
Y149500D01*
X215869Y168369D01*
X175500Y226000D02*
X197500D01*
X169122Y232378D02*
X175500Y226000D01*
X181500Y229000D02*
X197500D01*
Y226000D02*
X219588Y203912D01*
Y176978D02*
Y203912D01*
X222000Y176829D02*
Y204500D01*
X197500Y229000D02*
X222000Y204500D01*
X218500Y216500D02*
X235110Y199890D01*
X216500Y216000D02*
X226254Y206246D01*
X235110Y191005D02*
Y199890D01*
X226254Y186085D02*
Y206246D01*
X234500Y213763D02*
X242984Y205278D01*
Y191005D02*
Y205278D01*
X244953Y191005D02*
Y205573D01*
X236100Y214425D02*
X244953Y205573D01*
X241016Y191005D02*
Y204984D01*
X246374Y84616D02*
Y89143D01*
X243484Y92033D02*
Y96348D01*
Y92033D02*
X246374Y89143D01*
X238500Y84616D02*
Y89143D01*
X241516Y92159D02*
Y96348D01*
X238500Y89143D02*
X241516Y92159D01*
X299094Y81000D02*
Y84643D01*
X207248Y67500D02*
Y80000D01*
X200500Y148000D02*
X214300Y161800D01*
X245504Y103703D02*
Y105242D01*
X245453Y103652D02*
X245504Y103703D01*
Y105242D02*
X246163Y105900D01*
X243535Y103703D02*
Y105535D01*
X243484Y103652D02*
X243535Y103703D01*
Y105535D02*
X245500Y107500D01*
X137355Y103652D02*
Y105814D01*
X137940Y106400D01*
X135386Y103652D02*
Y106386D01*
X137000Y108000D01*
X135386Y92096D02*
X138339Y89143D01*
X135386Y92096D02*
Y96348D01*
X138339Y84616D02*
Y89143D01*
X130465D02*
X133418Y92096D01*
X130465Y84616D02*
Y89143D01*
X133418Y92096D02*
Y96348D01*
X277820Y180180D02*
X289000Y169000D01*
X294673D01*
X257747Y180180D02*
X277820D01*
X289000Y174000D02*
X294673D01*
X280852Y182149D02*
X289000Y174000D01*
X257747Y182149D02*
X280852D01*
X129972Y198000D02*
X144468D01*
X144500Y197968D01*
X122563Y176500D02*
X127000D01*
X129972Y179472D02*
Y183000D01*
X127000Y176500D02*
X129972Y179472D01*
X219588Y176978D02*
X222284Y174282D01*
X226246D01*
X226254Y174274D01*
X222586Y176243D02*
X226254D01*
X222000Y176829D02*
X222586Y176243D01*
X296697Y76276D02*
X297469D01*
X307000Y65500D02*
X307031Y65531D01*
X313500D01*
X307000Y65500D02*
Y70748D01*
X306968Y70780D02*
X307000Y70748D01*
X306968Y70780D02*
Y71552D01*
X303032Y81000D02*
Y86968D01*
X306500Y59263D02*
X313295D01*
X313500Y59469D01*
X310897Y80992D02*
X310905Y81000D01*
X252866Y186085D02*
X257747D01*
X251330Y184549D02*
X252866Y186085D01*
X250951Y184549D02*
X251330D01*
X252827Y154905D02*
X253500Y154231D01*
X252827Y154905D02*
Y159512D01*
X250858Y153404D02*
X251631Y152631D01*
X250858Y153404D02*
Y159512D01*
X248890Y153110D02*
X251000Y151000D01*
X248890Y153110D02*
Y159512D01*
X203632Y175996D02*
X209291Y170337D01*
X202553Y175996D02*
X203632D01*
X209291Y170337D02*
X226254D01*
Y172306D02*
X233032D01*
X241000Y165000D02*
X242984Y163016D01*
X231632Y165000D02*
X241000D01*
X242984Y159512D02*
Y163016D01*
X228432Y161800D02*
X231632Y165000D01*
X214300Y161800D02*
X228432D01*
X36526Y232501D02*
X37120Y231906D01*
X46000D01*
X36526Y211500D02*
X37120Y210906D01*
X46000D01*
X36526Y115759D02*
X37120Y115165D01*
X46000D01*
X36526Y93259D02*
X37120Y92665D01*
X46000D01*
Y98728D02*
X97228D01*
X215869Y168369D02*
X226254D01*
X322862Y157362D02*
X332469D01*
X321683Y156183D02*
X322862Y157362D01*
X305683Y156183D02*
X321683D01*
X303500Y154000D02*
X305683Y156183D01*
X332469Y157362D02*
X332469Y157363D01*
X294673Y154000D02*
X303500D01*
X294673Y159000D02*
X303000D01*
X305500Y161500D01*
X332469Y165236D02*
X332469Y165237D01*
X243032Y136969D02*
X246741Y133259D01*
X258701D01*
X243032Y136969D02*
Y146259D01*
X221299Y133259D02*
X233259D01*
X236968Y136969D01*
Y146259D01*
X243032D02*
Y151759D01*
Y151857D01*
X241016Y153873D02*
Y159512D01*
Y153873D02*
X243032Y151857D01*
X236968Y146259D02*
Y151759D01*
Y151857D02*
X239047Y153936D01*
X236968Y151759D02*
Y151857D01*
X239047Y153936D02*
Y159512D01*
X249000Y166500D02*
X250902D01*
X246921Y159512D02*
Y164421D01*
X249000Y166500D01*
X231173Y184500D02*
Y191005D01*
X231165Y159500D02*
X231173Y159508D01*
Y159512D01*
X227500Y159500D02*
X231165D01*
X218500Y164432D02*
X226254D01*
X351500Y54398D02*
G03*
X365673Y68571I0J14173D01*
G01*
Y261500D02*
G03*
X351500Y275673I-14173J0D01*
G01*
X30579Y68571D02*
G03*
X44752Y54398I14173J0D01*
G01*
Y275658D02*
G03*
X30579Y261484I0J-14173D01*
G01*
X44752Y275658D02*
X351500D01*
X365673Y68571D02*
Y261500D01*
X44752Y54398D02*
X351500D01*
X30579Y68571D02*
Y261484D01*
D20*
X221299Y133259D02*
D03*
X258701D02*
D03*
D21*
X243032Y146259D02*
D03*
X249095D02*
D03*
X239405Y219500D02*
D03*
X245468D02*
D03*
X137500D02*
D03*
X131437D02*
D03*
X116500Y176500D02*
D03*
X122563D02*
D03*
X131370Y111500D02*
D03*
X137433D02*
D03*
X94500Y190500D02*
D03*
X100563D02*
D03*
X205500Y191000D02*
D03*
X211563D02*
D03*
X307000Y65500D02*
D03*
X300937D02*
D03*
X303000Y87000D02*
D03*
X309063D02*
D03*
X302437Y187000D02*
D03*
X308500D02*
D03*
X281937Y164000D02*
D03*
X288000D02*
D03*
X245563Y111500D02*
D03*
X239500D02*
D03*
X236968Y146259D02*
D03*
X230906D02*
D03*
X201185Y80000D02*
D03*
X207248D02*
D03*
X150563Y197968D02*
D03*
X144500D02*
D03*
X207248Y86000D02*
D03*
X201185D02*
D03*
X243032Y151759D02*
D03*
X236968D02*
D03*
X151000Y176469D02*
D03*
X144937D02*
D03*
D22*
X317154Y144000D02*
D03*
Y149000D02*
D03*
Y154000D02*
D03*
Y159000D02*
D03*
Y164000D02*
D03*
Y169000D02*
D03*
Y174000D02*
D03*
Y179000D02*
D03*
X295500Y144000D02*
D03*
Y149000D02*
D03*
Y154000D02*
D03*
Y159000D02*
D03*
Y164000D02*
D03*
Y169000D02*
D03*
Y174000D02*
D03*
Y179000D02*
D03*
D23*
X169122Y240000D02*
D03*
X157389Y269133D02*
D03*
X220225D02*
D03*
X178964Y240001D02*
D03*
X188807D02*
D03*
X198649D02*
D03*
X208492Y240000D02*
D03*
D24*
X121803Y267946D02*
D03*
X147000D02*
D03*
X229839D02*
D03*
X255035D02*
D03*
X147000Y61978D02*
D03*
X121803Y61976D02*
D03*
X229839Y61978D02*
D03*
X255035D02*
D03*
D25*
X138339Y245308D02*
D03*
X130465D02*
D03*
X246374D02*
D03*
X238500D02*
D03*
X138339Y84616D02*
D03*
X130465D02*
D03*
X246374D02*
D03*
X238500D02*
D03*
D26*
X137355Y235000D02*
D03*
X135386D02*
D03*
X133418D02*
D03*
X131449D02*
D03*
Y227696D02*
D03*
X133418D02*
D03*
X135386D02*
D03*
X137355D02*
D03*
X245390D02*
D03*
X243421D02*
D03*
X241453D02*
D03*
X239484D02*
D03*
Y235000D02*
D03*
X241453D02*
D03*
X243421D02*
D03*
X245390D02*
D03*
X131449Y103652D02*
D03*
X133418D02*
D03*
X135386D02*
D03*
X137355D02*
D03*
Y96348D02*
D03*
X135386D02*
D03*
X133418D02*
D03*
X131449D02*
D03*
X239547D02*
D03*
X241516D02*
D03*
X243484D02*
D03*
X245453D02*
D03*
Y103652D02*
D03*
X243484D02*
D03*
X241516D02*
D03*
X239547D02*
D03*
D27*
X134402Y231348D02*
D03*
X242437D02*
D03*
X134402Y100000D02*
D03*
X242500D02*
D03*
D28*
X145500Y223134D02*
D03*
Y234866D02*
D03*
X253500D02*
D03*
Y223134D02*
D03*
X123500Y96134D02*
D03*
Y107866D02*
D03*
X161500Y201366D02*
D03*
Y189634D02*
D03*
X231500Y107866D02*
D03*
Y96134D02*
D03*
X169000Y189634D02*
D03*
Y201366D02*
D03*
X181000Y144866D02*
D03*
Y133134D02*
D03*
X188500Y144866D02*
D03*
Y133134D02*
D03*
D29*
X109500Y198000D02*
D03*
X109500Y193000D02*
D03*
Y188000D02*
D03*
X109500Y183000D02*
D03*
X129972Y198000D02*
D03*
X129972Y193000D02*
D03*
Y188000D02*
D03*
X129972Y183000D02*
D03*
D30*
X119736Y190500D02*
D03*
D31*
X100169Y184500D02*
D03*
X88437D02*
D03*
X150606Y182468D02*
D03*
X138874D02*
D03*
X150606Y189969D02*
D03*
X138874D02*
D03*
D32*
X92500Y173726D02*
D03*
Y155615D02*
D03*
X106500Y155445D02*
D03*
Y173555D02*
D03*
D33*
X231173Y159512D02*
D03*
X233142D02*
D03*
X235110D02*
D03*
X237079D02*
D03*
X239047D02*
D03*
X241016D02*
D03*
X242984D02*
D03*
X244953D02*
D03*
X246921D02*
D03*
X248890D02*
D03*
X250858D02*
D03*
X252827D02*
D03*
Y191005D02*
D03*
X250858D02*
D03*
X248890D02*
D03*
X246921D02*
D03*
X244953D02*
D03*
X242984D02*
D03*
X241016D02*
D03*
X239047D02*
D03*
X237079D02*
D03*
X235110D02*
D03*
X233142D02*
D03*
X231173D02*
D03*
D34*
X257747Y164432D02*
D03*
Y166400D02*
D03*
Y168369D02*
D03*
Y170337D02*
D03*
Y172306D02*
D03*
Y174274D02*
D03*
Y176243D02*
D03*
Y178211D02*
D03*
Y180180D02*
D03*
Y182149D02*
D03*
Y184117D02*
D03*
Y186085D02*
D03*
X226254D02*
D03*
Y184117D02*
D03*
Y182149D02*
D03*
Y180180D02*
D03*
Y178211D02*
D03*
Y176243D02*
D03*
Y174274D02*
D03*
Y172306D02*
D03*
Y170337D02*
D03*
Y168369D02*
D03*
Y166400D02*
D03*
Y164432D02*
D03*
D35*
X202553Y183004D02*
D03*
Y175996D02*
D03*
X215447D02*
D03*
Y183004D02*
D03*
D36*
X178000Y155000D02*
D03*
D37*
X168945Y180500D02*
D03*
X178000D02*
D03*
X187055D02*
D03*
D38*
X175752Y67500D02*
D03*
X207248D02*
D03*
D39*
X117000Y157000D02*
D03*
X147000D02*
D03*
D40*
X36526Y122759D02*
D03*
Y239500D02*
D03*
Y218500D02*
D03*
Y100259D02*
D03*
D41*
Y115759D02*
D03*
Y232501D02*
D03*
Y211500D02*
D03*
Y93259D02*
D03*
D42*
X299500Y59263D02*
D03*
D43*
X306500D02*
D03*
D44*
X46000Y121228D02*
D03*
Y115165D02*
D03*
Y231906D02*
D03*
Y237969D02*
D03*
Y216968D02*
D03*
Y210906D02*
D03*
X138000Y197937D02*
D03*
Y204000D02*
D03*
X313500Y59469D02*
D03*
Y65531D02*
D03*
X46000Y98728D02*
D03*
Y92665D02*
D03*
D45*
X310905Y71552D02*
D03*
X308937Y71552D02*
D03*
X306968Y71552D02*
D03*
X305000Y71552D02*
D03*
X303032Y71552D02*
D03*
X301063D02*
D03*
X299094Y71552D02*
D03*
Y81000D02*
D03*
X301063Y81000D02*
D03*
X303032Y81000D02*
D03*
X305000Y81000D02*
D03*
X306968Y81000D02*
D03*
X308937Y81000D02*
D03*
X310905Y81000D02*
D03*
D46*
X297469Y76276D02*
D03*
X312547D02*
D03*
D82*
X215801Y146259D02*
X218822D01*
X225000Y121500D02*
X255000D01*
X222000D02*
X225000D01*
X218822Y146259D02*
X221843D01*
X213000Y121500D02*
X216000D01*
X219000D02*
X222000D01*
X216000D02*
X219000D01*
X210000D02*
X213000D01*
X212780Y146259D02*
X215801D01*
X209759D02*
X212780D01*
X227885D02*
X230906D01*
X224864D02*
X227885D01*
X221843D02*
X224864D01*
X205900Y125600D02*
Y142400D01*
X209759Y146259D01*
X205900Y125600D02*
X210000Y121500D01*
X270000D02*
X274100Y125600D01*
X270241Y146259D02*
X274100Y142400D01*
Y125600D02*
Y142400D01*
X255136Y146259D02*
X258157D01*
X252116D02*
X255136D01*
X249095D02*
X252116D01*
X249095D02*
X249095D01*
X267220D02*
X270241D01*
X264199D02*
X267220D01*
X267000Y121500D02*
X270000D01*
X261000D02*
X264000D01*
X258000D02*
X261000D01*
X264000D02*
X267000D01*
X258157Y146259D02*
X261178D01*
X255000Y121500D02*
X258000D01*
X261178Y146259D02*
X264199D01*
X168972Y180528D02*
Y189606D01*
X168986Y189634D02*
X169000D01*
X161500D02*
X168986D01*
X150563Y189969D02*
Y197968D01*
Y160563D02*
Y189969D01*
X317500Y187000D02*
X325500Y195000D01*
X308500Y187000D02*
X317500D01*
X325500Y195000D02*
X337571D01*
X317500Y179173D02*
Y187000D01*
X202557Y183004D02*
X203095Y183541D01*
X202553Y183004D02*
X202557D01*
X203095Y188594D02*
X205500Y191000D01*
X203095Y183541D02*
Y188594D01*
X205500Y191000D02*
Y200000D01*
X168986Y189620D02*
X169000Y189634D01*
X168972Y189606D02*
X168986Y189620D01*
X168945Y180500D02*
X168972Y180528D01*
X150882Y189634D02*
X161500D01*
X150606Y189909D02*
X150882Y189634D01*
X150606Y189909D02*
Y189969D01*
X147000Y157000D02*
X150563Y160563D01*
X340500Y155552D02*
Y192071D01*
X337571Y195000D02*
X340500Y192071D01*
X332469Y147521D02*
X332470D01*
X340500Y155552D01*
D83*
X288000Y164000D02*
X295500D01*
D84*
X100563Y182674D02*
Y190500D01*
X103063Y188000D02*
X109500D01*
X92500Y173726D02*
Y174611D01*
X100563Y182674D01*
X83335Y173726D02*
X92500D01*
X75681Y179201D02*
X77859D01*
X83335Y173726D01*
D85*
X131409Y103691D02*
Y111539D01*
X131455Y111585D02*
Y111683D01*
X135895Y116123D01*
X149123D01*
X179592Y143458D02*
X181000Y144866D01*
X149123Y116123D02*
X176458Y143458D01*
X179592D01*
X245429Y219539D02*
X245468Y219500D01*
X137427Y219573D02*
X137500Y219500D01*
X137427Y219573D02*
Y227623D01*
X137355Y227696D02*
X137427Y227623D01*
X135386Y227696D02*
X137355D01*
Y235000D02*
X137422Y234933D01*
X145433D01*
X145500Y234866D01*
X245429Y219539D02*
Y227657D01*
X243421Y227696D02*
X245390D01*
X245429Y227657D01*
X245390Y235000D02*
X245457Y234933D01*
X253433D01*
X253500Y234866D01*
X231500Y96134D02*
X231607Y96241D01*
X239440D02*
X239547Y96348D01*
X231607Y96241D02*
X239440D01*
X123607D02*
X131342D01*
X131449Y96348D01*
X123500Y96134D02*
X123607Y96241D01*
X201093Y86093D02*
X201185Y86000D01*
X201093Y86093D02*
Y104408D01*
X201000Y104500D02*
X201093Y104408D01*
X131409Y111539D02*
X131455Y111585D01*
X239547Y103652D02*
X241516D01*
X239524Y103675D02*
X239547Y103652D01*
X239500Y111500D02*
X239524Y111477D01*
Y103675D02*
Y111477D01*
X131409Y103691D02*
X131449Y103652D01*
X133418D01*
D86*
X123500Y119500D02*
X143000D01*
X168945Y145445D01*
Y180500D01*
X117000Y113000D02*
X123500Y119500D01*
X113554Y80770D02*
X117000Y84216D01*
Y113000D01*
X78270Y80770D02*
X113554D01*
X72525Y86515D02*
X78270Y80770D01*
X72525Y86515D02*
Y86515D01*
D87*
X178000Y180500D02*
Y195500D01*
X181000Y144866D02*
Y152563D01*
X178000Y155000D02*
X178563D01*
X181000Y152563D01*
Y144866D02*
X188500D01*
X178000Y155000D02*
Y180500D01*
X313484Y65516D02*
X313500Y65531D01*
D88*
X75681Y179201D02*
D03*
Y150855D02*
D03*
D89*
X52059Y191603D02*
D03*
Y138453D02*
D03*
D90*
X72524Y86516D02*
D03*
X82366D02*
D03*
X90240D02*
D03*
X100083D02*
D03*
X102051Y92422D02*
D03*
X94177D02*
D03*
X86303D02*
D03*
X78429D02*
D03*
X70555D02*
D03*
X332469Y147520D02*
D03*
Y157362D02*
D03*
Y165236D02*
D03*
Y175079D02*
D03*
X326563Y177047D02*
D03*
Y169173D02*
D03*
Y161299D02*
D03*
Y153425D02*
D03*
Y145551D02*
D03*
D91*
X61106Y88485D02*
D03*
X111500D02*
D03*
D92*
Y62500D02*
D03*
X61106D02*
D03*
D93*
X330500Y136102D02*
D03*
Y186496D02*
D03*
D94*
X356485D02*
D03*
Y136102D02*
D03*
D95*
X44752Y261484D02*
D03*
Y68571D02*
D03*
X273098D02*
D03*
Y261484D02*
D03*
D96*
X258000Y121500D02*
D03*
X255000D02*
D03*
X252000D02*
D03*
X249000D02*
D03*
X246000D02*
D03*
X243000D02*
D03*
X240000D02*
D03*
X237000D02*
D03*
X234000D02*
D03*
X231000D02*
D03*
X212780Y146259D02*
D03*
X215801D02*
D03*
X218822D02*
D03*
X228000Y121500D02*
D03*
X225000D02*
D03*
X222000D02*
D03*
X219000D02*
D03*
X216000D02*
D03*
X213000D02*
D03*
X210000D02*
D03*
X207621Y123879D02*
D03*
X207379Y143879D02*
D03*
X205900Y134000D02*
D03*
Y141500D02*
D03*
Y130250D02*
D03*
Y126500D02*
D03*
Y137750D02*
D03*
X209759Y146259D02*
D03*
X224864D02*
D03*
X230906D02*
D03*
X227885D02*
D03*
X221843D02*
D03*
X258157D02*
D03*
X252116D02*
D03*
X249095D02*
D03*
X255136D02*
D03*
X270241D02*
D03*
X274100Y137750D02*
D03*
Y126500D02*
D03*
Y130250D02*
D03*
Y141500D02*
D03*
Y134000D02*
D03*
X295000Y130000D02*
D03*
X272621Y143879D02*
D03*
X223000Y153437D02*
D03*
X227500D02*
D03*
X360000Y260000D02*
D03*
Y240000D02*
D03*
Y220000D02*
D03*
Y200000D02*
D03*
Y180000D02*
D03*
Y160000D02*
D03*
Y120000D02*
D03*
Y100000D02*
D03*
Y80000D02*
D03*
Y60000D02*
D03*
X355000Y270000D02*
D03*
X350000Y260000D02*
D03*
X355000Y250000D02*
D03*
X350000Y240000D02*
D03*
X355000Y230000D02*
D03*
X350000Y220000D02*
D03*
X355000Y210000D02*
D03*
X350000Y200000D02*
D03*
Y180000D02*
D03*
X355000Y170000D02*
D03*
X350000Y160000D02*
D03*
X355000Y150000D02*
D03*
X350000Y140000D02*
D03*
X355000Y130000D02*
D03*
X350000Y120000D02*
D03*
X355000Y110000D02*
D03*
X350000Y100000D02*
D03*
X355000Y90000D02*
D03*
X350000Y80000D02*
D03*
X355000Y70000D02*
D03*
X350000Y60000D02*
D03*
X345000Y270000D02*
D03*
X340000Y260000D02*
D03*
X345000Y250000D02*
D03*
X340000Y240000D02*
D03*
X345000Y230000D02*
D03*
X340000Y220000D02*
D03*
X345000Y210000D02*
D03*
X340000Y200000D02*
D03*
X345000Y190000D02*
D03*
Y170000D02*
D03*
Y150000D02*
D03*
X340000Y140000D02*
D03*
X345000Y130000D02*
D03*
X340000Y120000D02*
D03*
X345000Y110000D02*
D03*
X340000Y100000D02*
D03*
X345000Y90000D02*
D03*
X340000Y80000D02*
D03*
X345000Y70000D02*
D03*
X340000Y60000D02*
D03*
X335000Y270000D02*
D03*
X330000Y260000D02*
D03*
X335000Y250000D02*
D03*
X330000Y240000D02*
D03*
X335000Y230000D02*
D03*
X330000Y220000D02*
D03*
X335000Y210000D02*
D03*
X330000Y200000D02*
D03*
Y180000D02*
D03*
X335000Y170000D02*
D03*
Y130000D02*
D03*
X330000Y120000D02*
D03*
X335000Y110000D02*
D03*
X330000Y100000D02*
D03*
X335000Y90000D02*
D03*
X330000Y80000D02*
D03*
X335000Y70000D02*
D03*
X330000Y60000D02*
D03*
X325000Y270000D02*
D03*
X320000Y260000D02*
D03*
X325000Y250000D02*
D03*
X320000Y240000D02*
D03*
X325000Y230000D02*
D03*
X320000Y220000D02*
D03*
X325000Y210000D02*
D03*
X320000Y200000D02*
D03*
Y140000D02*
D03*
X325000Y130000D02*
D03*
X320000Y120000D02*
D03*
X325000Y110000D02*
D03*
X320000Y100000D02*
D03*
X315000Y270000D02*
D03*
X310000Y260000D02*
D03*
X315000Y250000D02*
D03*
X310000Y240000D02*
D03*
X315000Y230000D02*
D03*
X310000Y220000D02*
D03*
X315000Y210000D02*
D03*
X310000Y200000D02*
D03*
Y180000D02*
D03*
Y140000D02*
D03*
X315000Y130000D02*
D03*
X310000Y120000D02*
D03*
X315000Y110000D02*
D03*
Y90000D02*
D03*
Y70000D02*
D03*
X305000Y270000D02*
D03*
X300000Y260000D02*
D03*
X305000Y250000D02*
D03*
X300000Y240000D02*
D03*
X305000Y230000D02*
D03*
X300000Y220000D02*
D03*
X305000Y210000D02*
D03*
X300000Y180000D02*
D03*
X305000Y170000D02*
D03*
Y150000D02*
D03*
X300000Y140000D02*
D03*
X305000Y130000D02*
D03*
X300000Y120000D02*
D03*
X305000Y110000D02*
D03*
X295000Y270000D02*
D03*
X290000Y260000D02*
D03*
X295000Y250000D02*
D03*
X290000Y240000D02*
D03*
X295000Y230000D02*
D03*
X290000Y220000D02*
D03*
X295000Y210000D02*
D03*
Y190000D02*
D03*
Y110000D02*
D03*
X285000Y270000D02*
D03*
Y250000D02*
D03*
X280000Y240000D02*
D03*
X285000Y230000D02*
D03*
X280000Y220000D02*
D03*
X285000Y210000D02*
D03*
Y190000D02*
D03*
X280000Y100000D02*
D03*
X270000Y240000D02*
D03*
X275000Y230000D02*
D03*
X270000Y220000D02*
D03*
X275000Y210000D02*
D03*
Y190000D02*
D03*
Y170000D02*
D03*
X270000Y100000D02*
D03*
X275000Y90000D02*
D03*
X265000Y250000D02*
D03*
X260000Y240000D02*
D03*
X265000Y230000D02*
D03*
X260000Y220000D02*
D03*
X265000Y210000D02*
D03*
Y190000D02*
D03*
X260000Y160000D02*
D03*
X265000Y110000D02*
D03*
X260000Y100000D02*
D03*
X265000Y90000D02*
D03*
X260000Y80000D02*
D03*
Y60000D02*
D03*
X250000Y260000D02*
D03*
X255000Y250000D02*
D03*
Y230000D02*
D03*
Y210000D02*
D03*
Y110000D02*
D03*
X250000Y100000D02*
D03*
X255000Y90000D02*
D03*
X250000Y60000D02*
D03*
X245000Y270000D02*
D03*
X240000Y260000D02*
D03*
X245000Y210000D02*
D03*
X240000Y180000D02*
D03*
X245000Y170000D02*
D03*
Y70000D02*
D03*
X240000Y60000D02*
D03*
X235000Y270000D02*
D03*
X230000Y240000D02*
D03*
X235000Y230000D02*
D03*
X230000Y80000D02*
D03*
X235000Y70000D02*
D03*
X225000Y270000D02*
D03*
X220000Y260000D02*
D03*
X225000Y250000D02*
D03*
Y230000D02*
D03*
Y90000D02*
D03*
X220000Y80000D02*
D03*
X225000Y70000D02*
D03*
X220000Y60000D02*
D03*
X215000Y270000D02*
D03*
X210000Y260000D02*
D03*
Y180000D02*
D03*
X215000Y90000D02*
D03*
Y70000D02*
D03*
X210000Y60000D02*
D03*
X205000Y270000D02*
D03*
X200000Y260000D02*
D03*
X205000Y250000D02*
D03*
Y230000D02*
D03*
Y170000D02*
D03*
X200000Y160000D02*
D03*
Y60000D02*
D03*
X195000Y270000D02*
D03*
X190000Y260000D02*
D03*
X195000Y250000D02*
D03*
X190000Y200000D02*
D03*
X195000Y170000D02*
D03*
X190000Y160000D02*
D03*
Y140000D02*
D03*
Y120000D02*
D03*
X195000Y90000D02*
D03*
X190000Y80000D02*
D03*
X195000Y70000D02*
D03*
X190000Y60000D02*
D03*
X185000Y270000D02*
D03*
X180000Y260000D02*
D03*
X185000Y250000D02*
D03*
Y170000D02*
D03*
X180000Y140000D02*
D03*
Y120000D02*
D03*
X185000Y90000D02*
D03*
X180000Y80000D02*
D03*
X185000Y70000D02*
D03*
X180000Y60000D02*
D03*
X175000Y270000D02*
D03*
X170000Y260000D02*
D03*
X175000Y250000D02*
D03*
Y230000D02*
D03*
Y130000D02*
D03*
X170000Y120000D02*
D03*
X175000Y90000D02*
D03*
X170000Y80000D02*
D03*
Y60000D02*
D03*
X165000Y270000D02*
D03*
X160000Y260000D02*
D03*
X165000Y250000D02*
D03*
X160000Y240000D02*
D03*
X165000Y230000D02*
D03*
X160000Y180000D02*
D03*
X165000Y170000D02*
D03*
X160000Y160000D02*
D03*
X165000Y150000D02*
D03*
X160000Y120000D02*
D03*
X165000Y90000D02*
D03*
X160000Y80000D02*
D03*
X165000Y70000D02*
D03*
X160000Y60000D02*
D03*
X155000Y250000D02*
D03*
X150000Y240000D02*
D03*
X155000Y230000D02*
D03*
Y170000D02*
D03*
Y150000D02*
D03*
X150000Y140000D02*
D03*
X155000Y90000D02*
D03*
X150000Y80000D02*
D03*
X155000Y70000D02*
D03*
X140000Y260000D02*
D03*
X145000Y250000D02*
D03*
Y230000D02*
D03*
Y190000D02*
D03*
X140000Y140000D02*
D03*
X145000Y130000D02*
D03*
Y90000D02*
D03*
X140000Y60000D02*
D03*
X135000Y270000D02*
D03*
X130000Y260000D02*
D03*
Y140000D02*
D03*
X135000Y130000D02*
D03*
Y70000D02*
D03*
X130000Y60000D02*
D03*
X125000Y250000D02*
D03*
X120000Y240000D02*
D03*
X125000Y230000D02*
D03*
X120000Y220000D02*
D03*
Y140000D02*
D03*
X125000Y130000D02*
D03*
Y90000D02*
D03*
X120000Y80000D02*
D03*
X115000Y270000D02*
D03*
X110000Y260000D02*
D03*
X115000Y250000D02*
D03*
X110000Y240000D02*
D03*
X115000Y230000D02*
D03*
X110000Y220000D02*
D03*
Y140000D02*
D03*
X115000Y130000D02*
D03*
X110000Y120000D02*
D03*
Y100000D02*
D03*
X115000Y70000D02*
D03*
X105000Y270000D02*
D03*
X100000Y260000D02*
D03*
X105000Y250000D02*
D03*
X100000Y240000D02*
D03*
X105000Y230000D02*
D03*
X100000Y220000D02*
D03*
Y200000D02*
D03*
Y160000D02*
D03*
Y140000D02*
D03*
X105000Y130000D02*
D03*
Y70000D02*
D03*
X100000Y60000D02*
D03*
X95000Y270000D02*
D03*
X90000Y260000D02*
D03*
X95000Y250000D02*
D03*
X90000Y240000D02*
D03*
X95000Y230000D02*
D03*
X90000Y200000D02*
D03*
Y140000D02*
D03*
X95000Y130000D02*
D03*
Y110000D02*
D03*
Y70000D02*
D03*
X90000Y60000D02*
D03*
X85000Y270000D02*
D03*
X80000Y260000D02*
D03*
X85000Y250000D02*
D03*
X80000Y240000D02*
D03*
X85000Y210000D02*
D03*
Y190000D02*
D03*
X80000Y160000D02*
D03*
X85000Y150000D02*
D03*
X80000Y140000D02*
D03*
X85000Y130000D02*
D03*
Y110000D02*
D03*
Y70000D02*
D03*
X80000Y60000D02*
D03*
X75000Y270000D02*
D03*
X70000Y260000D02*
D03*
X75000Y250000D02*
D03*
Y230000D02*
D03*
X70000Y220000D02*
D03*
Y200000D02*
D03*
Y160000D02*
D03*
Y140000D02*
D03*
X75000Y130000D02*
D03*
Y110000D02*
D03*
X70000Y80000D02*
D03*
X75000Y70000D02*
D03*
X70000Y60000D02*
D03*
X65000Y270000D02*
D03*
X60000Y260000D02*
D03*
X65000Y250000D02*
D03*
Y230000D02*
D03*
X60000Y220000D02*
D03*
X65000Y210000D02*
D03*
X60000Y200000D02*
D03*
X65000Y190000D02*
D03*
X60000Y180000D02*
D03*
Y120000D02*
D03*
X65000Y110000D02*
D03*
X60000Y80000D02*
D03*
X65000Y70000D02*
D03*
X55000Y250000D02*
D03*
Y230000D02*
D03*
X50000Y220000D02*
D03*
X55000Y210000D02*
D03*
X50000Y200000D02*
D03*
Y180000D02*
D03*
X55000Y170000D02*
D03*
X50000Y160000D02*
D03*
X55000Y150000D02*
D03*
X50000Y120000D02*
D03*
X55000Y110000D02*
D03*
Y90000D02*
D03*
X40000Y240000D02*
D03*
Y220000D02*
D03*
Y200000D02*
D03*
X45000Y190000D02*
D03*
X40000Y180000D02*
D03*
X45000Y170000D02*
D03*
X40000Y160000D02*
D03*
X45000Y150000D02*
D03*
X40000Y140000D02*
D03*
X45000Y130000D02*
D03*
X40000Y120000D02*
D03*
X45000Y110000D02*
D03*
X40000Y100000D02*
D03*
X200500Y120000D02*
D03*
Y113000D02*
D03*
X142000Y125500D02*
D03*
X202500Y211000D02*
D03*
Y208000D02*
D03*
X245449Y219520D02*
D03*
X230500Y211000D02*
D03*
Y208000D02*
D03*
X145500Y234866D02*
D03*
X137500Y219500D02*
D03*
X253500Y234866D02*
D03*
X119736Y183300D02*
D03*
X116972D02*
D03*
X122500D02*
D03*
X119736Y186900D02*
D03*
X116972D02*
D03*
X122500D02*
D03*
X119736Y197700D02*
D03*
X122500D02*
D03*
X116972D02*
D03*
X119736Y190500D02*
D03*
X122500D02*
D03*
X116972D02*
D03*
Y194100D02*
D03*
X122500D02*
D03*
X119736D02*
D03*
X123500Y96134D02*
D03*
X231500D02*
D03*
X170500Y125500D02*
D03*
X178000Y195500D02*
D03*
X201000Y104500D02*
D03*
X239415Y111585D02*
D03*
X131455D02*
D03*
X205500Y200000D02*
D03*
X166500Y189500D02*
D03*
X168986Y189620D02*
D03*
X188500Y145000D02*
D03*
X309063Y87000D02*
D03*
X300937Y65500D02*
D03*
X299500Y59263D02*
D03*
X272379Y123879D02*
D03*
X270000Y121500D02*
D03*
X267000D02*
D03*
X264000D02*
D03*
X261000D02*
D03*
X261178Y146259D02*
D03*
X264199D02*
D03*
X267220D02*
D03*
X303032Y86968D02*
D03*
X307000Y65500D02*
D03*
X308500Y187000D02*
D03*
X250902Y166500D02*
D03*
X250951Y184549D02*
D03*
X231173Y184500D02*
D03*
X233032Y172306D02*
D03*
X218500Y164432D02*
D03*
X227500Y159500D02*
D03*
M02*
