G04*
G04 #@! TF.GenerationSoftware,Altium Limited,Altium Designer,22.0.2 (36)*
G04*
G04 Layer_Color=128*
%FSLAX25Y25*%
%MOIN*%
G70*
G04*
G04 #@! TF.SameCoordinates,A6D4CE7A-EFCD-4D6A-9A72-3AB9F5591AE9*
G04*
G04*
G04 #@! TF.FilePolarity,Positive*
G04*
G01*
G75*
%ADD16C,0.01000*%
%ADD103C,0.00200*%
D16*
X351500Y54398D02*
G03*
X365673Y68571I0J14173D01*
G01*
Y261500D02*
G03*
X351500Y275673I-14173J0D01*
G01*
X30579Y68571D02*
G03*
X44752Y54398I14173J0D01*
G01*
Y275658D02*
G03*
X30579Y261484I0J-14173D01*
G01*
X44752Y275658D02*
X351500D01*
X365673Y68571D02*
Y261500D01*
X44752Y54398D02*
X351500D01*
X30579Y68571D02*
Y261484D01*
D103*
X69972Y179201D02*
X81389D01*
X75681Y173493D02*
Y184910D01*
X69972Y150856D02*
X81389D01*
X75681Y145147D02*
Y156564D01*
X50878Y191603D02*
X53240D01*
X52059Y190422D02*
Y192784D01*
X50878Y138453D02*
X53240D01*
X52059Y137272D02*
Y139634D01*
X71147Y86515D02*
X73903D01*
X72525Y85137D02*
Y87893D01*
X80988Y86515D02*
X83744D01*
X82366Y85137D02*
Y87893D01*
X88862Y86515D02*
X91618D01*
X90240Y85137D02*
Y87893D01*
X98706Y86515D02*
X101462D01*
X100084Y85137D02*
Y87893D01*
X100673Y92422D02*
X103429D01*
X102051Y91044D02*
Y93800D01*
X92799Y92422D02*
X95555D01*
X94177Y91044D02*
Y93800D01*
X84925Y92422D02*
X87681D01*
X86303Y91044D02*
Y93800D01*
X77051Y92422D02*
X79807D01*
X78429Y91044D02*
Y93800D01*
X69177Y92422D02*
X71933D01*
X70555Y91044D02*
Y93800D01*
X59728Y88485D02*
X62484D01*
X61106Y87107D02*
Y89863D01*
X110122Y88485D02*
X112878D01*
X111500Y87107D02*
Y89863D01*
X110122Y62500D02*
X112878D01*
X111500Y61122D02*
Y63878D01*
X59728Y62500D02*
X62484D01*
X61106Y61122D02*
Y63878D01*
X331091Y147521D02*
X333847D01*
X332469Y146143D02*
Y148899D01*
X331091Y157363D02*
X333847D01*
X332469Y155985D02*
Y158741D01*
X331091Y165237D02*
X333847D01*
X332469Y163859D02*
Y166615D01*
X331091Y175080D02*
X333847D01*
X332469Y173702D02*
Y176458D01*
X325185Y177048D02*
X327941D01*
X326563Y175670D02*
Y178426D01*
X325185Y169174D02*
X327941D01*
X326563Y167796D02*
Y170552D01*
X325185Y161300D02*
X327941D01*
X326563Y159922D02*
Y162678D01*
X325185Y153426D02*
X327941D01*
X326563Y152048D02*
Y154804D01*
X325185Y145552D02*
X327941D01*
X326563Y144174D02*
Y146930D01*
X329122Y136102D02*
X331878D01*
X330500Y134724D02*
Y137480D01*
X329122Y186496D02*
X331878D01*
X330500Y185118D02*
Y187874D01*
X355107Y186496D02*
X357863D01*
X356485Y185118D02*
Y187874D01*
X355107Y136102D02*
X357863D01*
X356485Y134724D02*
Y137480D01*
X39437Y261484D02*
X50067D01*
X44752Y256169D02*
Y266799D01*
X39437Y68571D02*
X50067D01*
X44752Y63256D02*
Y73886D01*
X267783Y68571D02*
X278413D01*
X273098Y63256D02*
Y73886D01*
X267783Y261484D02*
X278413D01*
X273098Y256169D02*
Y266799D01*
X257400Y121500D02*
X258600D01*
X258000Y120900D02*
Y122100D01*
X254400Y121500D02*
X255600D01*
X255000Y120900D02*
Y122100D01*
X251400Y121500D02*
X252600D01*
X252000Y120900D02*
Y122100D01*
X248400Y121500D02*
X249600D01*
X249000Y120900D02*
Y122100D01*
X245400Y121500D02*
X246600D01*
X246000Y120900D02*
Y122100D01*
X242400Y121500D02*
X243600D01*
X243000Y120900D02*
Y122100D01*
X239400Y121500D02*
X240600D01*
X240000Y120900D02*
Y122100D01*
X236400Y121500D02*
X237600D01*
X237000Y120900D02*
Y122100D01*
X233400Y121500D02*
X234600D01*
X234000Y120900D02*
Y122100D01*
X230400Y121500D02*
X231600D01*
X231000Y120900D02*
Y122100D01*
X212180Y146259D02*
X213380D01*
X212780Y145659D02*
Y146859D01*
X215201Y146259D02*
X216401D01*
X215801Y145659D02*
Y146859D01*
X218222Y146259D02*
X219422D01*
X218822Y145659D02*
Y146859D01*
X227400Y121500D02*
X228600D01*
X228000Y120900D02*
Y122100D01*
X224400Y121500D02*
X225600D01*
X225000Y120900D02*
Y122100D01*
X221400Y121500D02*
X222600D01*
X222000Y120900D02*
Y122100D01*
X218400Y121500D02*
X219600D01*
X219000Y120900D02*
Y122100D01*
X215400Y121500D02*
X216600D01*
X216000Y120900D02*
Y122100D01*
X212400Y121500D02*
X213600D01*
X213000Y120900D02*
Y122100D01*
X209400Y121500D02*
X210600D01*
X210000Y120900D02*
Y122100D01*
X207021Y123879D02*
X208221D01*
X207621Y123279D02*
Y124479D01*
X206779Y143879D02*
X207979D01*
X207379Y143279D02*
Y144479D01*
X205300Y134000D02*
X206500D01*
X205900Y133400D02*
Y134600D01*
X205300Y141500D02*
X206500D01*
X205900Y140900D02*
Y142100D01*
X205300Y130250D02*
X206500D01*
X205900Y129650D02*
Y130850D01*
X205300Y126500D02*
X206500D01*
X205900Y125900D02*
Y127100D01*
X205300Y137750D02*
X206500D01*
X205900Y137150D02*
Y138350D01*
X209159Y146259D02*
X210359D01*
X209759Y145659D02*
Y146859D01*
X224264Y146259D02*
X225464D01*
X224864Y145659D02*
Y146859D01*
X230306Y146259D02*
X231505D01*
X230906Y145659D02*
Y146859D01*
X227285Y146259D02*
X228485D01*
X227885Y145659D02*
Y146859D01*
X221243Y146259D02*
X222443D01*
X221843Y145659D02*
Y146859D01*
X257557Y146259D02*
X258757D01*
X258157Y145659D02*
Y146859D01*
X251516Y146259D02*
X252715D01*
X252116Y145659D02*
Y146859D01*
X248495Y146259D02*
X249694D01*
X249095Y145659D02*
Y146859D01*
X254537Y146259D02*
X255736D01*
X255136Y145659D02*
Y146859D01*
X269641Y146259D02*
X270841D01*
X270241Y145659D02*
Y146859D01*
X273500Y137750D02*
X274700D01*
X274100Y137150D02*
Y138350D01*
X273500Y126500D02*
X274700D01*
X274100Y125900D02*
Y127100D01*
X273500Y130250D02*
X274700D01*
X274100Y129650D02*
Y130850D01*
X273500Y141500D02*
X274700D01*
X274100Y140900D02*
Y142100D01*
X273500Y134000D02*
X274700D01*
X274100Y133400D02*
Y134600D01*
X294400Y130000D02*
X295600D01*
X295000Y129400D02*
Y130600D01*
X272021Y143879D02*
X273221D01*
X272621Y143279D02*
Y144479D01*
X222400Y153437D02*
X223600D01*
X223000Y152837D02*
Y154037D01*
X226900Y153437D02*
X228100D01*
X227500Y152837D02*
Y154037D01*
X359400Y260000D02*
X360600D01*
X360000Y259400D02*
Y260600D01*
X359400Y240000D02*
X360600D01*
X360000Y239400D02*
Y240600D01*
X359400Y220000D02*
X360600D01*
X360000Y219400D02*
Y220600D01*
X359400Y200000D02*
X360600D01*
X360000Y199400D02*
Y200600D01*
X359400Y180000D02*
X360600D01*
X360000Y179400D02*
Y180600D01*
X359400Y160000D02*
X360600D01*
X360000Y159400D02*
Y160600D01*
X359400Y120000D02*
X360600D01*
X360000Y119400D02*
Y120600D01*
X359400Y100000D02*
X360600D01*
X360000Y99400D02*
Y100600D01*
X359400Y80000D02*
X360600D01*
X360000Y79400D02*
Y80600D01*
X359400Y60000D02*
X360600D01*
X360000Y59400D02*
Y60600D01*
X354400Y270000D02*
X355600D01*
X355000Y269400D02*
Y270600D01*
X349400Y260000D02*
X350600D01*
X350000Y259400D02*
Y260600D01*
X354400Y250000D02*
X355600D01*
X355000Y249400D02*
Y250600D01*
X349400Y240000D02*
X350600D01*
X350000Y239400D02*
Y240600D01*
X354400Y230000D02*
X355600D01*
X355000Y229400D02*
Y230600D01*
X349400Y220000D02*
X350600D01*
X350000Y219400D02*
Y220600D01*
X354400Y210000D02*
X355600D01*
X355000Y209400D02*
Y210600D01*
X349400Y200000D02*
X350600D01*
X350000Y199400D02*
Y200600D01*
X349400Y180000D02*
X350600D01*
X350000Y179400D02*
Y180600D01*
X354400Y170000D02*
X355600D01*
X355000Y169400D02*
Y170600D01*
X349400Y160000D02*
X350600D01*
X350000Y159400D02*
Y160600D01*
X354400Y150000D02*
X355600D01*
X355000Y149400D02*
Y150600D01*
X349400Y140000D02*
X350600D01*
X350000Y139400D02*
Y140600D01*
X354400Y130000D02*
X355600D01*
X355000Y129400D02*
Y130600D01*
X349400Y120000D02*
X350600D01*
X350000Y119400D02*
Y120600D01*
X354400Y110000D02*
X355600D01*
X355000Y109400D02*
Y110600D01*
X349400Y100000D02*
X350600D01*
X350000Y99400D02*
Y100600D01*
X354400Y90000D02*
X355600D01*
X355000Y89400D02*
Y90600D01*
X349400Y80000D02*
X350600D01*
X350000Y79400D02*
Y80600D01*
X354400Y70000D02*
X355600D01*
X355000Y69400D02*
Y70600D01*
X349400Y60000D02*
X350600D01*
X350000Y59400D02*
Y60600D01*
X344400Y270000D02*
X345600D01*
X345000Y269400D02*
Y270600D01*
X339400Y260000D02*
X340600D01*
X340000Y259400D02*
Y260600D01*
X344400Y250000D02*
X345600D01*
X345000Y249400D02*
Y250600D01*
X339400Y240000D02*
X340600D01*
X340000Y239400D02*
Y240600D01*
X344400Y230000D02*
X345600D01*
X345000Y229400D02*
Y230600D01*
X339400Y220000D02*
X340600D01*
X340000Y219400D02*
Y220600D01*
X344400Y210000D02*
X345600D01*
X345000Y209400D02*
Y210600D01*
X339400Y200000D02*
X340600D01*
X340000Y199400D02*
Y200600D01*
X344400Y190000D02*
X345600D01*
X345000Y189400D02*
Y190600D01*
X344400Y170000D02*
X345600D01*
X345000Y169400D02*
Y170600D01*
X344400Y150000D02*
X345600D01*
X345000Y149400D02*
Y150600D01*
X339400Y140000D02*
X340600D01*
X340000Y139400D02*
Y140600D01*
X344400Y130000D02*
X345600D01*
X345000Y129400D02*
Y130600D01*
X339400Y120000D02*
X340600D01*
X340000Y119400D02*
Y120600D01*
X344400Y110000D02*
X345600D01*
X345000Y109400D02*
Y110600D01*
X339400Y100000D02*
X340600D01*
X340000Y99400D02*
Y100600D01*
X344400Y90000D02*
X345600D01*
X345000Y89400D02*
Y90600D01*
X339400Y80000D02*
X340600D01*
X340000Y79400D02*
Y80600D01*
X344400Y70000D02*
X345600D01*
X345000Y69400D02*
Y70600D01*
X339400Y60000D02*
X340600D01*
X340000Y59400D02*
Y60600D01*
X334400Y270000D02*
X335600D01*
X335000Y269400D02*
Y270600D01*
X329400Y260000D02*
X330600D01*
X330000Y259400D02*
Y260600D01*
X334400Y250000D02*
X335600D01*
X335000Y249400D02*
Y250600D01*
X329400Y240000D02*
X330600D01*
X330000Y239400D02*
Y240600D01*
X334400Y230000D02*
X335600D01*
X335000Y229400D02*
Y230600D01*
X329400Y220000D02*
X330600D01*
X330000Y219400D02*
Y220600D01*
X334400Y210000D02*
X335600D01*
X335000Y209400D02*
Y210600D01*
X329400Y200000D02*
X330600D01*
X330000Y199400D02*
Y200600D01*
X329400Y180000D02*
X330600D01*
X330000Y179400D02*
Y180600D01*
X334400Y170000D02*
X335600D01*
X335000Y169400D02*
Y170600D01*
X334400Y130000D02*
X335600D01*
X335000Y129400D02*
Y130600D01*
X329400Y120000D02*
X330600D01*
X330000Y119400D02*
Y120600D01*
X334400Y110000D02*
X335600D01*
X335000Y109400D02*
Y110600D01*
X329400Y100000D02*
X330600D01*
X330000Y99400D02*
Y100600D01*
X334400Y90000D02*
X335600D01*
X335000Y89400D02*
Y90600D01*
X329400Y80000D02*
X330600D01*
X330000Y79400D02*
Y80600D01*
X334400Y70000D02*
X335600D01*
X335000Y69400D02*
Y70600D01*
X329400Y60000D02*
X330600D01*
X330000Y59400D02*
Y60600D01*
X324400Y270000D02*
X325600D01*
X325000Y269400D02*
Y270600D01*
X319400Y260000D02*
X320600D01*
X320000Y259400D02*
Y260600D01*
X324400Y250000D02*
X325600D01*
X325000Y249400D02*
Y250600D01*
X319400Y240000D02*
X320600D01*
X320000Y239400D02*
Y240600D01*
X324400Y230000D02*
X325600D01*
X325000Y229400D02*
Y230600D01*
X319400Y220000D02*
X320600D01*
X320000Y219400D02*
Y220600D01*
X324400Y210000D02*
X325600D01*
X325000Y209400D02*
Y210600D01*
X319400Y200000D02*
X320600D01*
X320000Y199400D02*
Y200600D01*
X319400Y140000D02*
X320600D01*
X320000Y139400D02*
Y140600D01*
X324400Y130000D02*
X325600D01*
X325000Y129400D02*
Y130600D01*
X319400Y120000D02*
X320600D01*
X320000Y119400D02*
Y120600D01*
X324400Y110000D02*
X325600D01*
X325000Y109400D02*
Y110600D01*
X319400Y100000D02*
X320600D01*
X320000Y99400D02*
Y100600D01*
X314400Y270000D02*
X315600D01*
X315000Y269400D02*
Y270600D01*
X309400Y260000D02*
X310600D01*
X310000Y259400D02*
Y260600D01*
X314400Y250000D02*
X315600D01*
X315000Y249400D02*
Y250600D01*
X309400Y240000D02*
X310600D01*
X310000Y239400D02*
Y240600D01*
X314400Y230000D02*
X315600D01*
X315000Y229400D02*
Y230600D01*
X309400Y220000D02*
X310600D01*
X310000Y219400D02*
Y220600D01*
X314400Y210000D02*
X315600D01*
X315000Y209400D02*
Y210600D01*
X309400Y200000D02*
X310600D01*
X310000Y199400D02*
Y200600D01*
X309400Y180000D02*
X310600D01*
X310000Y179400D02*
Y180600D01*
X309400Y140000D02*
X310600D01*
X310000Y139400D02*
Y140600D01*
X314400Y130000D02*
X315600D01*
X315000Y129400D02*
Y130600D01*
X309400Y120000D02*
X310600D01*
X310000Y119400D02*
Y120600D01*
X314400Y110000D02*
X315600D01*
X315000Y109400D02*
Y110600D01*
X314400Y90000D02*
X315600D01*
X315000Y89400D02*
Y90600D01*
X314400Y70000D02*
X315600D01*
X315000Y69400D02*
Y70600D01*
X304400Y270000D02*
X305600D01*
X305000Y269400D02*
Y270600D01*
X299400Y260000D02*
X300600D01*
X300000Y259400D02*
Y260600D01*
X304400Y250000D02*
X305600D01*
X305000Y249400D02*
Y250600D01*
X299400Y240000D02*
X300600D01*
X300000Y239400D02*
Y240600D01*
X304400Y230000D02*
X305600D01*
X305000Y229400D02*
Y230600D01*
X299400Y220000D02*
X300600D01*
X300000Y219400D02*
Y220600D01*
X304400Y210000D02*
X305600D01*
X305000Y209400D02*
Y210600D01*
X299400Y180000D02*
X300600D01*
X300000Y179400D02*
Y180600D01*
X304400Y170000D02*
X305600D01*
X305000Y169400D02*
Y170600D01*
X304400Y150000D02*
X305600D01*
X305000Y149400D02*
Y150600D01*
X299400Y140000D02*
X300600D01*
X300000Y139400D02*
Y140600D01*
X304400Y130000D02*
X305600D01*
X305000Y129400D02*
Y130600D01*
X299400Y120000D02*
X300600D01*
X300000Y119400D02*
Y120600D01*
X304400Y110000D02*
X305600D01*
X305000Y109400D02*
Y110600D01*
X294400Y270000D02*
X295600D01*
X295000Y269400D02*
Y270600D01*
X289400Y260000D02*
X290600D01*
X290000Y259400D02*
Y260600D01*
X294400Y250000D02*
X295600D01*
X295000Y249400D02*
Y250600D01*
X289400Y240000D02*
X290600D01*
X290000Y239400D02*
Y240600D01*
X294400Y230000D02*
X295600D01*
X295000Y229400D02*
Y230600D01*
X289400Y220000D02*
X290600D01*
X290000Y219400D02*
Y220600D01*
X294400Y210000D02*
X295600D01*
X295000Y209400D02*
Y210600D01*
X294400Y190000D02*
X295600D01*
X295000Y189400D02*
Y190600D01*
X294400Y110000D02*
X295600D01*
X295000Y109400D02*
Y110600D01*
X284400Y270000D02*
X285600D01*
X285000Y269400D02*
Y270600D01*
X284400Y250000D02*
X285600D01*
X285000Y249400D02*
Y250600D01*
X279400Y240000D02*
X280600D01*
X280000Y239400D02*
Y240600D01*
X284400Y230000D02*
X285600D01*
X285000Y229400D02*
Y230600D01*
X279400Y220000D02*
X280600D01*
X280000Y219400D02*
Y220600D01*
X284400Y210000D02*
X285600D01*
X285000Y209400D02*
Y210600D01*
X284400Y190000D02*
X285600D01*
X285000Y189400D02*
Y190600D01*
X279400Y100000D02*
X280600D01*
X280000Y99400D02*
Y100600D01*
X269400Y240000D02*
X270600D01*
X270000Y239400D02*
Y240600D01*
X274400Y230000D02*
X275600D01*
X275000Y229400D02*
Y230600D01*
X269400Y220000D02*
X270600D01*
X270000Y219400D02*
Y220600D01*
X274400Y210000D02*
X275600D01*
X275000Y209400D02*
Y210600D01*
X274400Y190000D02*
X275600D01*
X275000Y189400D02*
Y190600D01*
X274400Y170000D02*
X275600D01*
X275000Y169400D02*
Y170600D01*
X269400Y100000D02*
X270600D01*
X270000Y99400D02*
Y100600D01*
X274400Y90000D02*
X275600D01*
X275000Y89400D02*
Y90600D01*
X264400Y250000D02*
X265600D01*
X265000Y249400D02*
Y250600D01*
X259400Y240000D02*
X260600D01*
X260000Y239400D02*
Y240600D01*
X264400Y230000D02*
X265600D01*
X265000Y229400D02*
Y230600D01*
X259400Y220000D02*
X260600D01*
X260000Y219400D02*
Y220600D01*
X264400Y210000D02*
X265600D01*
X265000Y209400D02*
Y210600D01*
X264400Y190000D02*
X265600D01*
X265000Y189400D02*
Y190600D01*
X259400Y160000D02*
X260600D01*
X260000Y159400D02*
Y160600D01*
X264400Y110000D02*
X265600D01*
X265000Y109400D02*
Y110600D01*
X259400Y100000D02*
X260600D01*
X260000Y99400D02*
Y100600D01*
X264400Y90000D02*
X265600D01*
X265000Y89400D02*
Y90600D01*
X259400Y80000D02*
X260600D01*
X260000Y79400D02*
Y80600D01*
X259400Y60000D02*
X260600D01*
X260000Y59400D02*
Y60600D01*
X249400Y260000D02*
X250600D01*
X250000Y259400D02*
Y260600D01*
X254400Y250000D02*
X255600D01*
X255000Y249400D02*
Y250600D01*
X254400Y230000D02*
X255600D01*
X255000Y229400D02*
Y230600D01*
X254400Y210000D02*
X255600D01*
X255000Y209400D02*
Y210600D01*
X254400Y110000D02*
X255600D01*
X255000Y109400D02*
Y110600D01*
X249400Y100000D02*
X250600D01*
X250000Y99400D02*
Y100600D01*
X254400Y90000D02*
X255600D01*
X255000Y89400D02*
Y90600D01*
X249400Y60000D02*
X250600D01*
X250000Y59400D02*
Y60600D01*
X244400Y270000D02*
X245600D01*
X245000Y269400D02*
Y270600D01*
X239400Y260000D02*
X240600D01*
X240000Y259400D02*
Y260600D01*
X244400Y210000D02*
X245600D01*
X245000Y209400D02*
Y210600D01*
X239400Y180000D02*
X240600D01*
X240000Y179400D02*
Y180600D01*
X244400Y170000D02*
X245600D01*
X245000Y169400D02*
Y170600D01*
X244400Y70000D02*
X245600D01*
X245000Y69400D02*
Y70600D01*
X239400Y60000D02*
X240600D01*
X240000Y59400D02*
Y60600D01*
X234400Y270000D02*
X235600D01*
X235000Y269400D02*
Y270600D01*
X229400Y240000D02*
X230600D01*
X230000Y239400D02*
Y240600D01*
X234400Y230000D02*
X235600D01*
X235000Y229400D02*
Y230600D01*
X229400Y80000D02*
X230600D01*
X230000Y79400D02*
Y80600D01*
X234400Y70000D02*
X235600D01*
X235000Y69400D02*
Y70600D01*
X224400Y270000D02*
X225600D01*
X225000Y269400D02*
Y270600D01*
X219400Y260000D02*
X220600D01*
X220000Y259400D02*
Y260600D01*
X224400Y250000D02*
X225600D01*
X225000Y249400D02*
Y250600D01*
X224400Y230000D02*
X225600D01*
X225000Y229400D02*
Y230600D01*
X224400Y90000D02*
X225600D01*
X225000Y89400D02*
Y90600D01*
X219400Y80000D02*
X220600D01*
X220000Y79400D02*
Y80600D01*
X224400Y70000D02*
X225600D01*
X225000Y69400D02*
Y70600D01*
X219400Y60000D02*
X220600D01*
X220000Y59400D02*
Y60600D01*
X214400Y270000D02*
X215600D01*
X215000Y269400D02*
Y270600D01*
X209400Y260000D02*
X210600D01*
X210000Y259400D02*
Y260600D01*
X209400Y180000D02*
X210600D01*
X210000Y179400D02*
Y180600D01*
X214400Y90000D02*
X215600D01*
X215000Y89400D02*
Y90600D01*
X214400Y70000D02*
X215600D01*
X215000Y69400D02*
Y70600D01*
X209400Y60000D02*
X210600D01*
X210000Y59400D02*
Y60600D01*
X204400Y270000D02*
X205600D01*
X205000Y269400D02*
Y270600D01*
X199400Y260000D02*
X200600D01*
X200000Y259400D02*
Y260600D01*
X204400Y250000D02*
X205600D01*
X205000Y249400D02*
Y250600D01*
X204400Y230000D02*
X205600D01*
X205000Y229400D02*
Y230600D01*
X204400Y170000D02*
X205600D01*
X205000Y169400D02*
Y170600D01*
X199400Y160000D02*
X200600D01*
X200000Y159400D02*
Y160600D01*
X199400Y60000D02*
X200600D01*
X200000Y59400D02*
Y60600D01*
X194400Y270000D02*
X195600D01*
X195000Y269400D02*
Y270600D01*
X189400Y260000D02*
X190600D01*
X190000Y259400D02*
Y260600D01*
X194400Y250000D02*
X195600D01*
X195000Y249400D02*
Y250600D01*
X189400Y200000D02*
X190600D01*
X190000Y199400D02*
Y200600D01*
X194400Y170000D02*
X195600D01*
X195000Y169400D02*
Y170600D01*
X189400Y160000D02*
X190600D01*
X190000Y159400D02*
Y160600D01*
X189400Y140000D02*
X190600D01*
X190000Y139400D02*
Y140600D01*
X189400Y120000D02*
X190600D01*
X190000Y119400D02*
Y120600D01*
X194400Y90000D02*
X195600D01*
X195000Y89400D02*
Y90600D01*
X189400Y80000D02*
X190600D01*
X190000Y79400D02*
Y80600D01*
X194400Y70000D02*
X195600D01*
X195000Y69400D02*
Y70600D01*
X189400Y60000D02*
X190600D01*
X190000Y59400D02*
Y60600D01*
X184400Y270000D02*
X185600D01*
X185000Y269400D02*
Y270600D01*
X179400Y260000D02*
X180600D01*
X180000Y259400D02*
Y260600D01*
X184400Y250000D02*
X185600D01*
X185000Y249400D02*
Y250600D01*
X184400Y170000D02*
X185600D01*
X185000Y169400D02*
Y170600D01*
X179400Y140000D02*
X180600D01*
X180000Y139400D02*
Y140600D01*
X179400Y120000D02*
X180600D01*
X180000Y119400D02*
Y120600D01*
X184400Y90000D02*
X185600D01*
X185000Y89400D02*
Y90600D01*
X179400Y80000D02*
X180600D01*
X180000Y79400D02*
Y80600D01*
X184400Y70000D02*
X185600D01*
X185000Y69400D02*
Y70600D01*
X179400Y60000D02*
X180600D01*
X180000Y59400D02*
Y60600D01*
X174400Y270000D02*
X175600D01*
X175000Y269400D02*
Y270600D01*
X169400Y260000D02*
X170600D01*
X170000Y259400D02*
Y260600D01*
X174400Y250000D02*
X175600D01*
X175000Y249400D02*
Y250600D01*
X174400Y230000D02*
X175600D01*
X175000Y229400D02*
Y230600D01*
X174400Y130000D02*
X175600D01*
X175000Y129400D02*
Y130600D01*
X169400Y120000D02*
X170600D01*
X170000Y119400D02*
Y120600D01*
X174400Y90000D02*
X175600D01*
X175000Y89400D02*
Y90600D01*
X169400Y80000D02*
X170600D01*
X170000Y79400D02*
Y80600D01*
X169400Y60000D02*
X170600D01*
X170000Y59400D02*
Y60600D01*
X164400Y270000D02*
X165600D01*
X165000Y269400D02*
Y270600D01*
X159400Y260000D02*
X160600D01*
X160000Y259400D02*
Y260600D01*
X164400Y250000D02*
X165600D01*
X165000Y249400D02*
Y250600D01*
X159400Y240000D02*
X160600D01*
X160000Y239400D02*
Y240600D01*
X164400Y230000D02*
X165600D01*
X165000Y229400D02*
Y230600D01*
X159400Y180000D02*
X160600D01*
X160000Y179400D02*
Y180600D01*
X164400Y170000D02*
X165600D01*
X165000Y169400D02*
Y170600D01*
X159400Y160000D02*
X160600D01*
X160000Y159400D02*
Y160600D01*
X164400Y150000D02*
X165600D01*
X165000Y149400D02*
Y150600D01*
X159400Y120000D02*
X160600D01*
X160000Y119400D02*
Y120600D01*
X164400Y90000D02*
X165600D01*
X165000Y89400D02*
Y90600D01*
X159400Y80000D02*
X160600D01*
X160000Y79400D02*
Y80600D01*
X164400Y70000D02*
X165600D01*
X165000Y69400D02*
Y70600D01*
X159400Y60000D02*
X160600D01*
X160000Y59400D02*
Y60600D01*
X154400Y250000D02*
X155600D01*
X155000Y249400D02*
Y250600D01*
X149400Y240000D02*
X150600D01*
X150000Y239400D02*
Y240600D01*
X154400Y230000D02*
X155600D01*
X155000Y229400D02*
Y230600D01*
X154400Y170000D02*
X155600D01*
X155000Y169400D02*
Y170600D01*
X154400Y150000D02*
X155600D01*
X155000Y149400D02*
Y150600D01*
X149400Y140000D02*
X150600D01*
X150000Y139400D02*
Y140600D01*
X154400Y90000D02*
X155600D01*
X155000Y89400D02*
Y90600D01*
X149400Y80000D02*
X150600D01*
X150000Y79400D02*
Y80600D01*
X154400Y70000D02*
X155600D01*
X155000Y69400D02*
Y70600D01*
X139400Y260000D02*
X140600D01*
X140000Y259400D02*
Y260600D01*
X144400Y250000D02*
X145600D01*
X145000Y249400D02*
Y250600D01*
X144400Y230000D02*
X145600D01*
X145000Y229400D02*
Y230600D01*
X144400Y190000D02*
X145600D01*
X145000Y189400D02*
Y190600D01*
X139400Y140000D02*
X140600D01*
X140000Y139400D02*
Y140600D01*
X144400Y130000D02*
X145600D01*
X145000Y129400D02*
Y130600D01*
X144400Y90000D02*
X145600D01*
X145000Y89400D02*
Y90600D01*
X139400Y60000D02*
X140600D01*
X140000Y59400D02*
Y60600D01*
X134400Y270000D02*
X135600D01*
X135000Y269400D02*
Y270600D01*
X129400Y260000D02*
X130600D01*
X130000Y259400D02*
Y260600D01*
X129400Y140000D02*
X130600D01*
X130000Y139400D02*
Y140600D01*
X134400Y130000D02*
X135600D01*
X135000Y129400D02*
Y130600D01*
X134400Y70000D02*
X135600D01*
X135000Y69400D02*
Y70600D01*
X129400Y60000D02*
X130600D01*
X130000Y59400D02*
Y60600D01*
X124400Y250000D02*
X125600D01*
X125000Y249400D02*
Y250600D01*
X119400Y240000D02*
X120600D01*
X120000Y239400D02*
Y240600D01*
X124400Y230000D02*
X125600D01*
X125000Y229400D02*
Y230600D01*
X119400Y220000D02*
X120600D01*
X120000Y219400D02*
Y220600D01*
X119400Y140000D02*
X120600D01*
X120000Y139400D02*
Y140600D01*
X124400Y130000D02*
X125600D01*
X125000Y129400D02*
Y130600D01*
X124400Y90000D02*
X125600D01*
X125000Y89400D02*
Y90600D01*
X119400Y80000D02*
X120600D01*
X120000Y79400D02*
Y80600D01*
X114400Y270000D02*
X115600D01*
X115000Y269400D02*
Y270600D01*
X109400Y260000D02*
X110600D01*
X110000Y259400D02*
Y260600D01*
X114400Y250000D02*
X115600D01*
X115000Y249400D02*
Y250600D01*
X109400Y240000D02*
X110600D01*
X110000Y239400D02*
Y240600D01*
X114400Y230000D02*
X115600D01*
X115000Y229400D02*
Y230600D01*
X109400Y220000D02*
X110600D01*
X110000Y219400D02*
Y220600D01*
X109400Y140000D02*
X110600D01*
X110000Y139400D02*
Y140600D01*
X114400Y130000D02*
X115600D01*
X115000Y129400D02*
Y130600D01*
X109400Y120000D02*
X110600D01*
X110000Y119400D02*
Y120600D01*
X109400Y100000D02*
X110600D01*
X110000Y99400D02*
Y100600D01*
X114400Y70000D02*
X115600D01*
X115000Y69400D02*
Y70600D01*
X104400Y270000D02*
X105600D01*
X105000Y269400D02*
Y270600D01*
X99400Y260000D02*
X100600D01*
X100000Y259400D02*
Y260600D01*
X104400Y250000D02*
X105600D01*
X105000Y249400D02*
Y250600D01*
X99400Y240000D02*
X100600D01*
X100000Y239400D02*
Y240600D01*
X104400Y230000D02*
X105600D01*
X105000Y229400D02*
Y230600D01*
X99400Y220000D02*
X100600D01*
X100000Y219400D02*
Y220600D01*
X99400Y200000D02*
X100600D01*
X100000Y199400D02*
Y200600D01*
X99400Y160000D02*
X100600D01*
X100000Y159400D02*
Y160600D01*
X99400Y140000D02*
X100600D01*
X100000Y139400D02*
Y140600D01*
X104400Y130000D02*
X105600D01*
X105000Y129400D02*
Y130600D01*
X104400Y70000D02*
X105600D01*
X105000Y69400D02*
Y70600D01*
X99400Y60000D02*
X100600D01*
X100000Y59400D02*
Y60600D01*
X94400Y270000D02*
X95600D01*
X95000Y269400D02*
Y270600D01*
X89400Y260000D02*
X90600D01*
X90000Y259400D02*
Y260600D01*
X94400Y250000D02*
X95600D01*
X95000Y249400D02*
Y250600D01*
X89400Y240000D02*
X90600D01*
X90000Y239400D02*
Y240600D01*
X94400Y230000D02*
X95600D01*
X95000Y229400D02*
Y230600D01*
X89400Y200000D02*
X90600D01*
X90000Y199400D02*
Y200600D01*
X89400Y140000D02*
X90600D01*
X90000Y139400D02*
Y140600D01*
X94400Y130000D02*
X95600D01*
X95000Y129400D02*
Y130600D01*
X94400Y110000D02*
X95600D01*
X95000Y109400D02*
Y110600D01*
X94400Y70000D02*
X95600D01*
X95000Y69400D02*
Y70600D01*
X89400Y60000D02*
X90600D01*
X90000Y59400D02*
Y60600D01*
X84400Y270000D02*
X85600D01*
X85000Y269400D02*
Y270600D01*
X79400Y260000D02*
X80600D01*
X80000Y259400D02*
Y260600D01*
X84400Y250000D02*
X85600D01*
X85000Y249400D02*
Y250600D01*
X79400Y240000D02*
X80600D01*
X80000Y239400D02*
Y240600D01*
X84400Y210000D02*
X85600D01*
X85000Y209400D02*
Y210600D01*
X84400Y190000D02*
X85600D01*
X85000Y189400D02*
Y190600D01*
X79400Y160000D02*
X80600D01*
X80000Y159400D02*
Y160600D01*
X84400Y150000D02*
X85600D01*
X85000Y149400D02*
Y150600D01*
X79400Y140000D02*
X80600D01*
X80000Y139400D02*
Y140600D01*
X84400Y130000D02*
X85600D01*
X85000Y129400D02*
Y130600D01*
X84400Y110000D02*
X85600D01*
X85000Y109400D02*
Y110600D01*
X84400Y70000D02*
X85600D01*
X85000Y69400D02*
Y70600D01*
X79400Y60000D02*
X80600D01*
X80000Y59400D02*
Y60600D01*
X74400Y270000D02*
X75600D01*
X75000Y269400D02*
Y270600D01*
X69400Y260000D02*
X70600D01*
X70000Y259400D02*
Y260600D01*
X74400Y250000D02*
X75600D01*
X75000Y249400D02*
Y250600D01*
X74400Y230000D02*
X75600D01*
X75000Y229400D02*
Y230600D01*
X69400Y220000D02*
X70600D01*
X70000Y219400D02*
Y220600D01*
X69400Y200000D02*
X70600D01*
X70000Y199400D02*
Y200600D01*
X69400Y160000D02*
X70600D01*
X70000Y159400D02*
Y160600D01*
X69400Y140000D02*
X70600D01*
X70000Y139400D02*
Y140600D01*
X74400Y130000D02*
X75600D01*
X75000Y129400D02*
Y130600D01*
X74400Y110000D02*
X75600D01*
X75000Y109400D02*
Y110600D01*
X69400Y80000D02*
X70600D01*
X70000Y79400D02*
Y80600D01*
X74400Y70000D02*
X75600D01*
X75000Y69400D02*
Y70600D01*
X69400Y60000D02*
X70600D01*
X70000Y59400D02*
Y60600D01*
X64400Y270000D02*
X65600D01*
X65000Y269400D02*
Y270600D01*
X59400Y260000D02*
X60600D01*
X60000Y259400D02*
Y260600D01*
X64400Y250000D02*
X65600D01*
X65000Y249400D02*
Y250600D01*
X64400Y230000D02*
X65600D01*
X65000Y229400D02*
Y230600D01*
X59400Y220000D02*
X60600D01*
X60000Y219400D02*
Y220600D01*
X64400Y210000D02*
X65600D01*
X65000Y209400D02*
Y210600D01*
X59400Y200000D02*
X60600D01*
X60000Y199400D02*
Y200600D01*
X64400Y190000D02*
X65600D01*
X65000Y189400D02*
Y190600D01*
X59400Y180000D02*
X60600D01*
X60000Y179400D02*
Y180600D01*
X59400Y120000D02*
X60600D01*
X60000Y119400D02*
Y120600D01*
X64400Y110000D02*
X65600D01*
X65000Y109400D02*
Y110600D01*
X59400Y80000D02*
X60600D01*
X60000Y79400D02*
Y80600D01*
X64400Y70000D02*
X65600D01*
X65000Y69400D02*
Y70600D01*
X54400Y250000D02*
X55600D01*
X55000Y249400D02*
Y250600D01*
X54400Y230000D02*
X55600D01*
X55000Y229400D02*
Y230600D01*
X49400Y220000D02*
X50600D01*
X50000Y219400D02*
Y220600D01*
X54400Y210000D02*
X55600D01*
X55000Y209400D02*
Y210600D01*
X49400Y200000D02*
X50600D01*
X50000Y199400D02*
Y200600D01*
X49400Y180000D02*
X50600D01*
X50000Y179400D02*
Y180600D01*
X54400Y170000D02*
X55600D01*
X55000Y169400D02*
Y170600D01*
X49400Y160000D02*
X50600D01*
X50000Y159400D02*
Y160600D01*
X54400Y150000D02*
X55600D01*
X55000Y149400D02*
Y150600D01*
X49400Y120000D02*
X50600D01*
X50000Y119400D02*
Y120600D01*
X54400Y110000D02*
X55600D01*
X55000Y109400D02*
Y110600D01*
X54400Y90000D02*
X55600D01*
X55000Y89400D02*
Y90600D01*
X39400Y240000D02*
X40600D01*
X40000Y239400D02*
Y240600D01*
X39400Y220000D02*
X40600D01*
X40000Y219400D02*
Y220600D01*
X39400Y200000D02*
X40600D01*
X40000Y199400D02*
Y200600D01*
X44400Y190000D02*
X45600D01*
X45000Y189400D02*
Y190600D01*
X39400Y180000D02*
X40600D01*
X40000Y179400D02*
Y180600D01*
X44400Y170000D02*
X45600D01*
X45000Y169400D02*
Y170600D01*
X39400Y160000D02*
X40600D01*
X40000Y159400D02*
Y160600D01*
X44400Y150000D02*
X45600D01*
X45000Y149400D02*
Y150600D01*
X39400Y140000D02*
X40600D01*
X40000Y139400D02*
Y140600D01*
X44400Y130000D02*
X45600D01*
X45000Y129400D02*
Y130600D01*
X39400Y120000D02*
X40600D01*
X40000Y119400D02*
Y120600D01*
X44400Y110000D02*
X45600D01*
X45000Y109400D02*
Y110600D01*
X39400Y100000D02*
X40600D01*
X40000Y99400D02*
Y100600D01*
X199900Y120000D02*
X201100D01*
X200500Y119400D02*
Y120600D01*
X199900Y113000D02*
X201100D01*
X200500Y112400D02*
Y113600D01*
X141400Y125500D02*
X142600D01*
X142000Y124900D02*
Y126100D01*
X201900Y211000D02*
X203100D01*
X202500Y210400D02*
Y211600D01*
X201900Y208000D02*
X203100D01*
X202500Y207400D02*
Y208600D01*
X244849Y219520D02*
X246049D01*
X245449Y218920D02*
Y220120D01*
X229900Y211000D02*
X231100D01*
X230500Y210400D02*
Y211600D01*
X229900Y208000D02*
X231100D01*
X230500Y207400D02*
Y208600D01*
X144900Y234866D02*
X146100D01*
X145500Y234266D02*
Y235466D01*
X136900Y219500D02*
X138100D01*
X137500Y218900D02*
Y220100D01*
X252900Y234866D02*
X254100D01*
X253500Y234266D02*
Y235466D01*
X119136Y183300D02*
X120336D01*
X119736Y182700D02*
Y183900D01*
X116372Y183300D02*
X117572D01*
X116972Y182700D02*
Y183900D01*
X121900Y183300D02*
X123100D01*
X122500Y182700D02*
Y183900D01*
X119136Y186900D02*
X120336D01*
X119736Y186300D02*
Y187500D01*
X116372Y186900D02*
X117572D01*
X116972Y186300D02*
Y187500D01*
X121900Y186900D02*
X123100D01*
X122500Y186300D02*
Y187500D01*
X119136Y197700D02*
X120336D01*
X119736Y197100D02*
Y198300D01*
X121900Y197700D02*
X123100D01*
X122500Y197100D02*
Y198300D01*
X116372Y197700D02*
X117572D01*
X116972Y197100D02*
Y198300D01*
X119136Y190500D02*
X120336D01*
X119736Y189900D02*
Y191100D01*
X121900Y190500D02*
X123100D01*
X122500Y189900D02*
Y191100D01*
X116372Y190500D02*
X117572D01*
X116972Y189900D02*
Y191100D01*
X116372Y194100D02*
X117572D01*
X116972Y193500D02*
Y194700D01*
X121900Y194100D02*
X123100D01*
X122500Y193500D02*
Y194700D01*
X119136Y194100D02*
X120336D01*
X119736Y193500D02*
Y194700D01*
X122900Y96134D02*
X124100D01*
X123500Y95534D02*
Y96734D01*
X230900Y96134D02*
X232100D01*
X231500Y95534D02*
Y96734D01*
X169900Y125500D02*
X171100D01*
X170500Y124900D02*
Y126100D01*
X177400Y195500D02*
X178600D01*
X178000Y194900D02*
Y196100D01*
X200400Y104500D02*
X201600D01*
X201000Y103900D02*
Y105100D01*
X238815Y111585D02*
X240015D01*
X239415Y110985D02*
Y112185D01*
X130855Y111585D02*
X132055D01*
X131455Y110985D02*
Y112185D01*
X204900Y200000D02*
X206100D01*
X205500Y199400D02*
Y200600D01*
X165900Y189500D02*
X167100D01*
X166500Y188900D02*
Y190100D01*
X168386Y189620D02*
X169586D01*
X168986Y189020D02*
Y190220D01*
X187900Y145000D02*
X189100D01*
X188500Y144400D02*
Y145600D01*
X308463Y87000D02*
X309663D01*
X309063Y86400D02*
Y87600D01*
X300337Y65500D02*
X301537D01*
X300937Y64900D02*
Y66100D01*
X298900Y59263D02*
X300099D01*
X299500Y58663D02*
Y59863D01*
X271779Y123879D02*
X272979D01*
X272379Y123279D02*
Y124479D01*
X269400Y121500D02*
X270600D01*
X270000Y120900D02*
Y122100D01*
X266400Y121500D02*
X267600D01*
X267000Y120900D02*
Y122100D01*
X263400Y121500D02*
X264600D01*
X264000Y120900D02*
Y122100D01*
X260400Y121500D02*
X261600D01*
X261000Y120900D02*
Y122100D01*
X260578Y146259D02*
X261778D01*
X261178Y145659D02*
Y146859D01*
X263599Y146259D02*
X264799D01*
X264199Y145659D02*
Y146859D01*
X266620Y146259D02*
X267820D01*
X267220Y145659D02*
Y146859D01*
X302432Y86968D02*
X303632D01*
X303032Y86368D02*
Y87568D01*
X306400Y65500D02*
X307600D01*
X307000Y64900D02*
Y66100D01*
X307900Y187000D02*
X309100D01*
X308500Y186400D02*
Y187600D01*
X250302Y166500D02*
X251502D01*
X250902Y165900D02*
Y167100D01*
X250351Y184549D02*
X251551D01*
X250951Y183949D02*
Y185149D01*
X230573Y184500D02*
X231773D01*
X231173Y183900D02*
Y185100D01*
X232432Y172306D02*
X233631D01*
X233032Y171706D02*
Y172906D01*
X217900Y164432D02*
X219100D01*
X218500Y163832D02*
Y165032D01*
X226900Y159500D02*
X228100D01*
X227500Y158900D02*
Y160100D01*
M02*
